<svg width="1440" height="810" viewBox="0 0 1440 810" fill="none" xmlns="http://www.w3.org/2000/svg">
<path d="M680.16 231.128V236.168H724.032V231.128H680.16ZM693.072 228.248V243.032H710.256V228.248H705.024V238.856H698.112V228.248H693.072ZM686.976 240.872V260.792H692.064V240.872H686.976ZM680.832 244.088V248.936H689.664V244.088H680.832ZM679.728 255.08L680.784 260.024C683.664 259.064 686.736 258.008 689.76 256.904L689.088 252.536C685.536 253.496 682.224 254.504 679.728 255.08ZM711.312 240.92V254.312C711.312 258.824 712.176 260.264 716.304 260.264C717.024 260.264 718.704 260.264 719.52 260.264C722.592 260.264 723.84 258.68 724.32 253.352C722.976 253.016 720.912 252.248 719.952 251.432C719.808 255.128 719.616 255.752 718.896 255.752C718.608 255.752 717.504 255.752 717.216 255.752C716.592 255.752 716.496 255.608 716.496 254.264V240.92H711.312ZM720.576 242.888C718.8 244.424 715.968 246.248 713.424 247.496C714 248.504 714.72 250.184 715.008 251.24C717.792 250.136 721.2 248.6 724.08 246.92L720.576 242.888ZM699.216 249.368H703.968V255.128H699.216V249.368ZM694.56 245.24V259.304H708.864V245.24H694.56ZM693.888 263.24C694.464 266.36 694.848 270.392 694.848 272.888L700.512 272.024C700.464 269.624 699.888 265.64 699.216 262.616L693.888 263.24ZM703.44 263.336C704.592 266.408 705.696 270.44 706.032 272.888L711.792 271.736C711.36 269.24 710.112 265.352 708.864 262.424L703.44 263.336ZM713.088 263.048C715.344 266.264 718.032 270.68 719.088 273.368L724.8 270.92C723.552 268.184 720.672 263.96 718.416 260.936L713.088 263.048ZM685.152 261.368C683.904 264.968 681.552 268.76 679.2 270.824L684.624 273.176C687.216 270.584 689.472 266.6 690.72 262.76L685.152 261.368ZM728.928 232.328V237.32H771.12V232.328H728.928ZM756.864 254.504V255.272C753.024 263.432 742.032 267.224 729.6 268.472C730.512 269.72 731.568 271.928 732 273.368C745.536 271.496 757.344 266.984 762.528 256.136L758.928 254.312L757.968 254.504H756.864ZM746.064 251.144C743.136 254.504 737.952 258.056 731.04 260.648C732.24 261.416 733.92 263.192 734.736 264.392C742.08 261.176 747.552 257.192 751.824 252.44L746.064 251.144ZM745.056 254.504L740.88 258.68H758.688V254.504H745.056ZM747.072 228.2V251.144H752.592V228.2H747.072ZM747.408 240.248C743.472 246.44 735.552 251.624 726.96 253.928C728.064 254.984 729.552 257 730.272 258.296C739.248 255.368 747.024 249.416 751.632 241.832L747.408 240.248ZM752.352 240.296L748.08 242.024C752.88 249.464 760.896 255.656 769.584 258.728C770.352 257.384 771.936 255.32 773.088 254.264C764.544 251.768 756.432 246.392 752.352 240.296ZM736.464 237.128C735.072 241.064 732.096 244.424 728.256 246.488C729.36 247.208 731.232 248.84 732.048 249.752C736.032 247.16 739.488 243.08 741.312 238.088L736.464 237.128ZM735.312 243.464C737.136 244.664 739.584 246.392 740.736 247.496L743.76 243.848C742.512 242.792 740.016 241.208 738.192 240.2L735.312 243.464ZM760.224 237.176C759.12 240.2 756.96 243.032 754.32 244.856C755.424 245.624 757.248 247.256 758.112 248.168C760.944 245.864 763.536 242.216 764.976 238.376L760.224 237.176ZM759.12 243.272C762.24 245.144 766.368 248.024 768.384 249.8L771.408 246.152C769.296 244.424 765.072 241.784 762.048 240.056L759.12 243.272ZM740.16 263.384C748.032 266.12 758.88 270.584 764.112 273.464L769.152 269.48C763.152 266.504 752.208 262.376 744.816 259.976L740.16 263.384ZM775.776 237.8V243.128H791.328V237.8H775.776ZM782.256 228.248C780.768 237.8 778.128 250.472 776.064 258.056L780.768 260.552C783.024 251.912 785.808 239.048 787.68 228.824L782.256 228.248ZM778.608 257.288C783.168 260.264 788.688 264.824 791.136 268.136L794.544 263.528C792 260.264 786.288 256.04 781.728 253.208L778.608 257.288ZM789.312 237.8V238.856C788.4 254.024 784.08 264.632 775.872 268.904C777.024 270.008 778.56 272.072 779.328 273.464C788.928 267.608 793.584 257 794.736 238.232L791.28 237.656L790.272 237.8H789.312ZM794.496 230.792V235.976H810.192V230.792H794.496ZM810.576 244.04L809.856 249.224H816.768V244.04H810.576ZM814.848 244.04V245.048C814.368 259.976 813.696 265.832 812.544 267.128C812.016 267.704 811.536 267.8 810.72 267.8C809.712 267.8 807.504 267.8 805.2 267.608C806.112 269.096 806.784 271.4 806.88 272.984C809.376 273.128 811.776 273.128 813.312 272.888C814.992 272.648 816.144 272.168 817.344 270.632C818.976 268.664 819.552 262.472 820.176 246.392C820.224 245.72 820.272 244.04 820.272 244.04H814.848ZM798.768 232.568C798.672 246.728 798.816 260.984 791.904 269.576C793.344 270.44 795.168 272.12 796.08 273.416C803.76 263.672 804.24 248.072 804.432 232.568H798.768ZM808.752 230.792C808.512 237.272 807.792 245.624 806.976 250.856L812.208 251.24C812.928 245.96 813.648 237.512 814.032 230.792H808.752ZM828.864 236.024V241.064H838.368V263.288H828.864V268.376H843.6V236.024H828.864ZM825.504 236.024V271.928H830.736V236.024H825.504ZM828.624 248.84V253.832H840.912V248.84H828.624ZM832.32 228.2C832.08 230.84 831.408 234.536 830.736 237.032L835.344 238.04C836.304 235.784 837.504 232.376 838.608 229.112L832.32 228.2ZM849.936 235.688V240.92H863.952V235.688H849.936ZM861.984 235.688V236.792C861.456 256.808 860.832 265.064 859.296 266.696C858.672 267.368 858.144 267.56 857.184 267.56C855.984 267.56 853.104 267.512 849.984 267.272C851.04 268.808 851.808 271.256 851.904 272.84C854.688 272.984 857.616 273.032 859.44 272.744C861.408 272.456 862.752 271.928 864.096 270.056C866.064 267.512 866.64 259.88 867.264 238.28C867.312 237.56 867.312 235.688 867.312 235.688H861.984ZM850.08 228.248C848.544 234.632 845.808 241.16 842.592 245.192C843.936 245.96 846.288 247.592 847.344 248.552C850.608 243.944 853.728 236.648 855.6 229.544L850.08 228.248ZM847.728 249.512C850.032 253.064 853.056 257.768 854.352 260.696L859.248 257.72C857.76 254.888 854.592 250.28 852.24 246.968L847.728 249.512ZM878.688 246.296V251.576H889.776V246.296H878.688ZM887.568 246.296V247.16C887.472 256.472 887.28 259.832 886.704 260.6C886.32 261.08 885.888 261.176 885.216 261.176C884.448 261.176 882.816 261.176 881.088 260.984C881.952 262.424 882.576 264.68 882.672 266.36C884.928 266.408 886.992 266.408 888.288 266.216C889.68 265.976 890.64 265.544 891.6 264.344C892.704 262.856 892.944 258.584 893.136 248.408C893.136 247.736 893.184 246.296 893.184 246.296H887.568ZM902.016 231.272C904.704 232.808 908.112 235.16 909.696 236.84L913.392 232.952C911.664 231.368 908.112 229.16 905.472 227.768L902.016 231.272ZM907.68 243.608C904.368 254.744 897.936 263.432 888.72 268.376C889.92 269.528 892.032 271.928 892.896 273.128C902.4 267.272 909.456 257.528 913.488 245L907.68 243.608ZM879.024 235.448V241.112H916.032V235.448H879.024ZM875.184 235.448V249.512C875.184 255.8 874.848 264.2 871.152 269.96C872.496 270.632 875.088 272.744 876.048 273.896C880.416 267.416 881.232 256.76 881.232 249.56V235.448H875.184ZM894.672 228.296C894.816 250.184 898.704 272.984 909.168 272.984C913.68 272.984 915.6 270.824 916.512 261.896C914.976 261.32 912.912 259.976 911.616 258.632C911.328 264.68 910.752 267.128 909.648 267.128C904.8 267.128 900.384 247.88 900.72 228.296H894.672ZM936.624 247.592V252.776H955.632V247.592H936.624ZM941.76 229.592V234.632H953.904V229.592H941.76ZM949.824 229.592V232.328H950.88C952.32 239.624 955.776 246.92 961.104 251.336C962.016 249.896 963.984 247.496 965.28 246.44C960.336 243.032 957.168 236.456 955.968 229.592H949.824ZM953.424 247.592V248.6C953.136 261.368 952.8 265.928 951.984 266.984C951.552 267.512 951.168 267.656 950.448 267.656C949.68 267.656 948.096 267.656 946.368 267.464C947.232 269 947.856 271.448 947.952 273.128C950.16 273.224 952.224 273.176 953.52 272.936C955.008 272.696 956.016 272.216 957.024 270.824C958.32 269.048 958.704 263.72 959.088 249.944C959.136 249.224 959.136 247.592 959.136 247.592H953.424ZM941.904 250.184C941.424 258.2 940.128 264.872 932.496 268.904C933.696 269.912 935.232 271.976 935.904 273.272C944.592 268.088 946.896 260.12 947.568 250.184H941.904ZM938.208 234.2C936.96 238.712 934.08 244.424 930.576 247.784C931.68 248.696 933.456 250.424 934.32 251.576C938.4 247.592 941.712 241.208 943.728 235.592L938.208 234.2ZM929.376 228.44C926.928 235.304 922.752 242.12 918.384 246.488C919.392 247.88 920.928 251.048 921.456 252.44C926.688 246.968 931.68 238.328 934.8 230.12L929.376 228.44ZM924.72 241.688V273.272H930.24V236.264L930.192 236.216L924.72 241.688ZM967.968 231.272V236.408H992.448V231.272H967.968ZM969.408 254.12V259.256H990.96V254.12H969.408ZM977.376 249.464V268.424L983.088 267.56V249.464H977.376ZM967.44 266.456L968.304 272.216C974.88 271.4 984.096 270.2 992.688 269.048L992.544 263.672C983.568 264.728 973.824 265.88 967.44 266.456ZM967.872 243.656L968.208 248.984C973.968 248.744 981.984 248.408 989.616 247.976L989.76 243.032C981.744 243.32 973.392 243.56 967.872 243.656ZM982.608 239.48C985.248 242.888 988.176 247.544 989.28 250.52L993.84 247.928C992.64 244.904 989.568 240.488 986.88 237.224L982.608 239.48ZM974.784 234.392C974.016 237.944 972.432 242.888 971.04 246.056L975.888 247.352C977.472 244.376 979.344 239.768 981.024 235.688L974.784 234.392ZM994.224 234.104V261.272H999.744V234.104H994.224ZM1005.17 229.592V266.408C1005.17 267.272 1004.88 267.512 1004.02 267.56C1003.06 267.56 1000.13 267.608 997.248 267.464C998.064 269.096 998.88 271.688 999.12 273.32C1003.2 273.32 1006.32 273.128 1008.24 272.216C1010.16 271.304 1010.78 269.72 1010.78 266.456V229.592H1005.17ZM1031.71 249.416V254.456H1059.79V249.416H1031.71ZM1025.62 267.56V272.552H1046.11V267.56H1025.62ZM1025.04 260.888L1025.66 266.072C1030.61 265.496 1037.33 264.776 1043.62 263.96L1043.47 259.016C1036.85 259.784 1029.79 260.504 1025.04 260.888ZM1028.83 240.392V262.664H1034.3V241.832L1028.83 240.392ZM1051.78 238.088C1046.88 239.672 1038.62 240.968 1031.28 241.688C1031.9 242.84 1032.58 244.808 1032.77 246.056C1040.5 245.384 1049.52 244.184 1056.05 242.216L1051.78 238.088ZM1042.51 242.552C1042.9 258.344 1046.21 272.072 1053.98 272.072C1057.78 272.12 1059.55 270.44 1060.27 263.24C1058.88 262.76 1056.96 261.704 1055.76 260.6C1055.62 264.728 1055.23 266.696 1054.37 266.696C1051.01 266.696 1048.22 255.416 1048.18 242.552H1042.51ZM1036.51 228.248V235.448H1042.51V228.248H1036.51ZM1022.11 232.76V237.896H1060.03V232.76H1022.11ZM1019.28 232.76V246.296C1019.28 253.352 1018.99 263.384 1014.96 270.2C1016.3 270.824 1018.7 272.408 1019.71 273.368C1024.08 265.928 1024.8 254.12 1024.8 246.296V232.76H1019.28ZM1064.78 248.744V253.832H1107.31V248.744H1064.78ZM1086.29 257.432V262.376H1104.24V257.432H1086.29ZM1083.6 251.336V269.096H1089.41V251.336H1083.6ZM1076.16 259.016L1071.41 260.552C1075.34 270.584 1081.92 272.552 1092.96 272.552H1106.69C1106.98 270.872 1107.84 268.328 1108.66 267.08C1105.2 267.176 1095.94 267.224 1093.3 267.176C1084.9 267.128 1078.8 266.024 1076.16 259.016ZM1071.98 254.84C1070.88 261.272 1067.95 266.36 1063.06 269.384C1064.3 270.248 1066.51 272.36 1067.38 273.416C1072.7 269.624 1076.16 263.576 1077.74 255.656L1071.98 254.84ZM1074.82 240.152H1096.85V242.552H1074.82V240.152ZM1074.82 233.96H1096.85V236.36H1074.82V233.96ZM1069.25 229.88V246.632H1102.7V229.88H1069.25ZM1122.29 228.44C1119.79 235.352 1115.62 242.312 1111.2 246.728C1112.16 248.12 1113.74 251.288 1114.27 252.68C1119.55 247.112 1124.59 238.376 1127.71 230.12L1122.29 228.44ZM1117.87 241.688V273.272H1123.49V236.12V236.072L1117.87 241.688ZM1125.89 244.184V249.848H1156.13V244.184H1125.89ZM1138.27 228.968V273.32H1144.27V228.968H1138.27ZM1168.75 267.608L1169.14 272.312C1176.96 272.168 1188.62 271.784 1199.52 271.4L1199.71 267.08C1188.48 267.368 1176.43 267.56 1168.75 267.608ZM1190.98 255.416C1186.8 259.64 1179.94 265.016 1174.51 268.28L1178.16 270.728C1183.58 267.656 1190.5 262.616 1195.78 258.056L1190.98 255.416ZM1181.81 252.632C1180.13 254.888 1177.2 257.912 1174.9 259.784L1178.4 261.896C1180.8 260.216 1183.78 257.576 1186.46 255.08L1181.81 252.632ZM1170.82 259.928C1174.18 261.848 1178.54 264.872 1180.56 266.888L1184.45 263.144C1182.19 261.128 1177.73 258.344 1174.42 256.568L1170.82 259.928ZM1190.88 263.528C1194 266.504 1197.6 270.68 1199.23 273.416L1204.08 270.968C1202.3 268.136 1198.51 264.152 1195.39 261.368L1190.88 263.528ZM1169.9 239.48V243.416H1184.88V239.48H1169.9ZM1186.22 239.48V243.416H1202.93V239.48H1186.22ZM1175.23 236.648V253.784H1179.46V236.648H1175.23ZM1181.04 244.52V251.624H1184.21V244.52H1181.04ZM1191.55 236.648V254.12H1195.82V236.648H1191.55ZM1170.62 244.472V246.296C1170.62 248.216 1170.34 250.856 1168.56 252.488C1169.42 252.968 1170.72 253.928 1171.3 254.648C1173.41 252.296 1173.7 249.128 1173.7 246.44V244.472H1170.62ZM1186.85 244.472V246.2C1186.85 248.024 1186.56 250.568 1184.69 252.104C1185.55 252.584 1186.9 253.592 1187.47 254.312C1189.68 252.056 1190.02 248.936 1190.02 246.392V244.472H1186.85ZM1197.41 244.424V249.704C1197.41 251.816 1197.6 252.536 1198.13 253.16C1198.61 253.688 1199.52 253.928 1200.34 253.928C1200.72 253.928 1201.39 253.928 1201.82 253.928C1202.3 253.928 1202.93 253.88 1203.31 253.64C1203.84 253.4 1204.22 253.064 1204.46 252.536C1204.75 252.056 1204.85 250.76 1204.94 249.56C1204.13 249.32 1203.02 248.744 1202.4 248.264C1202.4 249.272 1202.35 250.088 1202.26 250.472C1202.16 250.808 1202.11 251 1201.97 251.096C1201.92 251.144 1201.73 251.192 1201.58 251.192C1201.39 251.192 1201.25 251.192 1201.15 251.192C1200.96 251.192 1200.86 251.096 1200.77 251C1200.77 250.856 1200.77 250.52 1200.77 249.944V244.424H1197.41ZM1180.51 228.248V234.44H1186.51V228.248H1180.51ZM1165.92 231.992V236.792H1203.89V231.992H1165.92ZM1162.61 231.992V246.584C1162.61 253.592 1162.37 263.432 1159.1 270.2C1160.26 270.776 1162.61 272.552 1163.52 273.512C1167.26 266.072 1167.89 254.264 1167.89 246.584V231.992H1162.61ZM1226.3 256.664H1232.54C1231.78 250.04 1242.29 249.176 1242.29 242.168C1242.29 235.784 1237.2 232.52 1230.24 232.52C1225.1 232.52 1220.88 234.872 1217.81 238.424L1221.74 242.024C1224.1 239.576 1226.5 238.232 1229.42 238.232C1233.22 238.232 1235.52 239.864 1235.52 242.792C1235.52 247.448 1225.3 249.128 1226.3 256.664ZM1229.47 269.48C1231.87 269.48 1233.7 267.704 1233.7 265.208C1233.7 262.712 1231.87 260.984 1229.47 260.984C1227.02 260.984 1225.2 262.712 1225.2 265.208C1225.2 267.704 1226.98 269.48 1229.47 269.48Z" fill="#424242"/>
<path d="M815.76 319.224V323.352H843.792V319.224H815.76ZM816.768 335.208V338.664H843.312V335.208H816.768ZM817.344 340.2V343.608H842.736V340.2H817.344ZM815.28 345.192V349.128H844.08V345.192H815.28ZM826.608 316.2V321.24H832.464V316.2H826.608ZM822.048 333.096V347.064H827.184V333.096H822.048ZM832.272 333.096V347.064H837.408V333.096H832.272ZM826.368 346.248C823.968 348.696 818.928 350.472 814.272 351.528C815.088 352.344 816.384 354.216 816.912 355.128C821.952 353.544 827.52 350.952 830.496 347.544L826.368 346.248ZM833.472 347.208L829.2 348.072C831.36 354.648 835.344 359.304 842.016 361.416C842.64 360.168 843.984 358.344 845.04 357.384C839.088 355.944 835.248 352.2 833.472 347.208ZM841.056 349.224C839.424 350.376 836.592 352.056 834.672 352.92L837.168 355.512C839.136 354.744 841.824 353.496 843.936 352.056L841.056 349.224ZM821.568 327.672H824.64V330.12H821.568V327.672ZM817.44 324.648V333.096H828.96V324.648H817.44ZM834.864 327.672H838.08V330.12H834.864V327.672ZM830.736 324.648V333.096H842.448V324.648H830.736ZM801.408 330.984V335.304H814.176V330.984H801.408ZM801.696 317.736V322.104H814.032V317.736H801.696ZM801.408 337.512V341.88H814.176V337.512H801.408ZM799.392 324.216V328.776H815.376V324.216H799.392ZM804.048 344.184V348.696H809.472V354.168H804.048V358.68H814.08V344.184H804.048ZM801.264 344.184V360.696H805.776V344.184H801.264ZM817.248 356.616L818.592 360.984C822.672 360.264 827.856 359.4 832.8 358.488L832.512 354.312C826.896 355.224 821.184 356.136 817.248 356.616ZM821.136 351V357.864H825.984V349.32L823.632 348.504L821.136 351ZM879.792 320.52C882.384 322.872 885.408 326.232 886.656 328.536L891.312 325.272C889.872 323.016 886.752 319.8 884.112 317.544L879.792 320.52ZM848.352 329.88V335.352H891.696V329.88H848.352ZM847.44 343.464L848.88 349.272C855.072 348.024 863.424 346.344 871.2 344.712L870.768 339.48C862.368 341.016 853.248 342.6 847.44 343.464ZM857.472 322.152V354.504C857.472 355.32 857.184 355.56 856.32 355.56C855.456 355.608 852.672 355.608 849.936 355.464C850.8 357.096 851.76 359.688 852 361.32C855.936 361.32 858.768 361.128 860.688 360.216C862.656 359.304 863.28 357.72 863.28 354.6V322.152H857.472ZM867.312 316.536C862.368 318.216 854.88 319.704 848.112 320.616C848.784 321.912 849.504 324.072 849.792 325.416C856.752 324.648 864.96 323.352 871.2 321.432L867.312 316.536ZM872.016 316.632C872.16 338.184 875.904 361.512 885.84 361.512C890.208 361.512 892.032 359.4 892.944 350.904C891.408 350.28 889.44 348.936 888.24 347.592C887.952 353.304 887.424 355.656 886.416 355.656C882.048 355.656 877.728 335.976 878.064 316.632H872.016ZM885.072 336.936C880.8 344.856 872.976 351.384 864.768 355.128C866.208 356.424 867.792 358.344 868.656 359.784C877.344 355.176 885.168 348.024 890.16 339.096L885.072 336.936ZM912.384 325.896V329.976H920.88V325.896H912.384ZM926.832 325.896V329.976H935.376V325.896H926.832ZM933.648 318.792V354.6C933.648 355.512 933.312 355.8 932.4 355.8C931.44 355.848 928.08 355.848 925.152 355.704C925.92 357.144 926.784 359.688 927.024 361.224C931.536 361.224 934.56 361.128 936.528 360.168C938.496 359.304 939.12 357.768 939.12 354.648V318.792H933.648ZM909.024 318.792V361.176H914.352V318.792H909.024ZM912.72 318.792V323.16H918.336V332.856H912.72V337.224H922.656V318.792H912.72ZM936.336 318.792H924.816V337.224H936.336V332.856H929.328V323.16H936.336V318.792ZM904.032 316.344C901.968 323.352 898.416 330.408 894.528 334.92C895.44 336.456 896.832 339.72 897.312 341.16C902.208 335.4 906.624 326.28 909.36 317.88L904.032 316.344ZM900.24 329.496V361.272H905.712V324.312L905.568 324.216L900.24 329.496ZM945.264 322.248V327.864H987.024V322.248H945.264ZM962.784 316.248V361.32H968.832V316.248H962.784ZM963.456 337.944C959.424 344.856 951.504 351.384 943.2 354.6C944.496 355.752 946.368 358.104 947.28 359.544C955.824 355.608 963.552 348.264 968.256 339.768L963.456 337.944ZM968.592 338.328L963.84 340.2C968.544 348.408 976.128 355.656 984.48 359.496C985.44 357.864 987.312 355.464 988.752 354.216C980.496 351.192 972.624 344.952 968.592 338.328ZM951.072 336.216C953.28 338.184 956.304 340.968 957.744 342.696L961.536 338.664C960 337.032 956.88 334.392 954.72 332.568L951.072 336.216ZM952.992 328.152C951.648 334.008 948.72 339.096 944.496 342.168C945.792 343.032 948 344.904 948.96 345.96C953.424 342.216 956.832 336.216 958.608 329.208L952.992 328.152ZM974.016 336.408C977.088 338.952 981.504 342.504 983.52 344.664L987.504 340.68C985.296 338.616 980.736 335.208 977.76 332.952L974.016 336.408ZM975.648 328.152C974.64 333 972.384 337.464 969.168 340.2C970.512 340.824 972.96 342.312 974.064 343.224C977.28 340.008 979.92 334.92 981.216 329.16L975.648 328.152ZM992.784 333.24V338.616H1035.26V333.24H992.784ZM1000.8 322.488V327.72H1032.29V322.488H1000.8ZM1001.28 353.832V359.16H1027.3V353.832H1001.28ZM1012.13 316.248V336.504H1018.27V316.248H1012.13ZM998.256 342.072V361.464H1004.16V347.352H1024.42V361.32H1030.61V342.072H998.256ZM1000.61 316.344C998.928 321.576 995.904 326.904 992.448 330.12C993.84 330.792 996.48 332.28 997.68 333.192C1000.94 329.496 1004.35 323.64 1006.37 317.784L1000.61 316.344ZM1065.7 344.616C1071.12 346.776 1078.42 350.472 1081.78 353.16L1084.8 347.976C1081.15 345.384 1073.76 342.024 1068.43 340.056L1065.7 344.616ZM1064.06 331.368V336.744H1084.56V331.368H1064.06ZM1073.23 333.624V361.272H1078.9V333.624H1073.23ZM1061.04 320.712V336.84C1061.04 343.08 1060.7 350.952 1056.53 356.664C1057.92 357.384 1060.13 359.448 1060.9 360.744C1066.03 354.072 1066.75 343.752 1066.75 336.984V323.496C1067.66 323.352 1068 323.112 1068.05 322.68L1061.04 320.712ZM1078.13 316.584C1074.53 318.648 1068.29 320.856 1062.62 322.2C1063.34 323.4 1064.26 325.416 1064.59 326.664C1070.78 325.32 1077.98 323.256 1083.31 320.712L1078.13 316.584ZM1041.74 330.984V335.304H1057.25V330.984H1041.74ZM1042.03 317.736V322.104H1057.34V317.736H1042.03ZM1041.74 337.512V341.88H1057.25V337.512H1041.74ZM1039.39 324.216V328.776H1059.17V324.216H1039.39ZM1044.38 344.184V348.744H1052.06V354.216H1044.38V358.776H1057.1V344.184H1044.38ZM1041.6 344.184V360.696H1046.59V344.184H1041.6ZM1107.65 316.392C1106.02 323.064 1103.09 329.688 1099.44 333.816C1100.74 334.68 1103.04 336.552 1104.05 337.56C1107.89 332.808 1111.3 325.272 1113.31 317.688L1107.65 316.392ZM1106.3 337.752C1105.2 343.08 1103.14 348.552 1100.45 351.912C1101.79 352.632 1104.24 354.12 1105.34 355.032C1108.03 351.144 1110.53 345 1111.87 338.904L1106.3 337.752ZM1108.7 324.84L1106.54 330.168H1128.38V324.84H1108.7ZM1114.22 327.192V354.84C1114.22 355.464 1113.98 355.608 1113.36 355.608C1112.69 355.608 1110.67 355.656 1108.66 355.56C1109.47 357.144 1110.34 359.688 1110.62 361.368C1113.7 361.368 1116.05 361.128 1117.73 360.216C1119.46 359.256 1119.94 357.672 1119.94 354.888V327.192H1114.22ZM1121.62 339C1123.97 343.944 1125.98 350.568 1126.51 354.888L1132.03 352.968C1131.36 348.6 1129.3 342.216 1126.8 337.272L1121.62 339ZM1126.85 324.84V325.608C1126.51 328.968 1125.98 333.24 1125.55 335.832L1130.5 336.696C1131.12 333.816 1131.98 329.352 1132.56 325.416L1128.53 324.696L1127.62 324.84H1126.85ZM1097.38 316.44C1094.93 323.304 1090.75 330.12 1086.38 334.488C1087.39 335.88 1088.93 339.048 1089.46 340.44C1094.69 334.968 1099.68 326.328 1102.8 318.12L1097.38 316.44ZM1092.72 329.688V361.272H1098.24V324.264L1098.19 324.216L1092.72 329.688Z" fill="#424242"/>
</svg>
