<svg width="1440" height="810" viewBox="0 0 1440 810" fill="none" xmlns="http://www.w3.org/2000/svg">
<path d="M675.258 430.774C676.446 432.664 677.526 435.202 677.904 436.822L681.144 435.688C680.82 434.068 679.632 431.638 678.39 429.802L675.258 430.774ZM666.24 426.67C668.184 428.128 670.506 430.288 671.532 431.854L673.692 428.992C672.612 427.534 670.29 425.536 668.346 424.186L666.24 426.67ZM672.234 420.73C671.478 422.242 670.02 424.564 668.886 426.076L671.694 427.318C672.936 426.022 674.502 424.078 676.014 422.188L672.234 420.73ZM675.906 424.672C674.07 427.264 670.776 431.098 668.184 433.42L670.668 434.662C673.26 432.556 676.608 429.1 679.254 426.184L675.906 424.672ZM681.576 436.714V451.834H685.95V436.714H681.576ZM665.808 432.988L666.186 436.498C669.858 436.228 674.124 435.85 678.606 435.418L678.552 432.124C673.692 432.502 669.156 432.772 665.808 432.988ZM688.92 430.45C690.216 432.556 691.458 435.31 691.836 437.146L695.238 436.012C694.806 434.176 693.51 431.476 692.16 429.532L688.92 430.45ZM679.092 426.4C681.198 428.02 683.682 430.45 684.762 432.07L687.192 429.37C686.058 427.804 683.52 425.536 681.414 424.024L679.092 426.4ZM685.356 420.676C684.492 422.35 682.818 424.888 681.576 426.454L684.438 427.75C685.842 426.346 687.57 424.24 689.244 422.188L685.356 420.676ZM689.19 424.726C687.246 427.426 683.736 431.368 680.982 433.69L683.52 435.04C686.328 432.826 689.838 429.316 692.646 426.292L689.19 424.726ZM680.172 432.988L680.928 436.498C684.438 436.174 688.542 435.904 692.7 435.472L692.646 432.232C687.894 432.556 683.52 432.826 680.172 432.988ZM667.428 437.578V445.84H677.256V442.276H671.424V437.578H667.428ZM689.352 437.578V442.276H685.032V445.84H693.348V437.578H689.352ZM674.664 436.714V441.79C674.664 444.652 673.908 447.406 668.292 449.08C669.21 449.89 670.56 451.564 671.1 452.59C677.958 450.214 678.984 446.164 678.984 441.952V436.714H674.664ZM660.948 411.118V415.006H674.502V411.118H660.948ZM685.788 411.118V415.006H699.504V411.118H685.788ZM697.29 404.206V445.408C697.29 446.11 697.074 446.38 696.372 446.38C695.67 446.38 693.51 446.38 691.512 446.272C692.322 447.946 693.132 450.862 693.348 452.59C696.912 452.59 699.396 452.482 701.232 451.402C703.068 450.322 703.554 448.54 703.554 445.462V404.206H697.29ZM661.542 404.206V408.58H672.558V417.49H661.542V421.864H678.66V404.206H661.542ZM700.53 404.206H682.17V421.864H700.53V417.49H688.326V408.58H700.53V404.206ZM657.708 404.206V452.86H663.864V404.206H657.708ZM709.548 410.416V416.41H733.092V410.416H709.548ZM718.296 422.188V428.074H727.152V422.188H718.296ZM718.026 402.208V412.36H724.452V402.208H718.026ZM745.242 409.444C747.348 415.546 751.668 422.89 757.122 426.886C757.986 424.726 759.174 422.08 760.362 420.298C755.232 417.22 750.804 409.498 748.212 401.938H741.84C740.004 408.58 735.738 417.004 730.5 420.784C731.526 422.35 732.876 425.05 733.47 426.94C738.87 422.944 743.19 415.384 745.242 409.444ZM714.786 414.196C714.678 428.668 714.57 440.926 708.414 448.378C710.034 449.512 712.086 451.672 713.058 453.238C720.294 444.544 720.888 430.45 721.104 414.196H714.786ZM725.1 422.188V423.376C724.884 439.576 724.56 445.084 723.75 446.326C723.318 446.974 722.886 447.136 722.184 447.136C721.32 447.136 719.862 447.136 718.08 446.974C718.998 448.594 719.646 451.078 719.754 452.806C722.022 452.914 724.182 452.86 725.532 452.644C727.098 452.32 728.178 451.834 729.204 450.268C730.608 448.324 730.878 441.952 731.148 424.78C731.202 424.024 731.202 422.188 731.202 422.188H725.1ZM738.978 426.724C742.38 429.1 746.43 432.664 748.212 435.202L752.802 430.612C750.858 428.128 746.646 424.888 743.244 422.674L738.978 426.724ZM734.334 441.52C740.706 444.436 748.644 449.296 752.316 452.914L756.582 447.19C752.694 443.626 744.486 439.144 738.276 436.498L734.334 441.52ZM763.926 405.394V411.064H813.282V405.394H763.926ZM778.452 402.154V418.786H797.784V402.154H791.898V414.088H784.122V402.154H778.452ZM771.594 416.356V438.766H777.318V416.356H771.594ZM764.682 419.974V425.428H774.618V419.974H764.682ZM763.44 432.34L764.628 437.902C767.868 436.822 771.324 435.634 774.726 434.392L773.97 429.478C769.974 430.558 766.248 431.692 763.44 432.34ZM798.972 416.41V431.476C798.972 436.552 799.944 438.172 804.588 438.172C805.398 438.172 807.288 438.172 808.206 438.172C811.662 438.172 813.066 436.39 813.606 430.396C812.094 430.018 809.772 429.154 808.692 428.236C808.53 432.394 808.314 433.096 807.504 433.096C807.18 433.096 805.938 433.096 805.614 433.096C804.912 433.096 804.804 432.934 804.804 431.422V416.41H798.972ZM809.394 418.624C807.396 420.352 804.21 422.404 801.348 423.808C801.996 424.942 802.806 426.832 803.13 428.02C806.262 426.778 810.096 425.05 813.336 423.16L809.394 418.624ZM785.364 425.914H790.71V432.394H785.364V425.914ZM780.126 421.27V437.092H796.218V421.27H780.126ZM779.37 441.52C780.018 445.03 780.45 449.566 780.45 452.374L786.822 451.402C786.768 448.702 786.12 444.22 785.364 440.818L779.37 441.52ZM790.116 441.628C791.412 445.084 792.654 449.62 793.032 452.374L799.512 451.078C799.026 448.27 797.622 443.896 796.218 440.602L790.116 441.628ZM800.97 441.304C803.508 444.922 806.532 449.89 807.72 452.914L814.146 450.16C812.742 447.082 809.502 442.33 806.964 438.928L800.97 441.304ZM769.542 439.414C768.138 443.464 765.492 447.73 762.846 450.052L768.948 452.698C771.864 449.782 774.402 445.3 775.806 440.98L769.542 439.414ZM818.79 406.744V412.36H866.256V406.744H818.79ZM850.218 431.692V432.556C845.898 441.736 833.532 446.002 819.546 447.406C820.572 448.81 821.76 451.294 822.246 452.914C837.474 450.808 850.758 445.732 856.59 433.528L852.54 431.476L851.46 431.692H850.218ZM838.068 427.912C834.774 431.692 828.942 435.688 821.166 438.604C822.516 439.468 824.406 441.466 825.324 442.816C833.586 439.198 839.742 434.716 844.548 429.37L838.068 427.912ZM836.934 431.692L832.236 436.39H852.27V431.692H836.934ZM839.202 402.1V427.912H845.412V402.1H839.202ZM839.58 415.654C835.152 422.62 826.242 428.452 816.576 431.044C817.818 432.232 819.492 434.5 820.302 435.958C830.4 432.664 839.148 425.968 844.332 417.436L839.58 415.654ZM845.142 415.708L840.336 417.652C845.736 426.022 854.754 432.988 864.528 436.444C865.392 434.932 867.174 432.61 868.47 431.422C858.858 428.614 849.732 422.566 845.142 415.708ZM827.268 412.144C825.702 416.572 822.354 420.352 818.034 422.674C819.276 423.484 821.382 425.32 822.3 426.346C826.782 423.43 830.67 418.84 832.722 413.224L827.268 412.144ZM825.972 419.272C828.024 420.622 830.778 422.566 832.074 423.808L835.476 419.704C834.072 418.516 831.264 416.734 829.212 415.6L825.972 419.272ZM853.998 412.198C852.756 415.6 850.326 418.786 847.356 420.838C848.598 421.702 850.65 423.538 851.622 424.564C854.808 421.972 857.724 417.868 859.344 413.548L853.998 412.198ZM852.756 419.056C856.266 421.162 860.91 424.402 863.178 426.4L866.58 422.296C864.204 420.352 859.452 417.382 856.05 415.438L852.756 419.056ZM831.426 441.682C840.282 444.76 852.486 449.782 858.372 453.022L864.042 448.54C857.292 445.192 844.98 440.548 836.664 437.848L831.426 441.682ZM871.494 412.9V418.894H888.99V412.9H871.494ZM878.784 402.154C877.11 412.9 874.14 427.156 871.818 435.688L877.11 438.496C879.648 428.776 882.78 414.304 884.886 402.802L878.784 402.154ZM874.68 434.824C879.81 438.172 886.02 443.302 888.774 447.028L892.608 441.844C889.746 438.172 883.32 433.42 878.19 430.234L874.68 434.824ZM886.722 412.9V414.088C885.696 431.152 880.836 443.086 871.602 447.892C872.898 449.134 874.626 451.456 875.49 453.022C886.29 446.434 891.528 434.5 892.824 413.386L888.936 412.738L887.802 412.9H886.722ZM892.554 405.016V410.848H910.212V405.016H892.554ZM910.644 419.92L909.834 425.752H917.61V419.92H910.644ZM915.45 419.92V421.054C914.91 437.848 914.154 444.436 912.858 445.894C912.264 446.542 911.724 446.65 910.806 446.65C909.672 446.65 907.188 446.65 904.596 446.434C905.622 448.108 906.378 450.7 906.486 452.482C909.294 452.644 911.994 452.644 913.722 452.374C915.612 452.104 916.908 451.564 918.258 449.836C920.094 447.622 920.742 440.656 921.444 422.566C921.498 421.81 921.552 419.92 921.552 419.92H915.45ZM897.36 407.014C897.252 422.944 897.414 438.982 889.638 448.648C891.258 449.62 893.31 451.51 894.336 452.968C902.976 442.006 903.516 424.456 903.732 407.014H897.36ZM908.592 405.016C908.322 412.306 907.512 421.702 906.594 427.588L912.48 428.02C913.29 422.08 914.1 412.576 914.532 405.016H908.592ZM931.218 410.902V416.572H941.91V441.574H931.218V447.298H947.796V410.902H931.218ZM927.438 410.902V451.294H933.324V410.902H927.438ZM930.948 425.32V430.936H944.772V425.32H930.948ZM935.106 402.1C934.836 405.07 934.08 409.228 933.324 412.036L938.508 413.17C939.588 410.632 940.938 406.798 942.18 403.126L935.106 402.1ZM954.924 410.524V416.41H970.692V410.524H954.924ZM968.478 410.524V411.766C967.884 434.284 967.182 443.572 965.454 445.408C964.752 446.164 964.158 446.38 963.078 446.38C961.728 446.38 958.488 446.326 954.978 446.056C956.166 447.784 957.03 450.538 957.138 452.32C960.27 452.482 963.564 452.536 965.616 452.212C967.83 451.888 969.342 451.294 970.854 449.188C973.068 446.326 973.716 437.74 974.418 413.44C974.472 412.63 974.472 410.524 974.472 410.524H968.478ZM955.086 402.154C953.358 409.336 950.28 416.68 946.662 421.216C948.174 422.08 950.82 423.916 952.008 424.996C955.68 419.812 959.19 411.604 961.296 403.612L955.086 402.154ZM952.44 426.076C955.032 430.072 958.434 435.364 959.892 438.658L965.4 435.31C963.726 432.124 960.162 426.94 957.516 423.214L952.44 426.076ZM987.911 425.509H991.972C993.272 425.509 994.345 425.289 995.188 424.85C996.032 424.393 996.656 423.76 997.061 422.951C997.482 422.125 997.693 421.167 997.693 420.077C997.693 419.093 997.5 418.223 997.113 417.467C996.744 416.693 996.173 416.096 995.399 415.674C994.626 415.234 993.65 415.015 992.473 415.015C991.541 415.015 990.68 415.199 989.889 415.568C989.098 415.938 988.465 416.456 987.99 417.124C987.516 417.792 987.278 418.601 987.278 419.55H979.658C979.658 417.44 980.221 415.604 981.346 414.039C982.488 412.475 984.018 411.253 985.934 410.374C987.85 409.495 989.959 409.056 992.262 409.056C994.863 409.056 997.14 409.478 999.091 410.321C1001.04 411.147 1002.56 412.369 1003.65 413.986C1004.74 415.604 1005.29 417.607 1005.29 419.998C1005.29 421.211 1005.01 422.389 1004.44 423.531C1003.88 424.656 1003.07 425.676 1002.02 426.59C1000.98 427.486 999.715 428.207 998.221 428.752C996.727 429.279 995.048 429.543 993.185 429.543H987.911V425.509ZM987.911 431.283V427.354H993.185C995.276 427.354 997.113 427.592 998.695 428.066C1000.28 428.541 1001.6 429.227 1002.68 430.123C1003.75 431.002 1004.56 432.048 1005.1 433.261C1005.65 434.456 1005.92 435.783 1005.92 437.242C1005.92 439.035 1005.58 440.635 1004.89 442.041C1004.21 443.43 1003.24 444.607 1001.99 445.574C1000.76 446.541 999.319 447.279 997.667 447.789C996.015 448.281 994.213 448.527 992.262 448.527C990.645 448.527 989.054 448.308 987.489 447.868C985.942 447.411 984.536 446.734 983.271 445.838C982.022 444.924 981.021 443.781 980.265 442.41C979.526 441.021 979.157 439.378 979.157 437.479H986.777C986.777 438.464 987.023 439.343 987.516 440.116C988.008 440.89 988.685 441.496 989.546 441.936C990.425 442.375 991.4 442.595 992.473 442.595C993.686 442.595 994.723 442.375 995.584 441.936C996.463 441.479 997.131 440.846 997.588 440.037C998.062 439.211 998.3 438.253 998.3 437.163C998.3 435.757 998.045 434.632 997.535 433.788C997.025 432.927 996.296 432.294 995.347 431.89C994.397 431.485 993.272 431.283 991.972 431.283H987.911ZM1026.81 404.908V452.806H1032.7V410.524H1053.11V452.374H1059.26V404.908H1026.81ZM1034.1 417.166V421.864H1051.87V417.166H1034.1ZM1029.83 444.004V449.674H1056.08V444.004H1029.83ZM1040.31 411.658V428.992H1045.33V411.658H1040.31ZM1040.15 431.044H1045.66V436.66H1040.15V431.044ZM1035.5 426.562V441.142H1050.57V426.562H1035.5ZM1020.11 402.316C1017.68 410.038 1013.53 417.814 1008.99 422.782C1010.02 424.456 1011.64 428.236 1012.12 429.802C1017.74 423.43 1022.92 413.44 1026.05 404.098L1020.11 402.316ZM1015.69 417.112V452.914H1021.84V411.064L1021.79 411.01L1015.69 417.112ZM1086.1 402.91V444.706C1086.1 445.786 1085.67 446.164 1084.48 446.164C1083.35 446.218 1079.3 446.272 1075.73 446.056C1076.76 447.838 1078 450.916 1078.33 452.806C1083.62 452.86 1087.34 452.644 1089.83 451.564C1092.31 450.538 1093.23 448.756 1093.23 444.76V402.91H1086.1ZM1099.12 417.112C1103.38 425.05 1107.49 435.256 1108.62 441.79L1115.69 438.982C1114.34 432.232 1109.86 422.35 1105.43 414.736L1099.12 417.112ZM1071.95 415.276C1070.82 422.35 1068.07 431.854 1063.69 437.362C1065.47 438.064 1068.44 439.576 1070.01 440.764C1074.55 434.77 1077.52 424.672 1079.35 416.518L1071.95 415.276ZM1148.31 441.304V447.352H1163.11V441.304H1148.31ZM1145.39 406.798V451.294H1151.66V412.9H1159.54V450.538H1166.13V406.798H1145.39ZM1128.55 411.874V422.188C1128.55 430.126 1127.57 440.71 1117.69 447.838C1118.99 448.756 1121.47 451.348 1122.28 452.698C1133.14 444.814 1135.08 431.476 1135.08 422.296V411.874H1128.55ZM1124.12 409.012V415.006H1142.64V409.012H1124.12ZM1118.5 423.538V429.694H1143.99V423.538H1118.5ZM1133.46 431.152L1129.52 434.824C1132.27 438.01 1137.56 444.706 1140.1 448.702L1144.48 443.248C1142.8 441.25 1135.67 433.096 1133.46 431.152ZM1123.52 402.154C1122.44 408.364 1120.39 414.574 1117.48 418.462C1118.88 419.326 1121.53 421.162 1122.66 422.188C1125.74 417.652 1128.33 410.524 1129.73 403.396L1123.52 402.154ZM1193.18 435.202V439.522H1203.39V435.202H1193.18ZM1189.89 407.5V412.36H1207.17V407.5H1189.89ZM1188.7 420.406V425.59H1222.51V420.406H1188.7ZM1192.81 428.02V432.448H1201.01V442.384H1192.81V446.866H1206.25V428.02H1192.81ZM1190.86 428.02V448.918H1195.72V428.02H1190.86ZM1195.67 402.154V409.984H1201.55V402.154H1195.67ZM1191.51 413.44C1192.27 415.762 1192.75 418.678 1192.75 420.622L1197.4 419.542C1197.34 417.598 1196.69 414.682 1195.83 412.522L1191.51 413.44ZM1213.33 407.338C1215.38 410.362 1217.27 414.52 1217.86 417.328L1223.05 415.222C1222.29 412.414 1220.29 408.418 1218.19 405.502L1213.33 407.338ZM1200.85 412.306C1200.64 414.52 1200.1 417.706 1199.66 419.812L1204.04 420.676C1204.63 418.786 1205.28 415.924 1206.09 413.17L1200.85 412.306ZM1208.14 402.262C1208.25 434.23 1208.84 452.428 1217.86 453.022C1219.86 453.076 1222.29 451.24 1223.59 443.464C1222.67 442.87 1220.51 441.196 1219.64 439.9C1219.43 443.68 1218.89 446.056 1218.13 446.002C1214.08 445.57 1213.27 428.02 1213.7 402.262H1208.14ZM1217 427.858C1213.87 437.686 1207.6 445.138 1200.8 449.242C1201.93 450.16 1203.61 451.834 1204.36 452.86C1211.49 448.432 1218.19 440.602 1221.86 430.504L1217 427.858ZM1174.23 418.732V423.592H1187.89V418.732H1174.23ZM1174.5 403.828V408.742H1187.84V403.828H1174.5ZM1174.23 426.076V430.99H1187.89V426.076H1174.23ZM1172.07 411.118V416.248H1189.13V411.118H1172.07ZM1176.98 433.582V438.658H1182.98V444.814H1176.98V449.89H1188.05V433.582H1176.98ZM1174.07 433.582V452.158H1179.04V433.582H1174.07ZM1248.7 434.122H1254.26L1255.66 415.654L1255.93 407.608H1247.02L1247.29 415.654L1248.7 434.122ZM1251.5 448.54C1254.2 448.54 1256.26 446.542 1256.26 443.734C1256.26 440.926 1254.2 438.982 1251.5 438.982C1248.75 438.982 1246.7 440.926 1246.7 443.734C1246.7 446.542 1248.7 448.54 1251.5 448.54Z" fill="#424242"/>
</svg>
