<svg width="1440" height="810" viewBox="0 0 1440 810" fill="none" xmlns="http://www.w3.org/2000/svg">
<path d="M246.628 287.552V293.376H260.876V287.552H246.628ZM243.82 254.324V297.172H249.852V260.2H257.444V296.444H263.788V254.324H243.82ZM227.596 259.212V269.144C227.596 276.788 226.66 286.98 217.144 293.844C218.392 294.728 220.784 297.224 221.564 298.524C232.016 290.932 233.888 278.088 233.888 269.248V259.212H227.596ZM223.332 256.456V262.228H241.168V256.456H223.332ZM217.924 270.444V276.372H242.468V270.444H217.924ZM232.328 277.776L228.532 281.312C231.184 284.38 236.28 290.828 238.724 294.676L242.936 289.424C241.324 287.5 234.46 279.648 232.328 277.776ZM222.76 249.852C221.72 255.832 219.744 261.812 216.936 265.556C218.288 266.388 220.836 268.156 221.928 269.144C224.892 264.776 227.388 257.912 228.74 251.048L222.76 249.852ZM289.84 281.676V285.836H299.668V281.676H289.84ZM286.668 255V259.68H303.308V255H286.668ZM285.524 267.428V272.42H318.076V267.428H285.524ZM289.476 274.76V279.024H297.38V288.592H289.476V292.908H302.424V274.76H289.476ZM287.604 274.76V294.884H292.284V274.76H287.604ZM292.232 249.852V257.392H297.9V249.852H292.232ZM288.228 260.72C288.956 262.956 289.424 265.764 289.424 267.636L293.896 266.596C293.844 264.724 293.22 261.916 292.388 259.836L288.228 260.72ZM309.236 254.844C311.212 257.756 313.032 261.76 313.604 264.464L318.596 262.436C317.868 259.732 315.944 255.884 313.916 253.076L309.236 254.844ZM297.224 259.628C297.016 261.76 296.496 264.828 296.08 266.856L300.292 267.688C300.864 265.868 301.488 263.112 302.268 260.46L297.224 259.628ZM304.244 249.956C304.348 280.74 304.92 298.264 313.604 298.836C315.528 298.888 317.868 297.12 319.116 289.632C318.232 289.06 316.152 287.448 315.32 286.2C315.112 289.84 314.592 292.128 313.864 292.076C309.964 291.66 309.184 274.76 309.6 249.956H304.244ZM312.772 274.604C309.756 284.068 303.724 291.244 297.172 295.196C298.264 296.08 299.876 297.692 300.604 298.68C307.468 294.416 313.916 286.876 317.452 277.152L312.772 274.604ZM271.588 265.816V270.496H284.744V265.816H271.588ZM271.848 251.464V256.196H284.692V251.464H271.848ZM271.588 272.888V277.62H284.744V272.888H271.588ZM269.508 258.484V263.424H285.94V258.484H269.508ZM274.24 280.116V285.004H280.012V290.932H274.24V295.82H284.9V280.116H274.24ZM271.432 280.116V298.004H276.216V280.116H271.432ZM347.828 288.287V294H322.539V289.125L334.498 276.303C335.7 274.965 336.648 273.789 337.342 272.773C338.036 271.741 338.535 270.818 338.84 270.006C339.161 269.176 339.322 268.389 339.322 267.645C339.322 266.527 339.136 265.571 338.764 264.775C338.391 263.963 337.841 263.337 337.113 262.896C336.402 262.456 335.522 262.236 334.473 262.236C333.355 262.236 332.391 262.507 331.578 263.049C330.783 263.59 330.173 264.344 329.75 265.309C329.344 266.273 329.141 267.365 329.141 268.584H321.803C321.803 266.383 322.327 264.369 323.377 262.541C324.426 260.696 325.908 259.232 327.82 258.148C329.733 257.048 332.001 256.498 334.625 256.498C337.215 256.498 339.398 256.921 341.176 257.768C342.97 258.597 344.324 259.799 345.238 261.373C346.169 262.93 346.635 264.792 346.635 266.959C346.635 268.178 346.44 269.371 346.051 270.539C345.661 271.69 345.103 272.841 344.375 273.992C343.664 275.126 342.801 276.277 341.785 277.445C340.77 278.613 339.644 279.824 338.408 281.076L331.984 288.287H347.828ZM375.859 267.22C378.563 267.22 380.799 265.14 380.799 262.332C380.799 259.472 378.563 257.392 375.859 257.392C373.103 257.392 370.867 259.472 370.867 262.332C370.867 265.14 373.103 267.22 375.859 267.22ZM375.859 292.024C378.563 292.024 380.799 289.944 380.799 287.136C380.799 284.276 378.563 282.196 375.859 282.196C373.103 282.196 370.867 284.276 370.867 287.136C370.867 289.944 373.103 292.024 375.859 292.024ZM424.531 281.052V294.416H430.667V281.052H424.531ZM413.663 260.408V264.568H441.951V260.408H413.663ZM418.499 270.652H437.011V273.356H418.499V270.652ZM412.779 266.596V277.412H443.095V266.596H412.779ZM409.243 279.336V298.628H415.119V283.86H440.495V298.524H446.631V279.336H409.243ZM412.415 286.356V290.256H443.199V286.356H412.415ZM412.415 292.96V297.432H443.147V292.96H412.415ZM424.479 249.852V256.872H430.927V249.852H424.479ZM405.603 252.816V264.256H411.531V258.068H444.031V264.256H450.219V252.816H405.603ZM469.823 260.252V265.4H489.999V260.252H469.823ZM462.283 268.468V273.928H491.351V268.468H462.283ZM466.339 291.66V297.016H493.119V291.66H466.339ZM463.011 279.804V298.784H469.147V285.16H490.727V298.784H497.175V279.804H463.011ZM479.651 254.844C484.539 259.888 493.691 265.14 501.127 267.896C502.115 266.128 503.519 263.996 504.871 262.54C496.759 260.252 488.335 255.78 482.407 249.748H476.323C472.059 254.688 463.583 260.148 454.951 263.06C456.095 264.308 457.655 266.648 458.331 268.052C466.651 264.88 475.075 259.68 479.651 254.844ZM489.323 268.468V269.144C487.971 271.848 485.319 276.424 483.031 280.012L489.063 282.092C491.507 278.4 494.159 274.084 496.239 269.924L491.403 268.208L490.311 268.468H489.323ZM528.583 267.532V292.96H532.795V267.532H528.583ZM534.667 267.532V292.596H538.879V267.532H534.667ZM525.047 277.672V281.468H531.079V277.672H525.047ZM524.839 271.64V275.54H530.923V271.64H524.839ZM524.787 283.652V287.5H530.819V283.652H524.787ZM536.071 271.64V275.54H542.051V271.64H536.071ZM536.019 277.672V281.468H541.895V277.672H536.019ZM536.227 283.652V287.5H542.207V283.652H536.227ZM522.915 264.516V269.612H556.195V264.516H522.915ZM527.595 249.904C526.971 254.844 525.567 259.42 522.811 262.384C523.955 262.904 526.087 263.944 527.023 264.62C529.675 261.292 531.391 256.248 532.171 250.528L527.595 249.904ZM535.967 249.956C535.291 255 533.679 259.472 530.611 262.384C531.755 262.956 533.679 264.152 534.563 264.88C537.579 261.552 539.555 256.456 540.491 250.58L535.967 249.956ZM542.571 249.956C542.727 280.012 543.715 298.42 551.775 298.732C553.491 298.784 555.727 297.224 557.079 290.984C556.195 290.256 554.219 288.436 553.387 286.98C553.179 289.944 552.711 291.868 552.087 291.816C548.967 291.556 547.823 273.98 548.135 249.956H542.571ZM527.075 258.38C528.531 259.16 530.299 260.304 531.131 261.188L533.471 257.704C532.587 256.872 530.819 255.832 529.311 255.208L527.075 258.38ZM535.343 258.224C537.267 259.992 539.607 262.54 540.699 264.256L543.195 260.668C542.155 259.108 539.763 256.768 537.787 255.052L535.343 258.224ZM547.511 253.804C549.175 256.508 550.943 260.2 551.619 262.592L556.351 260.46C555.571 258.12 553.751 254.584 551.931 251.984L547.511 253.804ZM522.551 290.88L523.435 295.82C528.791 295.248 535.707 294.416 542.415 293.584L542.259 289.06C535.031 289.788 527.595 290.516 522.551 290.88ZM513.763 249.904C512.827 253.492 511.059 258.432 509.447 261.552L513.503 263.112C515.167 260.2 517.195 255.572 519.015 251.568L513.763 249.904ZM519.171 256.196C516.831 261.76 512.619 269.352 509.239 274.032L512.671 275.852C516.259 271.38 520.679 264.152 524.007 258.276L519.171 256.196ZM507.263 261.812C509.759 264.412 512.671 268.104 513.815 270.652L516.623 265.608C515.479 263.268 512.411 259.888 509.811 257.392L507.263 261.812ZM517.403 268.364C519.171 272.004 520.783 276.736 521.199 279.7L525.619 277.88C525.151 274.864 523.383 270.34 521.511 266.804L517.403 268.364ZM506.951 272.68L507.471 278.088C511.943 277.724 517.507 277.256 522.967 276.684L523.019 271.848C516.987 272.212 511.059 272.524 506.951 272.68ZM518.963 281.572C519.899 284.432 520.887 288.124 521.251 290.62L525.515 289.164C525.099 286.772 524.111 283.08 523.123 280.324L518.963 281.572ZM508.875 280.428C508.615 284.796 508.095 289.476 506.795 292.544C507.939 293.012 510.071 293.948 511.007 294.572C512.307 291.244 513.191 286.096 513.555 281.208L508.875 280.428ZM513.815 275.436V298.68H518.911V275.436H513.815ZM550.943 272.784C548.707 281.78 543.767 289.996 536.695 294.936C537.891 295.768 539.711 297.744 540.491 298.836C548.187 293.168 553.127 284.38 555.883 274.032L550.943 272.784ZM588.175 260.096H585.731L582.403 263.58V298.68H588.175V265.608H607.675V260.096H588.175ZM585.523 270.236V275.644H606.115V270.236H585.523ZM585.471 280.376V285.784H606.323V280.376H585.471ZM584.379 290.776V296.288H608.403V290.776H584.379ZM593.895 263.216V292.648H599.459V263.216H593.895ZM585.835 249.748C584.067 255.624 580.271 263.268 576.007 267.896C577.151 268.936 578.971 270.964 579.959 272.212C584.847 266.804 589.059 258.588 591.763 251.412L585.835 249.748ZM597.535 250.528C596.651 253.908 594.831 258.536 593.271 261.552L598.367 263.008C600.083 260.2 602.163 255.988 604.035 251.932L597.535 250.528ZM567.167 249.904C565.971 253.492 563.735 258.536 561.915 261.656L566.075 263.372C568.051 260.46 570.443 255.832 572.575 251.776L567.167 249.904ZM573.043 256.04C570.287 261.604 565.555 269.196 561.655 273.876L565.243 275.904C569.247 271.432 574.291 264.204 578.087 258.38L573.043 256.04ZM559.107 262.02C561.707 264.672 564.775 268.364 565.919 270.912L569.299 266.128C568.051 263.684 564.879 260.304 562.175 257.86L559.107 262.02ZM571.275 268.52C573.199 272.108 575.019 276.892 575.591 279.908L580.271 277.776C579.647 274.812 577.671 270.236 575.591 266.7L571.275 268.52ZM558.951 272.68L559.627 278.036C564.463 277.672 570.807 277.204 576.891 276.736L576.839 271.64C570.339 272.056 563.631 272.42 558.951 272.68ZM572.835 281.572C574.083 284.692 575.123 288.852 575.383 291.556L580.063 289.996C579.751 287.344 578.659 283.288 577.307 280.22L572.835 281.572ZM561.187 280.428C560.771 284.796 559.991 289.476 558.535 292.544C559.731 293.064 562.019 294.052 563.059 294.728C564.567 291.4 565.659 286.252 566.179 281.26L561.187 280.428ZM566.907 275.436V298.68H572.263V275.436H566.907Z" fill="#424242"/>
<path d="M401.744 365.532V371.044H419.684V365.532H401.744ZM409.96 373.956V390.388C409.96 390.96 409.804 391.168 409.076 391.22C408.296 391.22 405.852 391.22 403.72 391.116C404.5 392.676 405.384 395.068 405.644 396.784C409.128 396.784 411.728 396.732 413.652 395.848C415.628 394.964 416.148 393.404 416.148 390.544V373.956H409.96ZM399.456 378.428L400.028 384.408C406.996 383.836 416.824 383.056 425.924 382.224V376.556C416.46 377.284 406.268 378.012 399.456 378.428ZM418.02 365.532V366.728C416.512 368.964 413.392 372.604 410.74 374.684C411.572 375.412 413.132 377.024 413.808 378.012C417.604 375.516 421.712 371.668 424.832 368.496L420.984 365.22L419.632 365.532H418.02ZM422.128 348.008C416.408 349.516 407.464 350.608 399.56 351.128C400.236 352.532 400.964 354.768 401.172 356.224C409.232 355.86 418.8 354.924 425.82 353.156L422.128 348.008ZM427.9 348.944V387.06C427.9 394.184 429.512 396.368 435.128 396.368C436.22 396.368 440.172 396.368 441.264 396.368C446.672 396.368 448.18 392.676 448.7 383.108C447.036 382.64 444.384 381.392 442.876 380.196C442.616 388.308 442.356 390.44 440.692 390.44C439.86 390.44 436.896 390.44 436.22 390.44C434.608 390.44 434.4 389.972 434.4 387.112V348.944H427.9ZM400.028 357.992C401.016 360.28 402.004 363.4 402.264 365.428L407.204 364.024C406.788 361.996 405.8 359.032 404.708 356.744L400.028 357.992ZM408.816 356.64C409.44 359.032 409.96 362.152 409.96 364.128L415.212 363.244C415.108 361.268 414.536 358.252 413.808 355.964L408.816 356.64ZM420.88 355.132C419.84 358.044 417.916 361.996 416.304 364.44L420.984 366.364C422.7 364.076 424.78 360.54 426.6 357.264L420.88 355.132ZM483.488 357.888V376.244H488.844V357.888H483.488ZM482.344 347.852V355.392H488.636V347.852H482.344ZM475.324 367.404V371.824H500.44V367.404H475.324ZM480.316 390.232V394.964H495.344V390.232H480.316ZM473.972 352.792V357.784H500.024V352.792H473.972ZM471.164 352.792V370.056C471.164 377.232 470.8 386.696 466.38 393.196C467.576 393.82 469.864 395.64 470.8 396.628C475.74 389.452 476.52 378.012 476.52 370.056V352.792H471.164ZM477.976 360.748V365.064H492.588V374.164H477.768V378.48H497.788V360.748H477.976ZM477.82 380.872V396.628H483.384V385.604H492.38V396.472H498.152V380.872H477.82ZM458.216 347.8V396.628H463.78V347.8H458.216ZM451.768 365.584V371.356H469.76V365.584H451.768ZM458.268 368.028C457.02 373.644 454.16 380.612 451.04 384.512C451.976 386.176 453.38 388.828 453.9 390.648C457.696 385.916 460.608 376.816 462.116 369.38L458.268 368.028ZM463.104 371.824L460.14 374.736C461.96 377.076 465.548 382.432 467.056 385.292L470.592 380.248C469.552 378.896 464.508 373.124 463.104 371.824ZM451.456 352.22C452.548 356.016 453.328 360.904 453.328 364.128L457.748 363.088C457.644 359.916 456.812 355.028 455.616 351.232L451.456 352.22ZM466.276 350.712C465.756 354.3 464.56 359.396 463.468 362.568L467.264 363.608C468.512 360.696 469.968 355.86 471.268 351.804L466.276 350.712ZM505.328 351.336V357.732H550.672V351.336H505.328ZM530.444 368.756C536.216 373.176 543.912 379.572 547.344 383.68L552.648 378.896C548.852 374.736 540.844 368.756 535.28 364.7L530.444 368.756ZM528.364 353.676C524.048 362.932 514.844 373.02 503.716 378.272C505.016 379.676 506.992 382.276 507.98 383.94C519.94 377.7 529.404 367.092 535.332 356.12L528.364 353.676ZM524.568 366.26V396.576H531.432V359.448L524.568 366.26ZM584.108 358.772V364.596H604.388V358.772H584.108ZM556.028 350.244V356.224H583.484V350.244H556.028ZM595.08 348.112V389.712C595.08 390.544 594.82 390.804 593.988 390.804C593.208 390.804 590.816 390.804 588.424 390.752C589.256 392.312 590.192 394.964 590.452 396.576C594.248 396.576 596.848 396.316 598.668 395.38C600.384 394.392 601.06 392.78 601.06 389.764V348.112H595.08ZM584.264 370.42C586.136 374.164 587.8 379.052 588.164 382.12L593.572 380.196C593.104 377.024 591.284 372.344 589.308 368.704L584.264 370.42ZM557.224 361.008V396.42H562.268V366.364H579.532V361.008H557.224ZM577.92 361.008V391.012C577.92 391.48 577.764 391.636 577.348 391.636C576.932 391.636 575.736 391.636 574.592 391.584C575.216 392.936 575.84 395.068 576.048 396.472C578.336 396.472 580 396.316 581.352 395.536C582.704 394.704 582.964 393.3 582.964 391.116V361.008H577.92ZM564.972 364.076V392.156H568.976V364.076H564.972ZM571.368 364.076V392.156H575.372V364.076H571.368ZM566.688 352.272C566.168 355.548 565.024 360.072 563.88 363.088L569.132 363.764C570.432 360.956 571.992 356.692 573.24 352.688L566.688 352.272ZM624.252 363.14V368.392H654.724V363.14H624.252ZM639.8 375.516V380.716H654.048V375.516H639.8ZM620.56 390.076V395.484H656.44V390.076H620.56ZM636.888 365.376V393.196H642.868V365.376H636.888ZM625.916 373.696V392.936H631.584V373.696H625.916ZM619.104 353.624V359.188H656.388V353.624H619.104ZM615.724 353.624V369.172C615.724 376.504 615.152 386.02 608.756 392.52C610.004 393.248 612.396 395.536 613.228 396.68C620.508 389.556 621.652 377.544 621.652 369.224V353.624H615.724ZM631.168 347.852V357.108H637.772V347.852H631.168ZM607.716 360.124C609.276 363.296 610.784 367.456 611.252 370.056L616.036 367.508C615.568 364.908 613.904 360.904 612.188 357.888L607.716 360.124ZM607.248 377.908L609.068 383.784C612.084 382.068 615.308 380.144 618.324 378.22L616.868 373.332C613.28 375.152 609.744 376.868 607.248 377.908ZM665.436 356.276V361.736H675.732V385.812H665.436V391.324H681.4V356.276H665.436ZM661.796 356.276V395.172H667.464V356.276H661.796ZM665.176 370.16V375.568H678.488V370.16H665.176ZM669.18 347.8C668.92 350.66 668.192 354.664 667.464 357.368L672.456 358.46C673.496 356.016 674.796 352.324 675.992 348.788L669.18 347.8ZM688.264 355.912V361.58H703.448V355.912H688.264ZM701.316 355.912V357.108C700.744 378.792 700.068 387.736 698.404 389.504C697.728 390.232 697.156 390.44 696.116 390.44C694.816 390.44 691.696 390.388 688.316 390.128C689.46 391.792 690.292 394.444 690.396 396.16C693.412 396.316 696.584 396.368 698.56 396.056C700.692 395.744 702.148 395.172 703.604 393.144C705.736 390.388 706.36 382.12 707.036 358.72C707.088 357.94 707.088 355.912 707.088 355.912H701.316ZM688.42 347.852C686.756 354.768 683.792 361.84 680.308 366.208C681.764 367.04 684.312 368.808 685.456 369.848C688.992 364.856 692.372 356.952 694.4 349.256L688.42 347.852ZM685.872 370.888C688.368 374.736 691.644 379.832 693.048 383.004L698.352 379.78C696.74 376.712 693.308 371.72 690.76 368.132L685.872 370.888ZM742.188 375.88V393.196H747.752V375.88H742.188ZM739.432 362.152H751.08V365.844H739.432V362.152ZM733.92 357.42V370.576H756.852V357.42H733.92ZM731.268 372.864V396.628H737.04V377.856H753.108V396.576H759.088V372.864H731.268ZM734.596 381.34V385.968H756.228V381.34H734.596ZM734.648 389.556V394.548H756.28V389.556H734.648ZM731.008 350.036V355.288H759.296V350.036H731.008ZM712.548 357.472V363.088H728.096V357.472H712.548ZM718.788 347.904V360.124H724.872V347.904H718.788ZM725.444 369.64L721.96 372.604C723.728 374.476 727.264 378.376 728.876 380.612L732.516 375.62C731.424 374.58 726.9 370.576 725.444 369.64ZM725.808 357.472V358.616C723.26 366.208 717.072 373.852 710.572 377.752C711.508 378.896 713.016 382.016 713.536 383.68C720.712 378.74 727.94 369.536 731.528 359.448L728.096 357.264L727.056 357.472H725.808ZM718.788 375.256V396.68H724.872V367.924L718.788 375.256ZM767.512 352.064V357.576H809.008V352.064H767.512ZM764.6 363.972V369.536H811.4V363.972H764.6ZM775.104 381.392V386.072H801.052V381.392H775.104ZM775.104 389.816V394.964H801.052V389.816H775.104ZM784.568 347.852V355.34H791.12V347.852H784.568ZM771.984 372.656V396.68H778.224V377.804H798.348V396.628H804.952V372.656H771.984ZM796.008 356.536C795.488 358.668 794.396 361.632 793.46 363.66L799.44 365.064C800.428 363.296 801.676 360.696 802.976 358.044L796.008 356.536ZM774.116 357.992C775.26 360.124 776.3 363.14 776.56 365.116L783.06 363.608C782.696 361.736 781.604 358.876 780.252 356.796L774.116 357.992Z" fill="#424242"/>
</svg>
