<svg width="1440" height="810" viewBox="0 0 1440 810" fill="none" xmlns="http://www.w3.org/2000/svg">
<path d="M347.1 388.38H372.6V390.9H347.1V388.38ZM347.1 381.6H372.6V384.06H347.1V381.6ZM340.2 376.98V395.52H379.8V376.98H340.2ZM333.12 397.68V403.44H386.76V397.68H333.12ZM360.6 405.66V411.18H380.22V405.66H360.6ZM342.3 405.84V410.82H355.98V405.84H342.3ZM342.3 413.34V418.32H355.98V413.34H342.3ZM367.98 410.64L362.22 412.26C366.3 421.62 373.44 428.34 383.82 431.34C384.72 429.66 386.58 427.02 388.08 425.76C378.42 423.48 371.34 417.96 367.98 410.64ZM378.12 405.66V406.68C375.48 415.92 367.74 422.82 358.44 425.76C359.76 427.08 361.56 429.66 362.34 431.34C373.02 427.32 381.48 419.64 385.02 407.1L380.58 405.42L379.38 405.66H378.12ZM332.58 422.1L333.06 428.28C339.36 427.74 347.76 426.96 355.8 426.18V420.36C347.4 421.08 338.58 421.74 332.58 422.1ZM352.26 399.54V431.4H359.16V399.54H352.26ZM337.8 399.72V424.2H344.4V399.72H337.8ZM418.02 391.86V398.52H447.48V391.86H418.02ZM430.26 394.8V421.02H437.4V394.8H430.26ZM414.12 378.72V392.46C414.12 399.48 413.46 408.54 407.28 415.08C408.96 415.98 411.6 418.5 412.5 420.06C420 412.38 421.14 400.5 421.14 392.64V381.42C422.22 381.18 422.7 380.88 422.76 380.28L414.12 378.72ZM439.38 375.18C434.04 377.28 425.1 379.2 417 380.34C417.84 381.84 418.86 384.48 419.16 386.1C427.8 385.08 437.82 383.28 445.32 380.64L439.38 375.18ZM406.62 398.46H392.58V405.12H399.6V420.54H406.62V398.46ZM406.62 417.42H400.02C397.26 419.58 394.02 421.68 391.32 423.36L394.86 430.86C398.1 428.22 400.8 425.94 403.44 423.6C407.34 428.28 412.32 430.02 419.7 430.32C426.9 430.62 439.02 430.5 446.28 430.14C446.58 427.98 447.78 424.5 448.56 422.82C440.46 423.48 426.84 423.66 419.82 423.36C413.58 423.12 409.02 421.38 406.62 417.42ZM392.7 380.76C396.24 383.46 400.56 387.48 402.36 390.3L408.12 385.56C406.02 382.74 401.64 378.96 398.04 376.44L392.7 380.76ZM479.76 381.9C484.86 389.04 494.94 397.38 504.18 402.48C505.5 400.26 507.12 397.86 508.92 396C499.38 391.92 489.6 384.06 483.18 374.82H475.68C471.24 382.26 461.52 391.5 451.2 396.72C452.76 398.22 454.8 400.86 455.76 402.54C465.6 397.08 474.78 388.98 479.76 381.9ZM459.36 410.04V416.28H500.4V410.04H459.36ZM462.42 396.78V403.08H497.64V396.78H462.42ZM454.56 423.54V429.96H505.8V423.54H454.56ZM475.98 399.6V427.14H483.6V399.6H475.98ZM512.28 379.62V386.28H532.5V379.62H512.28ZM531.84 385.14V391.74H568.32V385.14H531.84ZM512.76 396.36V403.02H531.84V396.36H512.76ZM511.14 417.3L513 424.08C518.88 422.28 526.38 419.88 533.4 417.48L532.44 411.42C524.7 413.64 516.48 415.98 511.14 417.3ZM546.06 375V423.24C546.06 424.2 545.7 424.5 544.8 424.5C543.84 424.5 541.02 424.56 538.08 424.44C539.1 426.3 540.3 429.42 540.54 431.34C545.04 431.34 548.1 431.1 550.2 429.9C552.3 428.7 553.02 426.78 553.02 423.24V375H546.06ZM527.88 418.68L531.54 425.1C535.74 422.46 540.84 419.04 545.34 415.8L543.18 409.86C537.6 413.22 531.72 416.76 527.88 418.68ZM532.38 396.9C534.66 400.26 537.06 404.82 537.96 407.7L543.84 404.94C542.88 402 540.24 397.62 537.96 394.44L532.38 396.9ZM561.84 393.78C560.16 397.2 557.22 401.76 554.94 404.58L560.04 407.46C562.44 404.82 565.44 400.8 568.14 397.08L561.84 393.78ZM555.24 379.02C558 380.94 561.42 383.76 563.04 385.74L567.18 381.6C565.5 379.68 561.96 376.98 559.14 375.3L555.24 379.02ZM519 382.38V418.38L525.96 417.3V382.38H519ZM552.78 392.46L546.84 393.54C549.48 408.84 553.74 418.38 564.9 426.84C565.74 424.92 567.66 422.64 569.34 421.32C559.2 414.42 555.12 406.26 552.78 392.46ZM603.72 375.12C600.66 377.16 595.68 379.5 591.18 381.06C591.96 382.38 592.92 384.54 593.28 385.92C598.2 384.48 604.08 382.38 608.76 380.1L603.72 375.12ZM590.46 378.84V398.7C590.46 407.1 590.1 418.32 585.9 426.6C587.4 427.32 589.86 429.42 590.76 430.8C595.86 421.38 596.58 407.7 596.58 398.76V381.96C597.6 381.78 597.96 381.54 598.02 381L590.46 378.84ZM593.76 393.18V399.72H607.8V393.18H593.76ZM599.46 397.02V431.22H605.34V397.02H599.46ZM611.82 375.06C610.92 384.6 609.12 393.9 605.52 399.78C606.9 400.74 609.24 402.78 610.14 403.86C614.22 397.08 616.5 386.64 617.7 375.9L611.82 375.06ZM617.04 390.84H613.92V402.06C613.92 406.98 612.84 419.16 604.92 426.06C606 427.26 607.62 429.96 608.28 431.4C613.98 426.42 616.5 417.42 617.04 412.8C617.52 417.18 619.8 426.66 625.14 431.4C626.04 429.84 627.78 427.26 628.86 425.88C621.24 419.1 620.1 406.98 620.1 402.12V390.84H617.04ZM612 386.58V392.88H624.6V386.58H612ZM622.98 386.58V387.54C622.74 392.46 622.14 398.64 621.36 402.54L625.92 404.04C627.12 399.72 628.08 393.06 628.62 387.3L624.78 386.34L623.82 386.58H622.98ZM571.14 405L572.7 411.9C577.86 410.46 584.28 408.54 590.22 406.74L589.32 400.26C582.66 402.12 575.82 403.92 571.14 405ZM572.16 386.46V393.06H589.38V386.46H572.16ZM578.34 375.06V423.96C578.34 424.74 578.04 424.98 577.32 424.98C576.6 424.98 574.5 424.98 572.34 424.92C573.18 426.78 573.96 429.66 574.2 431.46C577.98 431.46 580.62 431.22 582.36 430.14C584.22 429 584.76 427.2 584.76 423.96V375.06H578.34ZM634.14 381V387.3H658.74V381H634.14ZM665.28 392.88V399.12H681.72V392.88H665.28ZM632.46 392.82V399.18H660.24V392.82H632.46ZM648.12 405.66V411.9H659.7V405.66H648.12ZM643.08 375.24V396.24H649.86V375.24H643.08ZM644.58 396.9V423.6H651.18V396.9H644.58ZM661.98 377.34V383.7H677.82V400.62H684.78V377.34H661.98ZM662.52 392.88V411.48C662.52 418.38 664.56 420.3 671.22 420.3C672.6 420.3 678.24 420.3 679.74 420.3C685.56 420.3 687.42 417.84 688.2 408.78C686.34 408.36 683.34 407.22 681.9 406.08C681.66 412.8 681.3 413.88 679.14 413.88C677.76 413.88 673.26 413.88 672.18 413.88C669.84 413.88 669.42 413.58 669.42 411.42V392.88H662.52ZM640.14 408.54L634.98 410.04C639.12 426.9 646.92 429.9 662.76 429.9H686.04C686.52 427.74 687.72 424.38 688.86 422.76C683.4 423.06 667.38 423.06 662.76 423C650.1 423 643.32 421.14 640.14 408.54ZM634.56 402.66C634.44 413.04 633.84 423.06 630.84 429.12C632.46 429.78 635.64 431.34 636.9 432.18C639.96 425.28 640.86 414.6 641.16 403.14L634.56 402.66ZM692.28 398.7V406.56H747.84V398.7H692.28ZM781.86 376.86V383.52H796.74V376.86H781.86ZM776.46 400.44V407.04H800.34V400.44H776.46ZM779.04 376.86V383.64C779.04 387.54 778.5 392.04 773.22 395.46C774.66 396.36 777.6 398.82 778.62 400.08C784.74 395.94 785.94 389.34 785.94 383.82V376.86H779.04ZM792.96 376.86V390.36C792.96 396.36 794.4 398.16 799.14 398.16C800.04 398.16 801.54 398.16 802.56 398.16C806.52 398.16 808.14 396.06 808.74 388.2C806.94 387.84 804.12 386.7 802.86 385.68C802.68 391.26 802.5 392.1 801.78 392.1C801.54 392.1 800.7 392.1 800.4 392.1C799.8 392.1 799.74 391.92 799.74 390.3V376.86H792.96ZM784.62 406.8L778.02 409.02C783.42 419.76 792.12 427.74 803.94 431.58C805.02 429.72 807.18 426.78 808.86 425.28C797.64 422.28 788.82 415.44 784.62 406.8ZM797.94 400.44V401.58C794.88 413.46 785.4 421.86 773.52 425.22C774.9 426.72 776.76 429.6 777.54 431.46C790.86 426.78 801.06 417.66 805.2 402L800.58 400.2L799.32 400.44H797.94ZM758.22 377.16V383.82H771.42V377.16H758.22ZM758.22 390.6V397.26H771.66V390.6H758.22ZM758.16 404.28V411.06H771.48V404.28H758.16ZM755.4 377.16V399C755.4 407.82 755.16 419.94 751.38 428.22C753 428.82 755.94 430.44 757.2 431.52C761.28 422.58 761.88 408.66 761.88 399V377.16H755.4ZM767.46 377.16V423.48C767.46 424.26 767.16 424.5 766.5 424.5C765.72 424.56 763.5 424.56 761.34 424.5C762.24 426.3 763.14 429.54 763.32 431.4C767.16 431.4 769.8 431.28 771.66 430.08C773.64 428.88 774.12 426.84 774.12 423.6V377.16H767.46ZM812.7 378.66V384.96H867.54V378.66H812.7ZM828.84 375.06V393.54H850.32V375.06H843.78V388.32H835.14V375.06H828.84ZM821.22 390.84V415.74H827.58V390.84H821.22ZM813.54 394.86V400.92H824.58V394.86H813.54ZM812.16 408.6L813.48 414.78C817.08 413.58 820.92 412.26 824.7 410.88L823.86 405.42C819.42 406.62 815.28 407.88 812.16 408.6ZM851.64 390.9V407.64C851.64 413.28 852.72 415.08 857.88 415.08C858.78 415.08 860.88 415.08 861.9 415.08C865.74 415.08 867.3 413.1 867.9 406.44C866.22 406.02 863.64 405.06 862.44 404.04C862.26 408.66 862.02 409.44 861.12 409.44C860.76 409.44 859.38 409.44 859.02 409.44C858.24 409.44 858.12 409.26 858.12 407.58V390.9H851.64ZM863.22 393.36C861 395.28 857.46 397.56 854.28 399.12C855 400.38 855.9 402.48 856.26 403.8C859.74 402.42 864 400.5 867.6 398.4L863.22 393.36ZM836.52 401.46H842.46V408.66H836.52V401.46ZM830.7 396.3V413.88H848.58V396.3H830.7ZM829.86 418.8C830.58 422.7 831.06 427.74 831.06 430.86L838.14 429.78C838.08 426.78 837.36 421.8 836.52 418.02L829.86 418.8ZM841.8 418.92C843.24 422.76 844.62 427.8 845.04 430.86L852.24 429.42C851.7 426.3 850.14 421.44 848.58 417.78L841.8 418.92ZM853.86 418.56C856.68 422.58 860.04 428.1 861.36 431.46L868.5 428.4C866.94 424.98 863.34 419.7 860.52 415.92L853.86 418.56ZM818.94 416.46C817.38 420.96 814.44 425.7 811.5 428.28L818.28 431.22C821.52 427.98 824.34 423 825.9 418.2L818.94 416.46ZM873.66 380.16V386.4H926.4V380.16H873.66ZM908.58 407.88V408.84C903.78 419.04 890.04 423.78 874.5 425.34C875.64 426.9 876.96 429.66 877.5 431.46C894.42 429.12 909.18 423.48 915.66 409.92L911.16 407.64L909.96 407.88H908.58ZM895.08 403.68C891.42 407.88 884.94 412.32 876.3 415.56C877.8 416.52 879.9 418.74 880.92 420.24C890.1 416.22 896.94 411.24 902.28 405.3L895.08 403.68ZM893.82 407.88L888.6 413.1H910.86V407.88H893.82ZM896.34 375V403.68H903.24V375H896.34ZM896.76 390.06C891.84 397.8 881.94 404.28 871.2 407.16C872.58 408.48 874.44 411 875.34 412.62C886.56 408.96 896.28 401.52 902.04 392.04L896.76 390.06ZM902.94 390.12L897.6 392.28C903.6 401.58 913.62 409.32 924.48 413.16C925.44 411.48 927.42 408.9 928.86 407.58C918.18 404.46 908.04 397.74 902.94 390.12ZM883.08 386.16C881.34 391.08 877.62 395.28 872.82 397.86C874.2 398.76 876.54 400.8 877.56 401.94C882.54 398.7 886.86 393.6 889.14 387.36L883.08 386.16ZM881.64 394.08C883.92 395.58 886.98 397.74 888.42 399.12L892.2 394.56C890.64 393.24 887.52 391.26 885.24 390L881.64 394.08ZM912.78 386.22C911.4 390 908.7 393.54 905.4 395.82C906.78 396.78 909.06 398.82 910.14 399.96C913.68 397.08 916.92 392.52 918.72 387.72L912.78 386.22ZM911.4 393.84C915.3 396.18 920.46 399.78 922.98 402L926.76 397.44C924.12 395.28 918.84 391.98 915.06 389.82L911.4 393.84ZM887.7 418.98C897.54 422.4 911.1 427.98 917.64 431.58L923.94 426.6C916.44 422.88 902.76 417.72 893.52 414.72L887.7 418.98ZM932.22 387V393.66H951.66V387H932.22ZM940.32 375.06C938.46 387 935.16 402.84 932.58 412.32L938.46 415.44C941.28 404.64 944.76 388.56 947.1 375.78L940.32 375.06ZM935.76 411.36C941.46 415.08 948.36 420.78 951.42 424.92L955.68 419.16C952.5 415.08 945.36 409.8 939.66 406.26L935.76 411.36ZM949.14 387V388.32C948 407.28 942.6 420.54 932.34 425.88C933.78 427.26 935.7 429.84 936.66 431.58C948.66 424.26 954.48 411 955.92 387.54L951.6 386.82L950.34 387H949.14ZM955.62 378.24V384.72H975.24V378.24H955.62ZM975.72 394.8L974.82 401.28H983.46V394.8H975.72ZM981.06 394.8V396.06C980.46 414.72 979.62 422.04 978.18 423.66C977.52 424.38 976.92 424.5 975.9 424.5C974.64 424.5 971.88 424.5 969 424.26C970.14 426.12 970.98 429 971.1 430.98C974.22 431.16 977.22 431.16 979.14 430.86C981.24 430.56 982.68 429.96 984.18 428.04C986.22 425.58 986.94 417.84 987.72 397.74C987.78 396.9 987.84 394.8 987.84 394.8H981.06ZM960.96 380.46C960.84 398.16 961.02 415.98 952.38 426.72C954.18 427.8 956.46 429.9 957.6 431.52C967.2 419.34 967.8 399.84 968.04 380.46H960.96ZM973.44 378.24C973.14 386.34 972.24 396.78 971.22 403.32L977.76 403.8C978.66 397.2 979.56 386.64 980.04 378.24H973.44ZM1001.52 377.46V384.18H1037.4V377.46H1001.52ZM998.04 377.46V398.46C998.04 407.52 997.5 419.58 991.38 427.68C993 428.46 996.06 430.38 997.26 431.58C1003.92 422.76 1004.88 408.48 1004.88 398.46V377.46H998.04ZM1034.46 377.46C1034.52 406.02 1033.86 431.46 1043.34 431.46C1047.12 431.46 1048.5 428.1 1049.16 420.78C1047.9 419.52 1046.28 417.12 1045.08 415.14C1045.02 419.94 1044.6 423.66 1044.12 423.66C1041.24 423.66 1041.24 401.16 1041.54 377.46H1034.46ZM1016.22 391.56V423.06H1022.46V391.56H1016.22ZM1012.44 402H1026.42V408.6H1012.44V402ZM1006.92 396.54V414.06H1032.24V396.54H1006.92ZM1028.94 385.08C1023.3 386.64 1013.82 387.6 1005.48 388.08C1006.2 389.52 1007.04 391.92 1007.22 393.42C1015.92 393.12 1026.24 392.16 1033.68 390.24L1028.94 385.08ZM1004.22 420.96L1004.7 427.38C1011.9 426.84 1021.86 426.06 1031.34 425.22V419.34C1021.44 420 1011.06 420.66 1004.22 420.96ZM1024.98 415.86C1027.32 420.18 1029.54 425.88 1030.2 429.48L1036.08 427.56C1035.3 423.84 1032.9 418.32 1030.44 414.18L1024.98 415.86ZM1072.86 403.32H1080.6V406.5H1072.86V403.32ZM1072.86 395.7H1080.6V398.76H1072.86V395.7ZM1067.16 390.9V411.3H1086.54V390.9H1067.16ZM1100.16 377.16V423.24C1100.16 424.08 1099.92 424.32 1099.26 424.32C1098.54 424.32 1096.32 424.32 1094.28 424.2C1095.12 426 1095.9 429.24 1096.08 431.1C1099.86 431.1 1102.32 430.86 1104.24 429.72C1106.1 428.58 1106.52 426.54 1106.52 423.36V377.16H1100.16ZM1089.06 377.16V401.7C1089.06 410.04 1088.7 420.66 1083.96 427.74C1085.4 428.46 1088.1 430.5 1089.18 431.58C1094.52 423.78 1095.36 410.94 1095.36 401.7V377.16H1089.06ZM1091.94 377.16V383.58H1103.22V377.16H1091.94ZM1091.94 390.84V397.26H1103.04V390.84H1091.94ZM1066.44 381.24V387.42H1087.26V381.24H1066.44ZM1065.48 414.96V421.32H1087.44V414.96H1065.48ZM1091.94 404.76V411.18H1103.04V404.76H1091.94ZM1073.7 375.3V393.06H1080.24V375.3H1073.7ZM1073.7 410.46V431.4H1080.24V410.46H1073.7ZM1053.12 379.92C1056.12 382.2 1059.9 385.62 1061.52 387.9L1066.5 383.16C1064.7 380.94 1060.8 377.82 1057.8 375.72L1053.12 379.92ZM1051.2 395.7C1054.38 397.8 1058.58 400.92 1060.5 402.96L1065 397.86C1062.9 395.76 1058.58 392.94 1055.4 391.08L1051.2 395.7ZM1052.4 427.5L1058.76 430.92C1061.04 424.68 1063.44 417.24 1065.3 410.4L1059.66 406.86C1057.5 414.36 1054.56 422.46 1052.4 427.5Z" fill="#424242"/>
<path d="M281.323 254.706L256.958 259.84C256.825 259.869 256.7 259.929 256.595 260.016C256.49 260.103 256.407 260.215 256.354 260.341C256.3 260.467 256.278 260.604 256.289 260.74C256.299 260.877 256.343 261.009 256.415 261.125L264.412 273.994C264.509 274.152 264.553 274.337 264.535 274.523C264.518 274.708 264.441 274.882 264.316 275.019C264.19 275.156 264.024 275.248 263.842 275.282C263.659 275.315 263.471 275.287 263.306 275.203L249.936 268.258C249.814 268.19 249.676 268.153 249.535 268.152C249.395 268.151 249.256 268.184 249.132 268.25C249.008 268.316 248.902 268.413 248.824 268.53C248.747 268.647 248.699 268.782 248.687 268.923L245.794 297.236C245.775 297.439 245.683 297.628 245.535 297.768C245.388 297.908 245.196 297.99 244.993 297.999C244.79 298.008 244.591 297.944 244.432 297.817C244.272 297.691 244.164 297.511 244.126 297.311L238.86 269.368C238.833 269.236 238.776 269.113 238.692 269.008C238.609 268.903 238.501 268.819 238.379 268.764C238.257 268.709 238.124 268.684 237.99 268.691C237.856 268.698 237.726 268.736 237.61 268.804L224.859 276.846C224.701 276.943 224.516 276.985 224.332 276.967C224.147 276.948 223.974 276.87 223.838 276.744C223.703 276.617 223.612 276.45 223.579 276.267C223.547 276.084 223.575 275.895 223.66 275.73L230.532 262.247C230.598 262.126 230.634 261.991 230.636 261.853C230.639 261.716 230.608 261.579 230.547 261.456C230.485 261.333 230.395 261.226 230.284 261.146C230.172 261.065 230.043 261.013 229.907 260.993L203.743 257.96C203.544 257.934 203.36 257.839 203.224 257.691C203.088 257.542 203.009 257.35 203.001 257.149C202.992 256.948 203.056 256.75 203.179 256.591C203.302 256.432 203.478 256.321 203.674 256.28L229.495 251.077C229.624 251.048 229.745 250.988 229.847 250.903C229.95 250.819 230.031 250.711 230.084 250.589C230.138 250.467 230.162 250.335 230.155 250.202C230.148 250.069 230.11 249.939 230.045 249.824L222.054 236.961C221.957 236.803 221.913 236.618 221.93 236.432C221.948 236.247 222.025 236.073 222.15 235.936C222.275 235.799 222.442 235.707 222.624 235.673C222.806 235.64 222.995 235.668 223.16 235.752L236.523 242.697C236.647 242.764 236.785 242.799 236.925 242.799C237.066 242.799 237.204 242.765 237.328 242.698C237.451 242.632 237.557 242.536 237.634 242.418C237.712 242.301 237.76 242.166 237.773 242.026L240.665 212.76C240.686 212.557 240.779 212.369 240.926 212.23C241.074 212.09 241.267 212.009 241.469 212.001C241.672 211.992 241.871 212.057 242.03 212.184C242.188 212.311 242.296 212.491 242.333 212.691L247.644 241.612C247.67 241.744 247.728 241.867 247.811 241.972C247.895 242.077 248.002 242.161 248.124 242.216C248.246 242.271 248.38 242.296 248.513 242.289C248.647 242.282 248.777 242.244 248.893 242.176L261.631 234.141C261.789 234.044 261.975 234.001 262.159 234.02C262.343 234.038 262.516 234.116 262.652 234.243C262.788 234.369 262.879 234.536 262.911 234.719C262.944 234.902 262.915 235.091 262.831 235.256L255.928 248.745C255.863 248.867 255.828 249.001 255.827 249.139C255.825 249.276 255.856 249.412 255.917 249.534C255.978 249.657 256.068 249.763 256.178 249.844C256.289 249.925 256.417 249.978 256.552 249.999L281.261 253.027C281.46 253.053 281.643 253.149 281.778 253.298C281.914 253.447 281.992 253.639 281.999 253.84C282.007 254.041 281.943 254.239 281.819 254.397C281.696 254.556 281.52 254.665 281.323 254.706V254.706Z" fill="#E7D3A1"/>
<path d="M1190.31 538.379C1189.63 538.984 1189.07 540.034 1188.53 541.049C1188.41 541.274 1187.16 543.112 1186.87 543.465C1186.49 544.621 1186.04 545.762 1185.54 546.858C1185.35 547.288 1185.07 547.671 1184.79 548.052C1184.48 548.477 1184.18 548.9 1183.99 549.383C1183.87 549.689 1183.71 550.054 1183.53 550.406C1183.62 550.341 1183.72 550.282 1183.81 550.226C1185.94 548.966 1187.67 546.488 1189.46 544.88C1190.51 543.943 1191.55 543.005 1192.55 542.012C1193.17 541.388 1193.89 540.79 1194.62 540.182C1196.44 538.672 1198.32 537.101 1199.01 534.928C1199.51 533.38 1199.87 531.778 1200.16 530.183C1200.46 528.577 1200.73 527.197 1201.9 525.974C1203.91 523.858 1206.21 522.961 1209.17 523.012C1210.63 523.037 1212.1 523.143 1213.57 523.25C1214.02 523.283 1214.48 523.316 1214.94 523.347C1215.43 523.38 1215.7 523.292 1216.1 523.16C1216.1 523.16 1216.14 523.143 1216.17 523.134C1217.93 522.579 1215.7 526.006 1215.07 527.669C1214.75 528.519 1214.43 529.369 1214.21 530.154C1214.08 530.641 1213.95 531.129 1213.82 531.618C1213.61 532.421 1213.4 533.224 1213.17 534.018C1212.74 535.453 1211.82 536.41 1210.77 537.451C1210.03 538.186 1209.23 538.817 1208.23 539.151C1207.77 539.3 1207.31 539.391 1206.85 539.481C1206.34 539.58 1205.84 539.679 1205.34 539.856C1205.17 539.917 1205 539.977 1204.83 540.036C1203.18 540.617 1201.64 541.156 1200.33 542.409C1199.51 543.187 1199.07 544.218 1198.64 545.245C1198.39 545.84 1198.14 546.433 1197.81 546.976C1197.37 547.717 1196.91 548.473 1196.36 549.14C1194.04 551.953 1188.38 552.28 1185.26 552.122C1185.22 552.12 1185.15 552.119 1185.05 552.117C1184.5 552.11 1183.17 552.091 1182.73 551.781C1182.66 552.001 1182.62 552.252 1182.58 552.483C1182.55 552.648 1182.52 552.803 1182.49 552.929L1181.58 556.306C1181.36 557.134 1181.2 557.969 1181.05 558.803C1180.89 559.634 1180.74 560.463 1180.52 561.281C1180.1 562.853 1179.62 564.399 1179.13 565.946C1179.09 566.089 1179.04 566.232 1179 566.376C1180.39 564.865 1182.21 563.83 1184.29 563.61C1184.62 563.575 1184.95 563.563 1185.28 563.551C1186.39 563.51 1187.46 563.471 1188.23 562.539C1188.39 562.348 1188.55 562.155 1188.71 561.961C1189.79 560.658 1190.9 559.321 1192.11 558.168C1193.89 556.489 1198.28 556.492 1200.38 555.724C1201.15 555.443 1201.91 555.119 1202.67 554.794C1203.91 554.269 1205.15 553.742 1206.42 553.393C1206.46 553.381 1206.56 553.348 1206.7 553.303C1207.27 553.113 1208.47 552.714 1208.64 552.862C1209.07 553.238 1207.54 557.085 1207.4 557.61C1206.83 559.734 1206.28 561.813 1204.56 563.34C1203.11 564.633 1201.71 564.53 1199.94 564.073C1198.15 563.609 1195.86 563.084 1194.32 564.418C1193.6 565.047 1193.21 565.974 1192.83 566.889C1192.6 567.451 1192.37 568.009 1192.06 568.491C1191.23 569.783 1190 570.823 1188.81 571.82C1188.6 571.996 1188.39 572.17 1188.19 572.344C1186.69 573.623 1185.02 574.603 1183.14 575.246C1182 575.636 1177.21 575.785 1175.86 575.02C1175.37 575.882 1174.95 576.762 1174.52 577.652C1174.35 578.012 1174.18 578.373 1174 578.735C1173.36 580.03 1172.63 581.266 1171.9 582.496C1172.19 582.329 1172.53 582.183 1172.91 582.059C1173.65 581.818 1174.38 581.531 1175.11 581.245C1176.3 580.775 1177.5 580.305 1178.76 580.036C1181.12 579.533 1184.2 579.358 1186.59 579.754C1187.25 579.863 1187.9 579.972 1188.6 579.977C1189.78 579.986 1190.76 579.152 1191.66 578.396C1191.86 578.222 1192.06 578.052 1192.26 577.898C1193.83 576.659 1195.57 576.456 1197.54 576.336C1200.09 576.181 1202.7 576.311 1204.87 577.837C1205.43 578.228 1206.97 578.862 1206.35 579.733C1206.04 580.168 1203.81 579.549 1202.39 579.858C1200.7 580.224 1199.23 581.21 1197.82 582.149L1197.79 582.172C1197.67 582.255 1197.54 582.338 1197.41 582.422C1196.77 582.845 1196.1 583.287 1195.56 583.806C1195.14 584.204 1194.77 584.647 1194.39 585.09C1194.03 585.517 1193.67 585.946 1193.27 586.335C1191.37 588.171 1189.25 589.475 1186.58 589.768C1185.17 589.922 1183.88 589.636 1182.56 589.344C1182.04 589.229 1181.52 589.113 1180.98 589.023C1180.23 588.895 1179.49 588.692 1178.75 588.489C1178.28 588.361 1177.82 588.233 1177.35 588.124C1174.8 587.531 1170.87 587.877 1168.61 588.573C1168.13 589.908 1167.35 592.074 1166.55 594.32C1165.13 598.271 1163.62 602.469 1163.53 602.821C1163.26 603.817 1161.11 603.163 1160.64 602.509C1160.31 602.034 1164.97 589.079 1165.94 586.733C1165.48 586.457 1165.01 586.196 1164.54 585.933C1163.49 585.352 1162.43 584.765 1161.48 584.005C1160.59 583.29 1160.23 582.632 1159.92 581.562C1159.76 581.05 1159.74 580.525 1159.71 580.001C1159.69 579.529 1159.67 579.056 1159.55 578.591C1159.21 577.215 1158.53 576.111 1157.82 574.957C1157.59 574.593 1157.37 574.225 1157.15 573.841C1156.15 572.106 1155.66 570.19 1155.6 568.203C1155.56 566.637 1156.18 565.029 1156.76 563.524C1156.91 563.137 1157.05 562.757 1157.19 562.386C1157.5 561.498 1157.86 560.627 1158.22 559.757C1158.71 558.573 1159.19 557.39 1159.57 556.165L1159.61 556.049C1160.2 554.132 1160.83 552.087 1161.7 550.277C1161.81 550.027 1161.98 549.791 1162.15 549.559C1162.25 549.425 1162.34 549.293 1162.43 549.159C1162.86 548.957 1163.18 549.804 1163.52 550.697C1163.73 551.27 1163.96 551.861 1164.22 552.208C1165.18 553.465 1166.3 554.958 1166.37 556.591C1166.41 557.427 1166.21 558.297 1166.01 559.167C1165.76 560.233 1165.52 561.299 1165.71 562.304C1166.05 564.09 1166.52 565.91 1167.35 567.527C1168.07 568.948 1168.44 570.413 1168.8 571.899C1168.97 572.559 1169.13 573.223 1169.33 573.889C1169.93 575.895 1170.39 577.949 1170.03 580.033C1170.21 579.746 1170.39 579.457 1170.55 579.162C1171.13 578.108 1171.62 577.031 1172.11 575.95C1172.36 575.388 1172.62 574.825 1172.88 574.263C1174.44 571.007 1175.76 567.838 1176.7 564.346C1177.09 562.907 1177.48 561.492 1177.94 560.085C1177.65 559.98 1177.29 559.88 1176.99 559.793C1176.66 559.701 1176.39 559.625 1176.32 559.579C1175.66 559.171 1175.07 558.135 1174.61 557.53C1173.46 556.007 1172.36 554.565 1171.71 552.687C1171.14 551.038 1171.2 549.362 1171.25 547.676C1171.27 547.263 1171.28 546.849 1171.28 546.435C1171.31 544.226 1170.33 541.896 1168.85 540.245C1166.99 538.162 1165.55 536.099 1165.05 533.299C1164.87 532.28 1165.22 531.165 1165.54 530.149C1165.61 529.912 1165.68 529.679 1165.75 529.455C1166.01 528.547 1166.45 527.665 1166.89 526.795C1167.08 526.404 1167.28 526.015 1167.46 525.628C1168.96 522.336 1170.15 518.937 1171.29 515.502C1171.74 513.829 1172.74 514.032 1172.43 515.182L1172.45 515.272C1172.93 517.558 1173.42 519.881 1175.15 521.599C1176.87 523.301 1178.11 524.804 1178.46 527.255C1178.6 528.203 1178.53 529.056 1178.29 529.97C1178.02 530.95 1178.09 531.918 1178.18 532.922C1178.27 533.876 1178.29 534.863 1178.3 535.857C1178.34 537.793 1178.37 539.756 1178.93 541.557C1179.33 542.847 1179.56 544.167 1179.79 545.488C1179.91 546.191 1180.03 546.894 1180.17 547.593C1180.48 549.028 1180.65 550.432 1180.8 551.883C1180.84 552.216 1180.85 552.541 1180.84 552.859C1180.93 552.595 1181.03 552.336 1181.15 552.087C1181.23 551.926 1181.31 551.77 1181.39 551.615C1181.62 551.182 1181.84 550.759 1181.97 550.271C1182.17 549.516 1182.5 548.823 1182.83 548.124C1183.03 547.693 1183.24 547.26 1183.41 546.81C1183.92 545.514 1184.54 544.279 1185.19 543.058C1185.39 542.685 1185.57 542.28 1185.73 541.858C1185.56 541.476 1185.28 541.124 1184.99 540.774C1184.78 540.507 1184.57 540.24 1184.4 539.961C1184.3 539.789 1184.2 539.62 1184.09 539.452C1183.64 538.712 1183.2 537.989 1183.05 537.105C1182.97 536.666 1182.87 536.242 1182.78 535.822C1182.6 535.081 1182.43 534.348 1182.4 533.551C1182.37 532.516 1182.5 531.575 1182.63 530.595C1182.67 530.309 1182.71 530.02 1182.75 529.724C1182.94 528.139 1183.34 526.626 1183.73 525.11C1184.02 524.022 1184.31 522.933 1184.52 521.815C1184.68 520.979 1184.63 520.083 1184.59 519.202C1184.57 518.773 1184.55 518.348 1184.55 517.935C1184.56 516.725 1184.34 515.545 1184.07 514.371C1183.98 514 1183.84 513.644 1183.69 513.288C1183.58 513.009 1183.47 512.73 1183.39 512.443C1183.21 511.852 1183.2 511.238 1183.19 510.627C1183.19 510.432 1183.19 510.237 1183.18 510.044C1183.11 508.436 1183.6 506.745 1184.07 505.142C1184.18 504.739 1184.3 504.341 1184.4 503.952C1184.98 501.811 1186.32 499.794 1187.59 497.955C1187.9 497.499 1188.22 497.041 1188.48 496.557C1189.86 494.066 1190.59 489.961 1190.95 487.386C1191 486.987 1191.04 486.586 1191.07 486.186C1191.41 484.908 1191.43 483.877 1191.99 483.495C1192.92 484.052 1194.21 487.616 1194.83 489.471C1195.36 491.069 1195.77 492.763 1195.73 494.447C1195.72 495.296 1195.44 496.161 1195.16 497.012C1195 497.508 1194.84 497.999 1194.74 498.479C1194.42 499.928 1194.66 501.508 1194.88 502.981C1194.91 503.155 1194.94 503.326 1194.96 503.496C1195.18 504.972 1195.39 506.403 1195.76 507.86C1196 508.807 1196.02 509.811 1196.04 510.807C1196.06 511.377 1196.07 511.944 1196.12 512.496C1196.15 512.756 1196.18 513.026 1196.21 513.303C1196.35 514.461 1196.5 515.734 1196.22 516.808C1196.06 517.472 1195.87 518.132 1195.68 518.793C1195.39 519.796 1195.11 520.801 1194.89 521.818C1194.72 522.622 1194.67 523.491 1194.61 524.343C1194.59 524.714 1194.57 525.082 1194.53 525.44C1194.3 528.045 1193.92 530.495 1193.24 533.022C1192.94 534.169 1192.5 535.283 1191.97 536.347C1191.53 537.238 1191.03 537.734 1190.31 538.379Z" fill="#E7D3A1"/>
</svg>
