<svg width="1440" height="810" viewBox="0 0 1440 810" fill="none" xmlns="http://www.w3.org/2000/svg">
<path d="M187.456 184.008C187.612 206.888 191.824 232.784 202.536 232.784C207.372 232.784 209.504 230.444 210.492 220.616C208.724 219.94 206.488 218.432 205.084 216.924C204.824 223.476 204.252 226.232 203.108 226.232C198.688 226.232 193.8 204.548 194.112 184.008H187.456ZM196.4 187.544C199.156 189 202.588 191.236 204.2 192.848L208.1 188.636C206.384 187.024 202.848 184.944 200.092 183.748L196.4 187.544ZM201.496 200.18C197.856 212.608 190.992 222.592 181.216 228.312C182.62 229.404 185.116 231.848 186.104 233.096C196.036 226.388 203.472 215.416 207.788 201.636L201.496 200.18ZM162.756 191.496V197.632H209.296V191.496H162.756ZM162.548 223.424L163.692 229.872C170.036 228.52 178.564 226.7 186.364 224.932L185.844 218.952C177.472 220.72 168.424 222.436 162.548 223.424ZM170.92 206.16H178.668V212.192H170.92V206.16ZM165.252 200.908V217.392H184.752V200.908H165.252ZM215.016 206.056V211.568H261.088V206.056H215.016ZM238.312 215.468V220.824H257.76V215.468H238.312ZM235.4 208.864V228.104H241.692V208.864H235.4ZM227.34 217.184L222.192 218.848C226.456 229.716 233.58 231.848 245.54 231.848H260.412C260.724 230.028 261.66 227.272 262.544 225.92C258.8 226.024 248.764 226.076 245.904 226.024C236.804 225.972 230.2 224.776 227.34 217.184ZM222.816 212.66C221.62 219.628 218.448 225.14 213.144 228.416C214.496 229.352 216.888 231.64 217.824 232.784C223.596 228.676 227.34 222.124 229.056 213.544L222.816 212.66ZM225.884 196.748H249.752V199.348H225.884V196.748ZM225.884 190.04H249.752V192.64H225.884V190.04ZM219.852 185.62V203.768H256.096V185.62H219.852ZM266.86 191.08V197.06H313.244V191.08H266.86ZM283.812 207.928V213.7H311.06V207.928H283.812ZM281.784 225.608V231.38H313.036V225.608H281.784ZM294.42 199.296V228.676H300.712V199.296H294.42ZM283.24 183.8C280.536 194.304 274.608 205.952 265.196 212.088C266.132 213.596 267.588 216.352 268.212 218.12C279.34 210.528 285.892 197.892 289.74 185.36L283.24 183.8ZM272.84 205.588V232.576H279.132V205.588H272.84ZM338.724 183.904V191.34H345.12V183.904H338.724ZM319.952 187.96V199.712H326.036V193.628H357.86V199.712H364.204V187.96H319.952ZM327.856 196.956V202.26H355.936V196.956H327.856ZM332.952 206.212C342.884 213.284 342.884 223.58 339.92 225.868C339.036 226.804 338.048 226.96 336.748 226.96C335.396 226.96 333.68 226.908 331.756 226.7C332.848 228.468 333.42 230.964 333.524 232.68C335.084 232.784 336.644 232.836 337.944 232.784C340.7 232.784 342.364 232.316 344.34 230.6C349.904 226.596 350.008 211.932 337.736 203.404L332.952 206.212ZM341.168 198.308C336.644 202.624 327.752 205.848 319.484 207.512C320.472 208.656 322.084 211.152 322.656 212.348C331.34 210.06 340.804 206.056 346.316 200.44L341.168 198.308ZM337.112 208.656C333.42 211.464 325.88 214.584 320.212 215.936C321.356 217.184 322.656 219.316 323.332 220.668C329.156 218.64 336.8 214.792 341.116 211.464L337.112 208.656ZM341.324 213.596C336.488 218.276 326.556 223.164 318.34 225.192C319.536 226.544 320.888 228.78 321.616 230.34C329.884 227.584 340.024 222.072 345.588 216.768L341.324 213.596ZM349.228 199.192L343.976 200.232C346.94 213.336 352.14 223.736 361.968 228.988C362.904 227.272 364.88 224.776 366.284 223.528C357.08 219.42 351.724 210.112 349.228 199.192ZM359.368 202.572C356.664 205.172 352.036 208.5 348.76 210.372L352.764 214.116C356.144 212.4 360.668 209.488 364.256 206.784L359.368 202.572ZM394.624 187.96V192.12H418.232V187.96H394.624ZM402.008 193.836V197.476H416.568V193.836H402.008ZM399.408 199.452V203.092H418.44V199.452H399.408ZM401.124 210.424V213.96H412.46V210.424H401.124ZM401.124 215.624V219.316H412.46V215.624H401.124ZM398.004 204.86V225.348H403.204V208.656H413.032V204.86H398.004ZM410.744 204.86V220.928C410.744 221.344 410.588 221.5 410.172 221.5C409.756 221.5 408.56 221.5 407.416 221.448C407.936 222.592 408.508 224.256 408.768 225.556C411.212 225.556 413.032 225.504 414.436 224.828C415.788 224.1 416.152 223.06 416.152 220.928V204.86H410.744ZM386.252 188.012C388.072 190.196 390.048 193.212 390.776 195.188L395.404 192.172C394.572 190.196 392.492 187.336 390.62 185.256L386.252 188.012ZM385.004 199.348C386.98 201.48 389.164 204.392 390.048 206.42L394.468 203.196C393.532 201.22 391.192 198.464 389.164 196.54L385.004 199.348ZM394.728 208.916H386.2V214.012H389.476V223.84H394.728V208.916ZM394.728 221.292H389.996C387.916 223.372 385.576 225.556 383.496 227.168L386.304 232.524C388.592 230.132 390.464 228.052 392.336 225.868C394.832 229.716 398.264 231.744 403.152 232.004C407.052 232.16 413.5 232.108 417.452 231.9C417.66 230.34 418.492 227.792 419.064 226.492C414.54 226.856 407.26 226.96 403.464 226.804C399.304 226.596 396.34 224.62 394.728 221.292ZM406.272 195.864V201.48H411.628V195.864H406.272ZM400.5 183.8C399.304 190.456 396.704 196.28 392.44 199.92C393.584 200.7 395.612 202.364 396.392 203.3C400.864 199.036 403.932 192.38 405.492 184.58L400.5 183.8ZM371.588 186.088V232.732H376.996V191.652H382.144V186.088H371.588ZM381 186.088V187.804C380.376 191.184 378.972 198.672 377.672 203.404C380.22 207.356 380.74 210.892 380.74 213.544C380.74 215.156 380.48 216.404 380.012 216.872C379.648 217.184 379.232 217.34 378.816 217.34C378.348 217.34 377.776 217.34 377.1 217.288C377.88 218.744 378.244 220.876 378.244 222.332C379.284 222.332 380.22 222.28 381 222.176C382.04 222.02 382.924 221.708 383.652 221.084C385.108 219.94 385.784 217.652 385.784 214.324C385.784 211.048 385.212 207.2 382.404 202.884C383.756 198.724 385.264 192.744 386.46 188.012L382.716 185.88L381.936 186.088H381ZM442.256 189.364V194.772H468.828V189.364H442.256ZM440.488 199.348V204.86H470.388V199.348H440.488ZM440.592 209.28V214.74H470.024V209.28H440.592ZM452.292 183.8V202.884H458.428V183.8H452.292ZM458.896 204.548V225.972C458.896 226.7 458.636 226.856 457.804 226.856C457.024 226.908 454.164 226.908 451.616 226.804C452.448 228.416 453.384 230.912 453.592 232.628C457.492 232.628 460.3 232.524 462.38 231.588C464.408 230.704 464.98 229.092 464.98 226.076V204.548H458.896ZM442.672 218.224C445.064 220.876 447.664 224.568 448.652 227.012L454.008 223.892C452.864 221.344 450.108 217.912 447.664 215.364L442.672 218.224ZM426.188 187.024V192.588H433.78V217.028H426.188V222.592H439.604V187.024H426.188ZM426.5 201.792V207.252H436.588V201.792H426.5ZM423.276 187.024V227.22H429.048V187.024H423.276ZM485.572 217.288V224.464C485.572 229.924 487.34 231.64 494.464 231.64C495.868 231.64 502.368 231.64 503.876 231.64C509.648 231.64 511.364 229.768 512.092 222.332C510.428 221.968 507.828 221.084 506.476 220.096C506.216 225.348 505.852 226.076 503.408 226.076C501.692 226.076 496.388 226.076 495.088 226.076C492.228 226.076 491.708 225.92 491.708 224.36V217.288H485.572ZM493.06 216.612C495.4 218.848 498.52 222.02 499.976 223.944L504.5 220.096C502.888 218.224 499.664 215.26 497.324 213.18L493.06 216.612ZM510.636 218.068C512.716 221.5 515.576 226.128 516.824 228.884L522.648 225.92C521.244 223.216 518.228 218.744 516.096 215.52L510.636 218.068ZM478.084 216.248C477.2 219.94 475.484 224.204 473.56 227.012L479.228 229.82C481.1 226.804 482.66 222.124 483.648 218.38L478.084 216.248ZM474.444 191.288V196.54H496.336V191.288H474.444ZM483.076 183.904V215.208H489.004V183.904H483.076ZM482.868 194.772C480.892 199.868 477.096 205.328 473.196 208.188C474.444 209.176 476.264 211.204 477.2 212.556C481.204 208.916 485 202.416 487.132 196.124L482.868 194.772ZM488.64 198.256L485.416 201.324C487.6 203.04 491.968 207.044 493.996 209.176L497.272 204.184C495.868 203.144 490.408 199.244 488.64 198.256ZM504.032 198.984H513.652V202.052H504.032V198.984ZM504.032 206.576H513.652V209.696H504.032V206.576ZM504.032 191.392H513.652V194.356H504.032V191.392ZM498.364 186.452V214.584H519.632V186.452H498.364ZM551.144 197.58H565.6V200.44H551.144V197.58ZM551.144 190.612H565.6V193.42H551.144V190.612ZM545.528 186.192V204.912H571.476V186.192H545.528ZM549.428 203.56C547.608 208.084 543.916 212.972 537.884 216.508C539.132 217.34 541.004 219.472 541.784 220.876C548.7 216.404 552.808 210.684 555.46 204.548L549.428 203.56ZM550.936 207.824L547.4 212.92H569.396V207.824H550.936ZM567.264 207.824V208.812C566.9 221.656 566.432 226.232 565.6 227.324C565.132 227.896 564.716 228.052 564.04 228.052C563.208 228.052 561.648 228 559.932 227.792C560.608 229.144 561.232 231.224 561.284 232.628C563.624 232.68 565.704 232.68 567.056 232.472C568.512 232.264 569.656 231.796 570.644 230.496C571.996 228.728 572.568 223.736 573.036 210.112C573.088 209.384 573.088 207.824 573.088 207.824H567.264ZM545.268 213.804V223.528C545.268 228.364 546.412 229.872 551.716 229.872C552.756 229.872 557.02 229.872 558.112 229.872C561.856 229.872 563.312 228.624 563.988 223.84C562.48 223.528 560.296 222.696 559.256 221.864C559.1 224.568 558.84 224.984 557.54 224.984C556.552 224.984 553.172 224.984 552.444 224.984C550.728 224.984 550.468 224.776 550.468 223.424V213.804H545.268ZM558.268 214.428C555.876 216.04 551.664 217.756 547.868 218.848C548.492 219.888 549.272 221.604 549.532 222.592C553.796 221.552 558.736 219.992 562.48 218.016L558.268 214.428ZM530.812 189.052V194.668H536.844V213.024H530.812V218.744H542.096V189.052H530.812ZM527.328 189.052V223.06H532.736V189.052H527.328ZM578.34 186.972V192.432H625.868V186.972H578.34ZM592.328 183.852V199.868H610.944V183.852H605.276V195.344H597.788V183.852H592.328ZM585.724 197.528V219.108H591.236V197.528H585.724ZM579.068 201.012V206.264H588.636V201.012H579.068ZM577.872 212.92L579.016 218.276C582.136 217.236 585.464 216.092 588.74 214.896L588.012 210.164C584.164 211.204 580.576 212.296 577.872 212.92ZM612.088 197.58V212.088C612.088 216.976 613.024 218.536 617.496 218.536C618.276 218.536 620.096 218.536 620.98 218.536C624.308 218.536 625.66 216.82 626.18 211.048C624.724 210.684 622.488 209.852 621.448 208.968C621.292 212.972 621.084 213.648 620.304 213.648C619.992 213.648 618.796 213.648 618.484 213.648C617.808 213.648 617.704 213.492 617.704 212.036V197.58H612.088ZM622.124 199.712C620.2 201.376 617.132 203.352 614.376 204.704C615 205.796 615.78 207.616 616.092 208.76C619.108 207.564 622.8 205.9 625.92 204.08L622.124 199.712ZM598.984 206.732H604.132V212.972H598.984V206.732ZM593.94 202.26V217.496H609.436V202.26H593.94ZM593.212 221.76C593.836 225.14 594.252 229.508 594.252 232.212L600.388 231.276C600.336 228.676 599.712 224.36 598.984 221.084L593.212 221.76ZM603.56 221.864C604.808 225.192 606.004 229.56 606.368 232.212L612.608 230.964C612.14 228.26 610.788 224.048 609.436 220.876L603.56 221.864ZM614.012 221.552C616.456 225.036 619.368 229.82 620.512 232.732L626.7 230.08C625.348 227.116 622.228 222.54 619.784 219.264L614.012 221.552ZM583.748 219.732C582.396 223.632 579.848 227.74 577.3 229.976L583.176 232.524C585.984 229.716 588.428 225.4 589.78 221.24L583.748 219.732ZM631.172 188.272V193.68H676.88V188.272H631.172ZM661.436 212.296V213.128C657.276 221.968 645.368 226.076 631.9 227.428C632.888 228.78 634.032 231.172 634.5 232.732C649.164 230.704 661.956 225.816 667.572 214.064L663.672 212.088L662.632 212.296H661.436ZM649.736 208.656C646.564 212.296 640.948 216.144 633.46 218.952C634.76 219.784 636.58 221.708 637.464 223.008C645.42 219.524 651.348 215.208 655.976 210.06L649.736 208.656ZM648.644 212.296L644.12 216.82H663.412V212.296H648.644ZM650.828 183.8V208.656H656.808V183.8H650.828ZM651.192 196.852C646.928 203.56 638.348 209.176 629.04 211.672C630.236 212.816 631.848 215 632.628 216.404C642.352 213.232 650.776 206.784 655.768 198.568L651.192 196.852ZM656.548 196.904L651.92 198.776C657.12 206.836 665.804 213.544 675.216 216.872C676.048 215.416 677.764 213.18 679.012 212.036C669.756 209.332 660.968 203.508 656.548 196.904ZM639.336 193.472C637.828 197.736 634.604 201.376 630.444 203.612C631.64 204.392 633.668 206.16 634.552 207.148C638.868 204.34 642.612 199.92 644.588 194.512L639.336 193.472ZM638.088 200.336C640.064 201.636 642.716 203.508 643.964 204.704L647.24 200.752C645.888 199.608 643.184 197.892 641.208 196.8L638.088 200.336ZM665.076 193.524C663.88 196.8 661.54 199.868 658.68 201.844C659.876 202.676 661.852 204.444 662.788 205.432C665.856 202.936 668.664 198.984 670.224 194.824L665.076 193.524ZM663.88 200.128C667.26 202.156 671.732 205.276 673.916 207.2L677.192 203.248C674.904 201.376 670.328 198.516 667.052 196.644L663.88 200.128ZM643.34 221.916C651.868 224.88 663.62 229.716 669.288 232.836L674.748 228.52C668.248 225.296 656.392 220.824 648.384 218.224L643.34 221.916ZM681.924 194.2V199.972H698.772V194.2H681.924ZM688.944 183.852C687.332 194.2 684.472 207.928 682.236 216.144L687.332 218.848C689.776 209.488 692.792 195.552 694.82 184.476L688.944 183.852ZM684.992 215.312C689.932 218.536 695.912 223.476 698.564 227.064L702.256 222.072C699.5 218.536 693.312 213.96 688.372 210.892L684.992 215.312ZM696.588 194.2V195.344C695.6 211.776 690.92 223.268 682.028 227.896C683.276 229.092 684.94 231.328 685.772 232.836C696.172 226.492 701.216 215 702.464 194.668L698.72 194.044L697.628 194.2H696.588ZM702.204 186.608V192.224H719.208V186.608H702.204ZM719.624 200.96L718.844 206.576H726.332V200.96H719.624ZM724.252 200.96V202.052C723.732 218.224 723.004 224.568 721.756 225.972C721.184 226.596 720.664 226.7 719.78 226.7C718.688 226.7 716.296 226.7 713.8 226.492C714.788 228.104 715.516 230.6 715.62 232.316C718.324 232.472 720.924 232.472 722.588 232.212C724.408 231.952 725.656 231.432 726.956 229.768C728.724 227.636 729.348 220.928 730.024 203.508C730.076 202.78 730.128 200.96 730.128 200.96H724.252ZM706.832 188.532C706.728 203.872 706.884 219.316 699.396 228.624C700.956 229.56 702.932 231.38 703.92 232.784C712.24 222.228 712.76 205.328 712.968 188.532H706.832ZM717.648 186.608C717.388 193.628 716.608 202.676 715.724 208.344L721.392 208.76C722.172 203.04 722.952 193.888 723.368 186.608H717.648Z" fill="#424242"/>
<path d="M581.002 308.736H588.594C588.441 311.225 587.756 313.434 586.537 315.363C585.335 317.293 583.651 318.799 581.484 319.883C579.335 320.966 576.745 321.508 573.715 321.508C571.345 321.508 569.221 321.102 567.342 320.289C565.463 319.46 563.855 318.275 562.518 316.734C561.197 315.194 560.19 313.332 559.496 311.148C558.802 308.965 558.455 306.519 558.455 303.811V301.246C558.455 298.538 558.811 296.092 559.521 293.908C560.249 291.708 561.282 289.837 562.619 288.297C563.973 286.757 565.59 285.572 567.469 284.742C569.348 283.913 571.447 283.498 573.766 283.498C576.846 283.498 579.445 284.057 581.561 285.174C583.693 286.291 585.344 287.831 586.512 289.795C587.697 291.758 588.408 293.993 588.645 296.498H581.027C580.943 295.008 580.646 293.747 580.139 292.715C579.631 291.665 578.861 290.878 577.828 290.354C576.812 289.812 575.458 289.541 573.766 289.541C572.496 289.541 571.387 289.778 570.439 290.252C569.492 290.726 568.696 291.445 568.053 292.41C567.41 293.375 566.927 294.594 566.605 296.066C566.301 297.522 566.148 299.232 566.148 301.195V303.811C566.148 305.723 566.292 307.408 566.58 308.863C566.868 310.302 567.308 311.521 567.9 312.52C568.51 313.501 569.288 314.246 570.236 314.754C571.201 315.245 572.361 315.49 573.715 315.49C575.306 315.49 576.618 315.236 577.65 314.729C578.683 314.221 579.47 313.467 580.012 312.469C580.57 311.47 580.9 310.226 581.002 308.736ZM600.273 282V321H592.961V282H600.273ZM599.232 306.299H597.227C597.243 304.386 597.497 302.626 597.988 301.018C598.479 299.393 599.182 297.988 600.096 296.803C601.01 295.601 602.102 294.67 603.371 294.01C604.658 293.35 606.079 293.02 607.637 293.02C608.991 293.02 610.218 293.214 611.318 293.604C612.436 293.976 613.392 294.585 614.188 295.432C615 296.261 615.626 297.353 616.066 298.707C616.507 300.061 616.727 301.703 616.727 303.633V321H609.363V303.582C609.363 302.363 609.186 301.407 608.83 300.713C608.492 300.002 607.992 299.503 607.332 299.215C606.689 298.91 605.893 298.758 604.945 298.758C603.896 298.758 602.999 298.952 602.254 299.342C601.526 299.731 600.942 300.273 600.502 300.967C600.062 301.644 599.74 302.439 599.537 303.354C599.334 304.268 599.232 305.249 599.232 306.299ZM630.006 293.527V321H622.668V293.527H630.006ZM622.211 286.367C622.211 285.301 622.583 284.421 623.328 283.727C624.073 283.033 625.072 282.686 626.324 282.686C627.56 282.686 628.55 283.033 629.295 283.727C630.057 284.421 630.438 285.301 630.438 286.367C630.438 287.434 630.057 288.314 629.295 289.008C628.55 289.702 627.56 290.049 626.324 290.049C625.072 290.049 624.073 289.702 623.328 289.008C622.583 288.314 622.211 287.434 622.211 286.367ZM643.768 282V321H636.43V282H643.768ZM657.529 282V321H650.191V282H657.529ZM662.705 297.34V304.152H710.857V297.34H662.705ZM715.381 280.648V286.94H762.077V280.648H715.381ZM734.257 286.316V325.576H740.965V286.316H734.257ZM737.793 298.9C743.669 302.072 751.573 306.96 755.265 310.236L759.893 304.516C755.889 301.292 747.725 296.768 742.057 293.96L737.793 298.9ZM788.025 307.636H793.381L794.733 289.852L794.993 282.104H786.413L786.673 289.852L788.025 307.636ZM790.729 321.52C793.329 321.52 795.305 319.596 795.305 316.892C795.305 314.188 793.329 312.316 790.729 312.316C788.077 312.316 786.101 314.188 786.101 316.892C786.101 319.596 788.025 321.52 790.729 321.52Z" fill="#424242"/>
</svg>
