<svg width="1440" height="810" viewBox="0 0 1440 810" fill="none" xmlns="http://www.w3.org/2000/svg">
<path d="M159.572 227.288V234.464C159.572 239.924 161.34 241.64 168.464 241.64C169.868 241.64 176.368 241.64 177.876 241.64C183.648 241.64 185.364 239.768 186.092 232.332C184.428 231.968 181.828 231.084 180.476 230.096C180.216 235.348 179.852 236.076 177.408 236.076C175.692 236.076 170.388 236.076 169.088 236.076C166.228 236.076 165.708 235.92 165.708 234.36V227.288H159.572ZM167.06 226.612C169.4 228.848 172.52 232.02 173.976 233.944L178.5 230.096C176.888 228.224 173.664 225.26 171.324 223.18L167.06 226.612ZM184.636 228.068C186.716 231.5 189.576 236.128 190.824 238.884L196.648 235.92C195.244 233.216 192.228 228.744 190.096 225.52L184.636 228.068ZM152.084 226.248C151.2 229.94 149.484 234.204 147.56 237.012L153.228 239.82C155.1 236.804 156.66 232.124 157.648 228.38L152.084 226.248ZM148.444 201.288V206.54H170.336V201.288H148.444ZM157.076 193.904V225.208H163.004V193.904H157.076ZM156.868 204.772C154.892 209.868 151.096 215.328 147.196 218.188C148.444 219.176 150.264 221.204 151.2 222.556C155.204 218.916 159 212.416 161.132 206.124L156.868 204.772ZM162.64 208.256L159.416 211.324C161.6 213.04 165.968 217.044 167.996 219.176L171.272 214.184C169.868 213.144 164.408 209.244 162.64 208.256ZM178.032 208.984H187.652V212.052H178.032V208.984ZM178.032 216.576H187.652V219.696H178.032V216.576ZM178.032 201.392H187.652V204.356H178.032V201.392ZM172.364 196.452V224.584H193.632V196.452H172.364ZM200.132 222.036V227.08H247.868V222.036H200.132ZM201.12 195.672V201.08H246.62V195.672H201.12ZM217.448 217.044C214.432 222.14 209.856 228.848 206.632 233.008L212.664 234.828C215.836 230.668 220.256 224.116 223.584 218.604L217.448 217.044ZM232.528 223.908C228.368 233.892 218.592 236.7 201.068 237.428C202.056 238.78 202.992 240.964 203.408 242.784C222.7 241.276 233.412 237.74 238.56 225.468L232.528 223.908ZM210.22 233.424C222.648 236.076 234.816 239.82 242.356 242.888L246.1 237.844C238.3 234.984 225.352 231.396 213.392 228.952L210.22 233.424ZM214.796 197.804V215.588H220.672V197.804H214.796ZM226.6 197.804V215.588H232.476V197.804H226.6ZM209.336 208.932H238.716V213.82H209.336V208.932ZM203.512 204.044V218.708H244.956V204.044H203.512ZM276.624 197.96V202.12H300.232V197.96H276.624ZM284.008 203.836V207.476H298.568V203.836H284.008ZM281.408 209.452V213.092H300.44V209.452H281.408ZM283.124 220.424V223.96H294.46V220.424H283.124ZM283.124 225.624V229.316H294.46V225.624H283.124ZM280.004 214.86V235.348H285.204V218.656H295.032V214.86H280.004ZM292.744 214.86V230.928C292.744 231.344 292.588 231.5 292.172 231.5C291.756 231.5 290.56 231.5 289.416 231.448C289.936 232.592 290.508 234.256 290.768 235.556C293.212 235.556 295.032 235.504 296.436 234.828C297.788 234.1 298.152 233.06 298.152 230.928V214.86H292.744ZM268.252 198.012C270.072 200.196 272.048 203.212 272.776 205.188L277.404 202.172C276.572 200.196 274.492 197.336 272.62 195.256L268.252 198.012ZM267.004 209.348C268.98 211.48 271.164 214.392 272.048 216.42L276.468 213.196C275.532 211.22 273.192 208.464 271.164 206.54L267.004 209.348ZM276.728 218.916H268.2V224.012H271.476V233.84H276.728V218.916ZM276.728 231.292H271.996C269.916 233.372 267.576 235.556 265.496 237.168L268.304 242.524C270.592 240.132 272.464 238.052 274.336 235.868C276.832 239.716 280.264 241.744 285.152 242.004C289.052 242.16 295.5 242.108 299.452 241.9C299.66 240.34 300.492 237.792 301.064 236.492C296.54 236.856 289.26 236.96 285.464 236.804C281.304 236.596 278.34 234.62 276.728 231.292ZM288.272 205.864V211.48H293.628V205.864H288.272ZM282.5 193.8C281.304 200.456 278.704 206.28 274.44 209.92C275.584 210.7 277.612 212.364 278.392 213.3C282.864 209.036 285.932 202.38 287.492 194.58L282.5 193.8ZM253.588 196.088V242.732H258.996V201.652H264.144V196.088H253.588ZM263 196.088V197.804C262.376 201.184 260.972 208.672 259.672 213.404C262.22 217.356 262.74 220.892 262.74 223.544C262.74 225.156 262.48 226.404 262.012 226.872C261.648 227.184 261.232 227.34 260.816 227.34C260.348 227.34 259.776 227.34 259.1 227.288C259.88 228.744 260.244 230.876 260.244 232.332C261.284 232.332 262.22 232.28 263 232.176C264.04 232.02 264.924 231.708 265.652 231.084C267.108 229.94 267.784 227.652 267.784 224.324C267.784 221.048 267.212 217.2 264.404 212.884C265.756 208.724 267.264 202.744 268.46 198.012L264.716 195.88L263.936 196.088H263ZM324.256 199.364V204.772H350.828V199.364H324.256ZM322.488 209.348V214.86H352.388V209.348H322.488ZM322.592 219.28V224.74H352.024V219.28H322.592ZM334.292 193.8V212.884H340.428V193.8H334.292ZM340.896 214.548V235.972C340.896 236.7 340.636 236.856 339.804 236.856C339.024 236.908 336.164 236.908 333.616 236.804C334.448 238.416 335.384 240.912 335.592 242.628C339.492 242.628 342.3 242.524 344.38 241.588C346.408 240.704 346.98 239.092 346.98 236.076V214.548H340.896ZM324.672 228.224C327.064 230.876 329.664 234.568 330.652 237.012L336.008 233.892C334.864 231.344 332.108 227.912 329.664 225.364L324.672 228.224ZM308.188 197.024V202.588H315.78V227.028H308.188V232.592H321.604V197.024H308.188ZM308.5 211.792V217.252H318.588V211.792H308.5ZM305.276 197.024V237.22H311.048V197.024H305.276ZM380.624 197.96V202.12H404.232V197.96H380.624ZM388.008 203.836V207.476H402.568V203.836H388.008ZM385.408 209.452V213.092H404.44V209.452H385.408ZM387.124 220.424V223.96H398.46V220.424H387.124ZM387.124 225.624V229.316H398.46V225.624H387.124ZM384.004 214.86V235.348H389.204V218.656H399.032V214.86H384.004ZM396.744 214.86V230.928C396.744 231.344 396.588 231.5 396.172 231.5C395.756 231.5 394.56 231.5 393.416 231.448C393.936 232.592 394.508 234.256 394.768 235.556C397.212 235.556 399.032 235.504 400.436 234.828C401.788 234.1 402.152 233.06 402.152 230.928V214.86H396.744ZM372.252 198.012C374.072 200.196 376.048 203.212 376.776 205.188L381.404 202.172C380.572 200.196 378.492 197.336 376.62 195.256L372.252 198.012ZM371.004 209.348C372.98 211.48 375.164 214.392 376.048 216.42L380.468 213.196C379.532 211.22 377.192 208.464 375.164 206.54L371.004 209.348ZM380.728 218.916H372.2V224.012H375.476V233.84H380.728V218.916ZM380.728 231.292H375.996C373.916 233.372 371.576 235.556 369.496 237.168L372.304 242.524C374.592 240.132 376.464 238.052 378.336 235.868C380.832 239.716 384.264 241.744 389.152 242.004C393.052 242.16 399.5 242.108 403.452 241.9C403.66 240.34 404.492 237.792 405.064 236.492C400.54 236.856 393.26 236.96 389.464 236.804C385.304 236.596 382.34 234.62 380.728 231.292ZM392.272 205.864V211.48H397.628V205.864H392.272ZM386.5 193.8C385.304 200.456 382.704 206.28 378.44 209.92C379.584 210.7 381.612 212.364 382.392 213.3C386.864 209.036 389.932 202.38 391.492 194.58L386.5 193.8ZM357.588 196.088V242.732H362.996V201.652H368.144V196.088H357.588ZM367 196.088V197.804C366.376 201.184 364.972 208.672 363.672 213.404C366.22 217.356 366.74 220.892 366.74 223.544C366.74 225.156 366.48 226.404 366.012 226.872C365.648 227.184 365.232 227.34 364.816 227.34C364.348 227.34 363.776 227.34 363.1 227.288C363.88 228.744 364.244 230.876 364.244 232.332C365.284 232.332 366.22 232.28 367 232.176C368.04 232.02 368.924 231.708 369.652 231.084C371.108 229.94 371.784 227.652 371.784 224.324C371.784 221.048 371.212 217.2 368.404 212.884C369.756 208.724 371.264 202.744 372.46 198.012L368.716 195.88L367.936 196.088H367ZM438.084 193.852V230.564H443.96V193.852H438.084ZM422.692 214.756L425.032 220.268L451.916 208.62L449.628 203.316L422.692 214.756ZM427.84 198.896V232.54C427.84 239.768 429.816 241.64 436.94 241.64C438.552 241.64 446.352 241.64 448.068 241.64C454.152 241.64 456.024 239.196 456.804 231.812C455.14 231.5 452.696 230.512 451.344 229.576C450.928 234.932 450.408 236.076 447.548 236.076C445.936 236.076 439.02 236.076 437.46 236.076C434.236 236.076 433.768 235.66 433.768 232.592V198.896H427.84ZM448.432 203.992C448.432 215.484 448.432 221.152 448.224 222.192C448.068 223.128 447.756 223.284 447.132 223.284C446.664 223.284 445.468 223.284 444.584 223.232C445.26 224.532 445.728 226.872 445.936 228.432C447.6 228.432 449.836 228.432 451.344 227.704C452.956 227.028 453.84 225.78 454.048 223.388C454.256 221.256 454.36 214.964 454.36 205.032L454.62 203.992L450.252 202.432L449.16 203.212L448.068 203.992H448.432ZM407.768 205.916V211.792H424.928V205.916H407.768ZM413.8 194.58V229.056H419.624V194.58H413.8ZM407.04 229.108L409.536 235.348C414.372 233.164 420.352 230.356 425.864 227.548L424.46 222.036C418.116 224.74 411.356 227.548 407.04 229.108ZM485.144 207.58H499.6V210.44H485.144V207.58ZM485.144 200.612H499.6V203.42H485.144V200.612ZM479.528 196.192V214.912H505.476V196.192H479.528ZM483.428 213.56C481.608 218.084 477.916 222.972 471.884 226.508C473.132 227.34 475.004 229.472 475.784 230.876C482.7 226.404 486.808 220.684 489.46 214.548L483.428 213.56ZM484.936 217.824L481.4 222.92H503.396V217.824H484.936ZM501.264 217.824V218.812C500.9 231.656 500.432 236.232 499.6 237.324C499.132 237.896 498.716 238.052 498.04 238.052C497.208 238.052 495.648 238 493.932 237.792C494.608 239.144 495.232 241.224 495.284 242.628C497.624 242.68 499.704 242.68 501.056 242.472C502.512 242.264 503.656 241.796 504.644 240.496C505.996 238.728 506.568 233.736 507.036 220.112C507.088 219.384 507.088 217.824 507.088 217.824H501.264ZM479.268 223.804V233.528C479.268 238.364 480.412 239.872 485.716 239.872C486.756 239.872 491.02 239.872 492.112 239.872C495.856 239.872 497.312 238.624 497.988 233.84C496.48 233.528 494.296 232.696 493.256 231.864C493.1 234.568 492.84 234.984 491.54 234.984C490.552 234.984 487.172 234.984 486.444 234.984C484.728 234.984 484.468 234.776 484.468 233.424V223.804H479.268ZM492.268 224.428C489.876 226.04 485.664 227.756 481.868 228.848C482.492 229.888 483.272 231.604 483.532 232.592C487.796 231.552 492.736 229.992 496.48 228.016L492.268 224.428ZM464.812 199.052V204.668H470.844V223.024H464.812V228.744H476.096V199.052H464.812ZM461.328 199.052V233.06H466.736V199.052H461.328ZM546.556 209.036V222.192H552.276V209.036H546.556ZM541.304 224.636V237.688C541.304 238.208 541.096 238.364 540.524 238.364C540.004 238.416 538.184 238.416 536.468 238.312C537.144 239.56 538.028 241.432 538.34 242.732C541.2 242.732 543.176 242.732 544.788 242.004C546.4 241.276 546.816 240.184 546.816 237.844V224.636H541.304ZM552.224 221.516L548.428 222.92C550.508 226.508 554.252 230.304 557.84 232.228C558.62 231.032 560.232 229.212 561.324 228.328C557.84 226.924 554.148 224.168 552.224 221.516ZM546.608 235.14C550.04 236.856 553.888 239.3 556.072 241.016L559.452 237.636C557.06 235.92 553.004 233.632 549.416 231.916L546.608 235.14ZM551.496 225.988C550.664 227.184 549.104 229.004 548.012 230.096L551.184 232.176C552.276 231.188 553.732 229.784 555.032 228.224L551.496 225.988ZM529.24 212.364V216.576H558.568V212.364H529.24ZM527.628 218.968V223.336H560.336V218.968H527.628ZM535.376 209.036V222.14H540.94V209.036H535.376ZM527.68 236.7L529.552 240.964C532.88 239.508 536.676 237.688 540.368 235.868L539.432 232.124C535.116 233.892 530.696 235.66 527.68 236.7ZM536.312 221.464C534.18 224.168 530.072 226.924 526.328 228.328C527.472 229.316 529.084 231.136 529.864 232.332C533.764 230.408 538.08 226.664 540.472 223.128L536.312 221.464ZM533.296 228.744C534.492 229.94 535.844 231.656 536.416 232.8L540.16 230.252C539.484 229.108 538.08 227.496 536.832 226.404L533.296 228.744ZM535.948 204.408H551.808V206.384H535.948V204.408ZM535.948 198.896H551.808V200.872H535.948V198.896ZM530.54 195.1V210.232H557.476V195.1H530.54ZM518.216 194.424V212.364C518.216 221.412 517.54 231.084 511.56 238.416C512.756 239.352 514.68 241.38 515.564 242.68C522.792 234.152 523.624 222.972 523.624 212.416V194.424H518.216ZM513.484 204.824C513.484 209.504 512.86 214.808 511.196 217.772L514.992 220.112C517.072 216.472 517.696 210.648 517.592 205.344L513.484 204.824ZM525.808 202.38C525.236 205.708 523.936 210.544 522.896 213.56L526.38 215.068C527.68 212.26 529.188 207.892 530.696 204.148L525.808 202.38ZM522.688 222.452L518.944 225.156C520.66 227.652 524.04 233.008 525.444 236.024L529.552 231.864C528.512 230.356 523.988 223.908 522.688 222.452ZM564.34 196.972V202.432H611.868V196.972H564.34ZM578.328 193.852V209.868H596.944V193.852H591.276V205.344H583.788V193.852H578.328ZM571.724 207.528V229.108H577.236V207.528H571.724ZM565.068 211.012V216.264H574.636V211.012H565.068ZM563.872 222.92L565.016 228.276C568.136 227.236 571.464 226.092 574.74 224.896L574.012 220.164C570.164 221.204 566.576 222.296 563.872 222.92ZM598.088 207.58V222.088C598.088 226.976 599.024 228.536 603.496 228.536C604.276 228.536 606.096 228.536 606.98 228.536C610.308 228.536 611.66 226.82 612.18 221.048C610.724 220.684 608.488 219.852 607.448 218.968C607.292 222.972 607.084 223.648 606.304 223.648C605.992 223.648 604.796 223.648 604.484 223.648C603.808 223.648 603.704 223.492 603.704 222.036V207.58H598.088ZM608.124 209.712C606.2 211.376 603.132 213.352 600.376 214.704C601 215.796 601.78 217.616 602.092 218.76C605.108 217.564 608.8 215.9 611.92 214.08L608.124 209.712ZM584.984 216.732H590.132V222.972H584.984V216.732ZM579.94 212.26V227.496H595.436V212.26H579.94ZM579.212 231.76C579.836 235.14 580.252 239.508 580.252 242.212L586.388 241.276C586.336 238.676 585.712 234.36 584.984 231.084L579.212 231.76ZM589.56 231.864C590.808 235.192 592.004 239.56 592.368 242.212L598.608 240.964C598.14 238.26 596.788 234.048 595.436 230.876L589.56 231.864ZM600.012 231.552C602.456 235.036 605.368 239.82 606.512 242.732L612.7 240.08C611.348 237.116 608.228 232.54 605.784 229.264L600.012 231.552ZM569.748 229.732C568.396 233.632 565.848 237.74 563.3 239.976L569.176 242.524C571.984 239.716 574.428 235.4 575.78 231.24L569.748 229.732ZM617.172 198.272V203.68H662.88V198.272H617.172ZM647.436 222.296V223.128C643.276 231.968 631.368 236.076 617.9 237.428C618.888 238.78 620.032 241.172 620.5 242.732C635.164 240.704 647.956 235.816 653.572 224.064L649.672 222.088L648.632 222.296H647.436ZM635.736 218.656C632.564 222.296 626.948 226.144 619.46 228.952C620.76 229.784 622.58 231.708 623.464 233.008C631.42 229.524 637.348 225.208 641.976 220.06L635.736 218.656ZM634.644 222.296L630.12 226.82H649.412V222.296H634.644ZM636.828 193.8V218.656H642.808V193.8H636.828ZM637.192 206.852C632.928 213.56 624.348 219.176 615.04 221.672C616.236 222.816 617.848 225 618.628 226.404C628.352 223.232 636.776 216.784 641.768 208.568L637.192 206.852ZM642.548 206.904L637.92 208.776C643.12 216.836 651.804 223.544 661.216 226.872C662.048 225.416 663.764 223.18 665.012 222.036C655.756 219.332 646.968 213.508 642.548 206.904ZM625.336 203.472C623.828 207.736 620.604 211.376 616.444 213.612C617.64 214.392 619.668 216.16 620.552 217.148C624.868 214.34 628.612 209.92 630.588 204.512L625.336 203.472ZM624.088 210.336C626.064 211.636 628.716 213.508 629.964 214.704L633.24 210.752C631.888 209.608 629.184 207.892 627.208 206.8L624.088 210.336ZM651.076 203.524C649.88 206.8 647.54 209.868 644.68 211.844C645.876 212.676 647.852 214.444 648.788 215.432C651.856 212.936 654.664 208.984 656.224 204.824L651.076 203.524ZM649.88 210.128C653.26 212.156 657.732 215.276 659.916 217.2L663.192 213.248C660.904 211.376 656.328 208.516 653.052 206.644L649.88 210.128ZM629.34 231.916C637.868 234.88 649.62 239.716 655.288 242.836L660.748 238.52C654.248 235.296 642.392 230.824 634.384 228.224L629.34 231.916ZM667.924 204.2V209.972H684.772V204.2H667.924ZM674.944 193.852C673.332 204.2 670.472 217.928 668.236 226.144L673.332 228.848C675.776 219.488 678.792 205.552 680.82 194.476L674.944 193.852ZM670.992 225.312C675.932 228.536 681.912 233.476 684.564 237.064L688.256 232.072C685.5 228.536 679.312 223.96 674.372 220.892L670.992 225.312ZM682.588 204.2V205.344C681.6 221.776 676.92 233.268 668.028 237.896C669.276 239.092 670.94 241.328 671.772 242.836C682.172 236.492 687.216 225 688.464 204.668L684.72 204.044L683.628 204.2H682.588ZM688.204 196.608V202.224H705.208V196.608H688.204ZM705.624 210.96L704.844 216.576H712.332V210.96H705.624ZM710.252 210.96V212.052C709.732 228.224 709.004 234.568 707.756 235.972C707.184 236.596 706.664 236.7 705.78 236.7C704.688 236.7 702.296 236.7 699.8 236.492C700.788 238.104 701.516 240.6 701.62 242.316C704.324 242.472 706.924 242.472 708.588 242.212C710.408 241.952 711.656 241.432 712.956 239.768C714.724 237.636 715.348 230.928 716.024 213.508C716.076 212.78 716.128 210.96 716.128 210.96H710.252ZM692.832 198.532C692.728 213.872 692.884 229.316 685.396 238.624C686.956 239.56 688.932 241.38 689.92 242.784C698.24 232.228 698.76 215.328 698.968 198.532H692.832ZM703.648 196.608C703.388 203.628 702.608 212.676 701.724 218.344L707.392 218.76C708.172 213.04 708.952 203.888 709.368 196.608H703.648ZM739.996 224.636H746.756C745.924 217.46 757.312 216.524 757.312 208.932C757.312 202.016 751.8 198.48 744.26 198.48C738.696 198.48 734.12 201.028 730.792 204.876L735.056 208.776C737.604 206.124 740.204 204.668 743.376 204.668C747.484 204.668 749.98 206.436 749.98 209.608C749.98 214.652 738.904 216.472 739.996 224.636ZM743.428 238.52C746.028 238.52 748.004 236.596 748.004 233.892C748.004 231.188 746.028 229.316 743.428 229.316C740.776 229.316 738.8 231.188 738.8 233.892C738.8 236.596 740.724 238.52 743.428 238.52Z" fill="#424242"/>
</svg>
