<svg width="1440" height="810" viewBox="0 0 1440 810" fill="none" xmlns="http://www.w3.org/2000/svg">
<path d="M371.628 415.552V421.376H385.876V415.552H371.628ZM368.82 382.324V425.172H374.852V388.2H382.444V424.444H388.788V382.324H368.82ZM352.596 387.212V397.144C352.596 404.788 351.66 414.98 342.144 421.844C343.392 422.728 345.784 425.224 346.564 426.524C357.016 418.932 358.888 406.088 358.888 397.248V387.212H352.596ZM348.332 384.456V390.228H366.168V384.456H348.332ZM342.924 398.444V404.372H367.468V398.444H342.924ZM357.328 405.776L353.532 409.312C356.184 412.38 361.28 418.828 363.724 422.676L367.936 417.424C366.324 415.5 359.46 407.648 357.328 405.776ZM347.76 377.852C346.72 383.832 344.744 389.812 341.936 393.556C343.288 394.388 345.836 396.156 346.928 397.144C349.892 392.776 352.388 385.912 353.74 379.048L347.76 377.852ZM414.84 409.676V413.836H424.668V409.676H414.84ZM411.668 383V387.68H428.308V383H411.668ZM410.524 395.428V400.42H443.076V395.428H410.524ZM414.476 402.76V407.024H422.38V416.592H414.476V420.908H427.424V402.76H414.476ZM412.604 402.76V422.884H417.284V402.76H412.604ZM417.232 377.852V385.392H422.9V377.852H417.232ZM413.228 388.72C413.956 390.956 414.424 393.764 414.424 395.636L418.896 394.596C418.844 392.724 418.22 389.916 417.388 387.836L413.228 388.72ZM434.236 382.844C436.212 385.756 438.032 389.76 438.604 392.464L443.596 390.436C442.868 387.732 440.944 383.884 438.916 381.076L434.236 382.844ZM422.224 387.628C422.016 389.76 421.496 392.828 421.08 394.856L425.292 395.688C425.864 393.868 426.488 391.112 427.268 388.46L422.224 387.628ZM429.244 377.956C429.348 408.74 429.92 426.264 438.604 426.836C440.528 426.888 442.868 425.12 444.116 417.632C443.232 417.06 441.152 415.448 440.32 414.2C440.112 417.84 439.592 420.128 438.864 420.076C434.964 419.66 434.184 402.76 434.6 377.956H429.244ZM437.772 402.604C434.756 412.068 428.724 419.244 422.172 423.196C423.264 424.08 424.876 425.692 425.604 426.68C432.468 422.416 438.916 414.876 442.452 405.152L437.772 402.604ZM396.588 393.816V398.496H409.744V393.816H396.588ZM396.848 379.464V384.196H409.692V379.464H396.848ZM396.588 400.888V405.62H409.744V400.888H396.588ZM394.508 386.484V391.424H410.94V386.484H394.508ZM399.24 408.116V413.004H405.012V418.932H399.24V423.82H409.9V408.116H399.24ZM396.432 408.116V426.004H401.216V408.116H396.432ZM455.029 400.342H458.939C460.192 400.342 461.225 400.13 462.037 399.707C462.85 399.267 463.451 398.658 463.84 397.879C464.246 397.083 464.449 396.161 464.449 395.111C464.449 394.163 464.263 393.326 463.891 392.598C463.535 391.853 462.985 391.277 462.24 390.871C461.495 390.448 460.556 390.236 459.422 390.236C458.525 390.236 457.695 390.414 456.934 390.77C456.172 391.125 455.562 391.624 455.105 392.268C454.648 392.911 454.42 393.689 454.42 394.604H447.082C447.082 392.572 447.624 390.803 448.707 389.297C449.807 387.79 451.28 386.614 453.125 385.768C454.97 384.921 457.001 384.498 459.219 384.498C461.724 384.498 463.916 384.904 465.795 385.717C467.674 386.512 469.138 387.689 470.188 389.246C471.237 390.803 471.762 392.733 471.762 395.035C471.762 396.203 471.491 397.337 470.949 398.438C470.408 399.521 469.629 400.503 468.613 401.383C467.615 402.246 466.396 402.94 464.957 403.465C463.518 403.973 461.902 404.227 460.107 404.227H455.029V400.342ZM455.029 405.902V402.119H460.107C462.122 402.119 463.891 402.348 465.414 402.805C466.938 403.262 468.215 403.922 469.248 404.785C470.281 405.632 471.059 406.639 471.584 407.807C472.109 408.958 472.371 410.236 472.371 411.641C472.371 413.367 472.041 414.908 471.381 416.262C470.721 417.599 469.79 418.733 468.588 419.664C467.403 420.595 466.015 421.306 464.424 421.797C462.833 422.271 461.098 422.508 459.219 422.508C457.661 422.508 456.13 422.296 454.623 421.873C453.133 421.433 451.779 420.781 450.561 419.918C449.359 419.038 448.394 417.938 447.666 416.617C446.955 415.28 446.6 413.697 446.6 411.869H453.938C453.938 412.817 454.174 413.663 454.648 414.408C455.122 415.153 455.774 415.737 456.604 416.16C457.45 416.583 458.389 416.795 459.422 416.795C460.59 416.795 461.589 416.583 462.418 416.16C463.264 415.72 463.908 415.111 464.348 414.332C464.805 413.536 465.033 412.614 465.033 411.564C465.033 410.21 464.788 409.127 464.297 408.314C463.806 407.485 463.104 406.876 462.189 406.486C461.275 406.097 460.192 405.902 458.939 405.902H455.029ZM500.859 395.22C503.563 395.22 505.799 393.14 505.799 390.332C505.799 387.472 503.563 385.392 500.859 385.392C498.103 385.392 495.867 387.472 495.867 390.332C495.867 393.14 498.103 395.22 500.859 395.22ZM500.859 420.024C503.563 420.024 505.799 417.944 505.799 415.136C505.799 412.276 503.563 410.196 500.859 410.196C498.103 410.196 495.867 412.276 495.867 415.136C495.867 417.944 498.103 420.024 500.859 420.024ZM529.199 380.972V386.432H576.727V380.972H529.199ZM543.187 377.852V393.868H561.803V377.852H556.135V389.344H548.647V377.852H543.187ZM536.583 391.528V413.108H542.095V391.528H536.583ZM529.927 395.012V400.264H539.495V395.012H529.927ZM528.731 406.92L529.875 412.276C532.995 411.236 536.323 410.092 539.599 408.896L538.871 404.164C535.023 405.204 531.435 406.296 528.731 406.92ZM562.947 391.58V406.088C562.947 410.976 563.883 412.536 568.355 412.536C569.135 412.536 570.955 412.536 571.839 412.536C575.167 412.536 576.519 410.82 577.039 405.048C575.583 404.684 573.347 403.852 572.307 402.968C572.151 406.972 571.943 407.648 571.163 407.648C570.851 407.648 569.655 407.648 569.343 407.648C568.667 407.648 568.563 407.492 568.563 406.036V391.58H562.947ZM572.983 393.712C571.059 395.376 567.991 397.352 565.235 398.704C565.859 399.796 566.639 401.616 566.951 402.76C569.967 401.564 573.659 399.9 576.779 398.08L572.983 393.712ZM549.843 400.732H554.991V406.972H549.843V400.732ZM544.799 396.26V411.496H560.295V396.26H544.799ZM544.071 415.76C544.695 419.14 545.111 423.508 545.111 426.212L551.247 425.276C551.195 422.676 550.571 418.36 549.843 415.084L544.071 415.76ZM554.419 415.864C555.667 419.192 556.863 423.56 557.227 426.212L563.467 424.964C562.999 422.26 561.647 418.048 560.295 414.876L554.419 415.864ZM564.871 415.552C567.315 419.036 570.227 423.82 571.371 426.732L577.559 424.08C576.207 421.116 573.087 416.54 570.643 413.264L564.871 415.552ZM534.607 413.732C533.255 417.632 530.707 421.74 528.159 423.976L534.035 426.524C536.843 423.716 539.287 419.4 540.639 415.24L534.607 413.732ZM582.031 382.272V387.68H627.739V382.272H582.031ZM612.295 406.296V407.128C608.135 415.968 596.227 420.076 582.759 421.428C583.747 422.78 584.891 425.172 585.359 426.732C600.023 424.704 612.815 419.816 618.431 408.064L614.531 406.088L613.491 406.296H612.295ZM600.595 402.656C597.423 406.296 591.807 410.144 584.319 412.952C585.619 413.784 587.439 415.708 588.323 417.008C596.279 413.524 602.207 409.208 606.835 404.06L600.595 402.656ZM599.503 406.296L594.979 410.82H614.271V406.296H599.503ZM601.687 377.8V402.656H607.667V377.8H601.687ZM602.051 390.852C597.787 397.56 589.207 403.176 579.899 405.672C581.095 406.816 582.707 409 583.487 410.404C593.211 407.232 601.635 400.784 606.627 392.568L602.051 390.852ZM607.407 390.904L602.779 392.776C607.979 400.836 616.663 407.544 626.075 410.872C626.907 409.416 628.623 407.18 629.871 406.036C620.615 403.332 611.827 397.508 607.407 390.904ZM590.195 387.472C588.687 391.736 585.463 395.376 581.303 397.612C582.499 398.392 584.527 400.16 585.411 401.148C589.727 398.34 593.471 393.92 595.447 388.512L590.195 387.472ZM588.947 394.336C590.923 395.636 593.575 397.508 594.823 398.704L598.099 394.752C596.747 393.608 594.043 391.892 592.067 390.8L588.947 394.336ZM615.935 387.524C614.739 390.8 612.399 393.868 609.539 395.844C610.735 396.676 612.711 398.444 613.647 399.432C616.715 396.936 619.523 392.984 621.083 388.824L615.935 387.524ZM614.739 394.128C618.119 396.156 622.591 399.276 624.775 401.2L628.051 397.248C625.763 395.376 621.187 392.516 617.911 390.644L614.739 394.128ZM594.199 415.916C602.727 418.88 614.479 423.716 620.147 426.836L625.607 422.52C619.107 419.296 607.251 414.824 599.243 412.224L594.199 415.916ZM632.783 388.2V393.972H649.631V388.2H632.783ZM639.803 377.852C638.191 388.2 635.331 401.928 633.095 410.144L638.191 412.848C640.635 403.488 643.651 389.552 645.679 378.476L639.803 377.852ZM635.851 409.312C640.791 412.536 646.771 417.476 649.423 421.064L653.115 416.072C650.359 412.536 644.171 407.96 639.231 404.892L635.851 409.312ZM647.447 388.2V389.344C646.459 405.776 641.779 417.268 632.887 421.896C634.135 423.092 635.799 425.328 636.631 426.836C647.031 420.492 652.075 409 653.323 388.668L649.579 388.044L648.487 388.2H647.447ZM653.063 380.608V386.224H670.067V380.608H653.063ZM670.483 394.96L669.703 400.576H677.191V394.96H670.483ZM675.111 394.96V396.052C674.591 412.224 673.863 418.568 672.615 419.972C672.043 420.596 671.523 420.7 670.639 420.7C669.547 420.7 667.155 420.7 664.659 420.492C665.647 422.104 666.375 424.6 666.479 426.316C669.183 426.472 671.783 426.472 673.447 426.212C675.267 425.952 676.515 425.432 677.815 423.768C679.583 421.636 680.207 414.928 680.883 397.508C680.935 396.78 680.987 394.96 680.987 394.96H675.111ZM657.691 382.532C657.587 397.872 657.743 413.316 650.255 422.624C651.815 423.56 653.791 425.38 654.779 426.784C663.099 416.228 663.619 399.328 663.827 382.532H657.691ZM668.507 380.608C668.247 387.628 667.467 396.676 666.583 402.344L672.251 402.76C673.031 397.04 673.811 387.888 674.227 380.608H668.507ZM693.051 405.308V410.664H728.307V405.308H693.051ZM686.031 386.328V391.944H720.455V386.328H686.031ZM701.371 395.896V401.252H724.979V395.896H701.371ZM725.915 405.308V406.192C725.239 415.656 724.355 419.608 723.315 420.648C722.795 421.116 722.275 421.22 721.391 421.22C720.351 421.272 718.167 421.22 715.879 420.96C716.867 422.52 717.595 424.964 717.647 426.68C720.351 426.732 722.847 426.732 724.303 426.576C726.019 426.368 727.267 425.9 728.515 424.548C730.179 422.78 731.115 418.256 731.947 407.7C732.051 406.92 732.155 405.308 732.155 405.308H725.915ZM714.839 412.484C716.139 414.668 717.491 417.684 717.959 419.556L722.483 417.892C721.963 416.02 720.559 413.108 719.155 410.976L714.839 412.484ZM691.855 380.036C693.675 382.168 695.755 385.184 696.587 387.108L702.567 384.664C701.527 382.688 699.291 379.828 697.471 377.852L691.855 380.036ZM699.135 413.888C699.967 417.32 700.487 421.792 700.331 424.652L705.687 423.924C705.687 421.012 705.167 416.644 704.179 413.264L699.135 413.888ZM706.987 413.472C708.131 416.436 709.223 420.336 709.535 422.884L714.579 421.584C714.163 419.088 713.019 415.292 711.771 412.38L706.987 413.472ZM692.219 412.172C691.335 416.228 689.515 420.44 686.915 423.04L691.699 426.472C694.767 423.248 696.379 418.36 697.419 413.888L692.219 412.172ZM707.871 377.8C704.387 390.956 696.847 404.112 683.587 410.768C684.627 412.12 686.187 414.616 686.915 416.176C701.683 408.22 709.639 394.232 714.267 379.308L707.871 377.8ZM719.259 386.328C718.687 389.812 717.751 394.128 716.971 396.988L722.379 397.82C723.263 394.804 724.251 390.228 724.979 386.328H719.259ZM722.639 395.896C722.119 399.328 721.235 403.54 720.403 406.452L725.863 407.18C726.695 404.216 727.631 399.692 728.359 395.896H722.639ZM736.731 381.544V387.004H753.527V381.544H736.731ZM737.199 396.52V402.032H752.799V396.52H737.199ZM752.903 392.932V397.872H785.143V392.932H752.903ZM736.003 413.784L737.303 419.66C742.295 418.308 748.691 416.592 754.619 414.928L753.891 409.364C747.391 411.08 740.579 412.796 736.003 413.784ZM761.535 404.216H776.511V407.544H761.535V404.216ZM756.075 399.796V412.016H782.283V399.796H756.075ZM774.639 383.676H777.967V387.056H774.639V383.676ZM767.359 383.676H770.635V387.056H767.359V383.676ZM760.235 383.676H763.407V387.056H760.235V383.676ZM755.243 379.516V391.216H783.167V379.516H755.243ZM770.895 409.624L766.423 410.924C769.335 417.996 774.535 423.872 781.399 426.732C782.231 425.224 783.999 422.988 785.299 421.844C778.695 419.816 773.443 415.084 770.895 409.624ZM780.151 411.86C778.747 413.212 776.303 415.24 774.587 416.332L778.123 419.14C779.943 418.152 782.335 416.592 784.415 415.032L780.151 411.86ZM742.503 383.936V415.136L748.119 414.2V383.936H742.503ZM767.983 408.792C764.031 413.264 756.283 417.632 749.419 419.764C750.615 420.856 752.227 422.884 753.007 424.184C760.027 421.48 767.827 416.332 772.351 410.768L767.983 408.792ZM762.835 416.124V426.68H768.711V412.172L762.835 416.124ZM817.123 396.26V426.68H823.415V396.26H817.123ZM803.447 402.76V408.428H836.883V402.76H803.447ZM824.611 405.256L819.931 406.972C823.155 413.888 828.511 420.908 833.971 424.808C835.011 423.248 836.987 421.012 838.391 419.816C832.983 416.696 827.471 410.924 824.611 405.256ZM816.291 404.788C813.275 410.716 807.503 416.644 801.575 419.712C802.927 420.908 804.903 423.144 805.891 424.652C812.027 420.752 817.799 413.836 821.179 406.504L816.291 404.788ZM812.807 385.6H828.095V392.568H812.807V385.6ZM806.879 380.14V398.08H834.335V380.14H806.879ZM800.067 377.956C797.311 385.392 792.631 392.776 787.795 397.456C788.835 398.964 790.551 402.396 791.071 403.852C796.843 397.976 802.407 388.668 805.891 379.828L800.067 377.956ZM795.075 392.36V426.524H801.003V386.484L800.951 386.432L795.075 392.36ZM840.991 420.284V425.172H888.623V420.284H840.991ZM841.303 386.692V391.112H888.363V386.692H841.303ZM841.719 399.276V403.748H887.999V399.276H841.719ZM847.231 410.144V422.676H853.003V414.824H856.955V422.676H862.675V414.824H866.731V422.676H872.399V414.824H876.403V422.676H882.539V410.144H847.231ZM861.219 377.8V400.42H867.407V377.8H861.219ZM846.815 380.504V384.716H876.975V393.088H846.503V397.3H883.111V380.504H846.815ZM846.191 403.696C845.203 406.452 843.227 409.208 840.627 410.716L844.787 414.46C848.011 412.328 849.831 409 850.975 405.62L846.191 403.696ZM855.343 404.736C855.863 406.452 856.279 408.74 856.331 410.196L861.895 409.208C861.739 407.752 861.219 405.516 860.595 403.904L855.343 404.736ZM866.159 404.944C867.147 406.66 868.135 409 868.447 410.508L873.855 409C873.439 407.492 872.399 405.256 871.307 403.644L866.159 404.944ZM877.495 405.152C879.991 407.648 882.955 411.236 884.307 413.524L889.195 411.236C887.739 409 884.827 405.724 882.227 403.332L877.495 405.152ZM892.835 398.34V405.152H940.987V398.34H892.835ZM963.035 398.808V404.424H983.627V398.808H963.035ZM968.599 379.308V384.768H981.755V379.308H968.599ZM977.335 379.308V382.272H978.479C980.039 390.176 983.783 398.08 989.555 402.864C990.543 401.304 992.675 398.704 994.079 397.56C988.723 393.868 985.291 386.744 983.991 379.308H977.335ZM981.235 398.808V399.9C980.923 413.732 980.559 418.672 979.675 419.816C979.207 420.388 978.791 420.544 978.011 420.544C977.179 420.544 975.463 420.544 973.591 420.336C974.527 422 975.203 424.652 975.307 426.472C977.699 426.576 979.935 426.524 981.339 426.264C982.951 426.004 984.043 425.484 985.135 423.976C986.539 422.052 986.955 416.28 987.371 401.356C987.423 400.576 987.423 398.808 987.423 398.808H981.235ZM968.755 401.616C968.235 410.3 966.831 417.528 958.563 421.896C959.863 422.988 961.527 425.224 962.255 426.628C971.667 421.012 974.163 412.38 974.891 401.616H968.755ZM964.751 384.3C963.399 389.188 960.279 395.376 956.483 399.016C957.679 400.004 959.603 401.876 960.539 403.124C964.959 398.808 968.547 391.892 970.731 385.808L964.751 384.3ZM955.183 378.06C952.531 385.496 948.007 392.88 943.275 397.612C944.367 399.12 946.031 402.552 946.603 404.06C952.271 398.132 957.679 388.772 961.059 379.88L955.183 378.06ZM950.139 392.412V426.628H956.119V386.536L956.067 386.484L950.139 392.412ZM1010.3 392.724V417.58C1010.3 424.132 1012.18 426.16 1018.83 426.16C1020.18 426.16 1025.9 426.16 1027.31 426.16C1033.55 426.16 1035.26 423.092 1035.99 413.316C1034.22 412.9 1031.57 411.756 1030.17 410.612C1029.75 418.776 1029.34 420.492 1026.79 420.492C1025.44 420.492 1020.76 420.492 1019.66 420.492C1017.22 420.492 1016.8 420.128 1016.8 417.58V392.724H1010.3ZM1010.51 382.844C1016.65 385.236 1023.93 389.292 1027.88 392.62L1032.04 387.108C1027.88 384.092 1020.7 380.192 1014.57 378.008L1010.51 382.844ZM1000.94 396.416C1000.27 403.384 998.759 410.196 995.691 414.668L1001.52 417.996C1004.95 412.9 1006.3 404.892 1007.08 397.664L1000.94 396.416ZM1030.9 397.248C1035.06 402.968 1038.7 410.976 1039.74 416.332L1046.08 413.212C1044.83 407.752 1041.09 400.108 1036.62 394.388L1030.9 397.248ZM1050.76 388.668V395.064H1090.59V388.668H1050.76ZM1088.04 388.668V389.916C1087.16 409.104 1086.12 417.32 1084.3 419.088C1083.57 419.764 1082.95 419.972 1081.91 419.972C1080.5 419.972 1077.44 419.92 1074.11 419.66C1075.3 421.48 1076.19 424.288 1076.29 426.108C1079.46 426.264 1082.69 426.316 1084.66 426.004C1086.95 425.692 1088.46 425.12 1089.97 423.144C1092.31 420.388 1093.35 412.484 1094.39 391.684C1094.49 390.8 1094.54 388.668 1094.54 388.668H1088.04ZM1066.72 377.956V388.668C1066.72 398.704 1065.27 413.108 1049.1 421.896C1050.66 422.988 1053 425.432 1053.98 426.94C1071.66 416.956 1073.33 400.472 1073.33 388.668V377.956H1066.72Z" fill="#424242"/>
</svg>
