<svg width="1440" height="810" viewBox="0 0 1440 810" fill="none" xmlns="http://www.w3.org/2000/svg">
<path d="M457.64 161.92V167.44H500.456V161.92H457.64ZM473.288 177.472V182.8H498.44V177.472H473.288ZM471.416 193.792V199.12H500.264V193.792H471.416ZM483.08 169.504V196.624H488.888V169.504H483.08ZM472.76 155.2C470.264 164.896 464.792 175.648 456.104 181.312C456.968 182.704 458.312 185.248 458.888 186.88C469.16 179.872 475.208 168.208 478.76 156.64L472.76 155.2ZM463.16 175.312V200.224H468.968V175.312H463.16ZM511.736 186.4V190.864H543.032V186.4H511.736ZM512.984 178.672V183.424H545.192V178.672H512.984ZM505.832 194.128V199.072H548.312V194.128H505.832ZM524.168 175.744V197.584H530.168V175.744H524.168ZM516.104 167.92H537.416V170.464H516.104V167.92ZM516.104 161.296H537.416V163.84H516.104V161.296ZM510.488 156.928V174.88H543.416V156.928H510.488ZM512.936 174.4C511.208 178.288 508.04 182.176 504.728 184.672C506.072 185.488 508.424 187.216 509.528 188.272C512.84 185.344 516.44 180.688 518.6 176.032L512.936 174.4ZM559.784 174.016V179.632H589.304V174.016H559.784ZM571.544 160.912V176.8H577.304V160.912H571.544ZM559.928 157.984V163.648H586.472V182.08H592.472V157.984H559.928ZM556.52 157.984V189.424C556.52 197.584 559.304 199.552 568.616 199.552C570.92 199.552 583.016 199.552 585.512 199.552C593.816 199.552 596.168 196.864 597.224 188.848C595.496 188.512 592.856 187.456 591.368 186.592C590.6 192.688 589.736 193.84 584.984 193.84C582.44 193.84 571.064 193.84 568.52 193.84C563.192 193.84 562.52 193.264 562.52 189.472V157.984H556.52ZM612.728 173.44H633.272V178.672H612.728V173.44ZM607.16 168.4V183.76H639.224V168.4H607.16ZM602.12 159.328V164.56H644.024V159.328H602.12ZM619.88 155.2V171.376H625.736V155.2H619.88ZM625.304 180.832V192.64C625.304 198.016 626.696 199.792 632.36 199.792C633.464 199.792 637.352 199.792 638.504 199.792C643.256 199.792 644.792 197.776 645.416 190.096C643.832 189.664 641.288 188.752 640.088 187.792C639.896 193.504 639.608 194.32 637.976 194.32C637.016 194.32 633.944 194.32 633.176 194.32C631.496 194.32 631.208 194.176 631.208 192.544V180.832H625.304ZM613.688 182.896C612.968 189.088 611.528 192.976 600.296 195.088C601.496 196.336 603.08 198.832 603.608 200.416C616.616 197.344 619.016 191.488 619.88 182.896H613.688ZM672.344 155.392C672.488 176.512 676.376 200.416 686.264 200.416C690.728 200.416 692.696 198.256 693.608 189.184C691.976 188.56 689.912 187.168 688.616 185.776C688.376 191.824 687.848 194.368 686.792 194.368C682.712 194.368 678.2 174.352 678.488 155.392H672.344ZM680.6 158.656C683.144 160 686.312 162.064 687.8 163.552L691.4 159.664C689.816 158.176 686.552 156.256 684.008 155.152L680.6 158.656ZM685.304 170.32C681.944 181.792 675.608 191.008 666.584 196.288C667.88 197.296 670.184 199.552 671.096 200.704C680.264 194.512 687.128 184.384 691.112 171.664L685.304 170.32ZM649.544 162.304V167.968H692.504V162.304H649.544ZM649.352 191.776L650.408 197.728C656.264 196.48 664.136 194.8 671.336 193.168L670.856 187.648C663.128 189.28 654.776 190.864 649.352 191.776ZM657.08 175.84H664.232V181.408H657.08V175.84ZM651.848 170.992V186.208H669.848V170.992H651.848ZM697.784 175.744V180.832H740.312V175.744H697.784ZM719.288 184.432V189.376H737.24V184.432H719.288ZM716.6 178.336V196.096H722.408V178.336H716.6ZM709.16 186.016L704.408 187.552C708.344 197.584 714.92 199.552 725.96 199.552H739.688C739.976 197.872 740.84 195.328 741.656 194.08C738.2 194.176 728.936 194.224 726.296 194.176C717.896 194.128 711.8 193.024 709.16 186.016ZM704.984 181.84C703.88 188.272 700.952 193.36 696.056 196.384C697.304 197.248 699.512 199.36 700.376 200.416C705.704 196.624 709.16 190.576 710.744 182.656L704.984 181.84ZM707.816 167.152H729.848V169.552H707.816V167.152ZM707.816 160.96H729.848V163.36H707.816V160.96ZM702.248 156.88V173.632H735.704V156.88H702.248ZM755.384 193.552V198.592H779.48V193.552H755.384ZM760.424 154.72C757.112 160.576 751.256 165.904 745.064 169.072C746.312 170.032 748.424 172.24 749.336 173.344C755.528 169.552 761.912 163.408 765.896 156.64L760.424 154.72ZM777.896 159.856V160.72C772.328 169.888 757.736 176.368 744.104 178.816C745.16 180.112 746.408 182.464 746.936 184C761.72 180.784 776.984 173.872 784.184 162.208L780.056 159.568L779.096 159.856H777.896ZM757.976 162.592L753.128 164.848C760.52 174.448 772.424 180.976 786.44 183.712C787.256 182.128 788.84 179.632 790.184 178.336C776.36 176.128 764.12 170.32 757.976 162.592ZM752.456 182.32V200.416H758.264V187.504H775.784V200.224H781.928V182.32H752.456ZM760.28 159.856L756.824 164.8H779.192V159.856H760.28ZM808.376 184.528V188.656H821.528V184.528H808.376ZM808.04 177.424V181.648H818.84V191.632H808.04V195.856H824.216V177.424H808.04ZM805.688 177.424V198.304H810.872V177.424H805.688ZM797.624 163.744V167.632H809.672V163.744H797.624ZM819.896 163.744V167.632H832.04V163.744H819.896ZM829.688 157.072V193.456C829.688 194.272 829.4 194.56 828.536 194.56C827.672 194.56 824.744 194.608 822.248 194.464C823.016 196 823.88 198.688 824.12 200.32C828.248 200.32 831.032 200.224 832.952 199.264C834.872 198.304 835.496 196.624 835.496 193.504V157.072H829.688ZM798.104 157.072V161.248H807.896V170.368H798.104V174.496H813.272V157.072H798.104ZM832.76 157.072H816.536V174.64H832.76V170.512H822.008V161.248H832.76V157.072ZM794.792 157.072V200.32H800.504V157.072H794.792ZM854.696 164.608V169.648H866.984V164.608H854.696ZM873.128 189.664V194.752H881.432V189.664H873.128ZM871.304 160.624V198.496H875.864V165.712H879.368V198.112H884.168V160.624H871.304ZM865.16 164.608V165.76C864.68 185.68 864.2 192.4 863.24 193.84C862.808 194.56 862.472 194.704 861.848 194.704C861.128 194.704 860.024 194.704 858.728 194.56C859.496 196 859.976 198.16 860.024 199.648C861.752 199.744 863.336 199.696 864.488 199.456C865.832 199.168 866.696 198.688 867.608 197.2C869.048 195.136 869.48 187.84 870.008 166.96C870.056 166.288 870.056 164.608 870.056 164.608H865.16ZM857.624 155.44C857.576 175.072 857.912 188.752 850.76 196.864C851.96 197.632 853.688 199.36 854.456 200.608C862.424 191.536 862.424 176.272 862.52 155.44H857.624ZM844.664 158.464V163.024H849.08V184.336H844.664V188.896H853.496V158.464H844.664ZM841.928 158.464V193.024H846.296V158.464H841.928ZM919.784 155.584V200.272H925.352V155.584H919.784ZM904.616 162.688V167.92H914.744V162.688H904.616ZM922.568 162.688V167.92H933.032V162.688H922.568ZM922.904 172.576V177.712H932.264V172.576H922.904ZM922.616 182.464V187.648H933.56V182.464H922.616ZM904.952 172.576V177.712H913.976V172.576H904.952ZM902.456 185.008L904.664 190.24C908.888 188.656 914.072 186.688 919.016 184.672L918.248 180.352C912.488 182.128 906.344 184 902.456 185.008ZM911.624 155.68V177.52C911.624 184.48 910.664 192.304 903.128 196.768C904.376 197.584 906.44 199.456 907.304 200.512C915.704 195.472 917.096 186.448 917.096 177.568V155.68H911.624ZM892.952 159.664V164.896H898.424V181.408H892.952V186.592H903.56V159.664H892.952ZM889.976 159.664V190.768H895.064V159.664H889.976ZM945.512 164.944V168.496H960.872V164.944H945.512ZM948.68 170.176V172.96H957.512V170.176H948.68ZM948.68 174.784V177.616H957.512V174.784H948.68ZM945.032 185.008V188.224H953.816V185.008H945.032ZM945.08 190.096V193.216H953.768V190.096H945.08ZM961.208 165.952V169.84H980.312V165.952H961.208ZM960.488 182.896V186.688H981.32V182.896H960.488ZM968.072 163.792V173.968H972.872V163.792H968.072ZM947.192 166.912V181.216H951.224V166.912H947.192ZM947.672 186.448V196.672H951.224V186.448H947.672ZM954.776 166.864V200.32H959.048V166.864H954.776ZM974.552 174.928H976.52V178.096H974.552V174.928ZM969.656 174.928H971.576V178.096H969.656V174.928ZM964.904 174.928H966.68V178.096H964.904V174.928ZM961.448 171.712V181.312H980.024V171.712H961.448ZM944.888 179.824L945.176 183.76C948.92 183.52 953.48 183.232 958.088 182.848L958.136 179.248C953.192 179.488 948.344 179.728 944.888 179.824ZM943.736 195.664L944.12 199.216C947.144 198.928 950.456 198.592 953.96 198.208L953.864 194.896C950.024 195.184 946.472 195.472 943.736 195.664ZM965.768 189.712V195.424C965.768 198.976 966.488 200.032 969.8 200.032C970.472 200.032 971.96 200.032 972.632 200.032C975.032 200.032 976.088 198.976 976.472 194.8C975.368 194.56 973.736 193.984 972.968 193.36C972.872 196.144 972.728 196.432 972.056 196.432C971.72 196.432 970.712 196.432 970.472 196.432C969.896 196.432 969.8 196.336 969.8 195.424V189.712H965.768ZM961.208 189.664C960.92 192.4 960.248 195.328 959.096 197.2L962.6 198.832C963.944 196.864 964.52 193.648 964.808 190.72L961.208 189.664ZM974.744 190.528C976.328 193.12 977.72 196.528 978.056 198.736L981.896 197.296C981.512 195.04 980.024 191.728 978.392 189.184L974.744 190.528ZM966.488 187.84C968.552 188.896 971.048 190.528 972.2 191.776L974.984 188.944C973.736 187.744 971.144 186.208 969.08 185.296L966.488 187.84ZM957.512 155.248V161.344H963.512V155.248H957.512ZM942.968 158.464V162.88H980.888V158.464H942.968ZM939.368 158.464V173.344C939.368 180.4 939.128 190.432 935.96 197.296C937.112 197.824 939.416 199.456 940.328 200.416C943.928 192.928 944.504 181.072 944.504 173.296V158.464H939.368ZM986.84 160.336V165.28H1003.45V160.336H986.84ZM992.6 193.072V197.728H1004.65V193.072H992.6ZM992.6 185.392V189.76H1004.79V185.392H992.6ZM984.776 169.216V174.208H1009.35V169.216H984.776ZM993.176 155.632V172.528H998.504V155.632H993.176ZM1005.8 157.36C1001.62 168.688 993.848 177.328 983.528 182.224C984.536 183.376 986.216 185.776 986.84 187.024C997.688 181.168 1006.09 171.424 1010.98 158.848L1005.8 157.36ZM994.424 177.76H992.36L989.24 181.072V200.224H994.424V182.368H1004.55V177.76H994.424ZM1002.25 177.76V199.552H1007.72V177.76H1002.25ZM1010.89 157.936V200.272H1016.55V163.312H1025V157.936H1010.89ZM1023.66 157.936V159.904C1022.6 163.36 1020.34 170.656 1018.38 175.36C1022.31 179.056 1023.42 182.608 1023.42 185.248C1023.42 186.88 1023.08 187.984 1022.17 188.512C1021.64 188.8 1020.92 188.944 1020.2 188.944C1019.34 188.992 1018.38 188.944 1017.13 188.848C1018.04 190.384 1018.62 192.88 1018.66 194.416C1020.15 194.512 1021.69 194.464 1022.84 194.32C1024.14 194.176 1025.29 193.744 1026.25 193.072C1028.12 191.824 1028.94 189.472 1028.94 185.872C1028.94 182.704 1028.07 178.912 1024.04 174.64C1025.96 170.368 1028.12 164.896 1029.8 160.288L1025.62 157.696L1024.76 157.936H1023.66ZM1039.69 155.008C1038.68 158.848 1036.71 163.936 1034.98 167.2L1039.98 168.496C1041.8 165.424 1043.96 160.72 1045.69 156.304L1039.69 155.008ZM1032.44 164.848L1032.87 170.32C1038.34 169.984 1045.74 169.552 1052.79 169.024L1052.84 164.032C1045.4 164.368 1037.62 164.704 1032.44 164.848ZM1035.27 172.576V200.272H1040.6V177.328H1050.54V172.576H1035.27ZM1047.8 172.576V194.368C1047.8 194.992 1047.61 195.136 1047.03 195.136C1046.41 195.184 1044.49 195.184 1042.81 195.088C1043.53 196.48 1044.34 198.688 1044.63 200.224C1047.56 200.224 1049.72 200.128 1051.4 199.264C1053.03 198.4 1053.51 196.96 1053.51 194.512V172.576H1047.8ZM1037.72 179.824V184.096H1051.02V179.824H1037.72ZM1037.72 186.88V191.152H1051.02V186.88H1037.72ZM1057.26 155.44V169.936C1057.26 175.264 1058.65 176.896 1064.31 176.896C1065.42 176.896 1069.74 176.896 1070.94 176.896C1075.4 176.896 1076.94 175.168 1077.56 168.928C1075.98 168.592 1073.62 167.728 1072.42 166.816C1072.23 171.04 1071.94 171.76 1070.36 171.76C1069.35 171.76 1065.9 171.76 1065.13 171.76C1063.3 171.76 1063.02 171.52 1063.02 169.84V155.44H1057.26ZM1071.66 158.272C1068.49 160.096 1063.54 162.256 1059.08 163.648C1059.7 164.752 1060.47 166.48 1060.71 167.632C1065.46 166.336 1071.03 164.512 1075.3 162.448L1071.66 158.272ZM1057.26 177.856V193.024C1057.26 198.352 1058.7 199.984 1064.36 199.984C1065.51 199.984 1069.98 199.984 1071.18 199.984C1075.78 199.984 1077.32 198.064 1077.94 191.296C1076.36 190.96 1074.06 190.048 1072.86 189.184C1072.62 194.08 1072.33 194.944 1070.65 194.944C1069.59 194.944 1065.99 194.944 1065.18 194.944C1063.3 194.944 1062.97 194.752 1062.97 192.976V177.856H1057.26ZM1072.04 179.872C1068.78 181.984 1063.64 184.336 1058.98 185.824C1059.56 186.928 1060.38 188.752 1060.66 189.856C1065.61 188.464 1071.42 186.448 1075.78 184.096L1072.04 179.872ZM1046.22 160.288C1048.52 163.888 1050.82 168.688 1051.64 171.76L1056.87 169.648C1055.96 166.48 1053.46 161.92 1051.11 158.464L1046.22 160.288ZM1091.14 176.464V200.464H1096.66V180.832H1114.04V200.464H1119.85V176.464H1091.14ZM1081.59 169.936V174.448H1124.36V169.936H1081.59ZM1084.95 163.504V167.872H1121.72V163.504H1084.95ZM1094.89 182.848V186.496H1116.39V182.848H1094.89ZM1094.89 188.56V192.16H1116.39V188.56H1094.89ZM1094.22 194.368V198.736H1116.39V194.368H1094.22ZM1118.22 155.392C1110.1 156.736 1096.18 157.312 1084.42 157.312C1084.9 158.464 1085.43 160.384 1085.53 161.632C1097.43 161.728 1111.74 161.152 1121.58 159.52L1118.22 155.392ZM1097.77 159.376C1095.51 169.744 1090.23 180.304 1080.06 185.776C1081.21 186.88 1082.89 189.04 1083.66 190.336C1094.74 183.952 1100.5 172.528 1103.77 160.576L1097.77 159.376ZM1128.97 158.272V163.408H1153.45V158.272H1128.97ZM1130.41 181.12V186.256H1151.96V181.12H1130.41ZM1138.38 176.464V195.424L1144.09 194.56V176.464H1138.38ZM1128.44 193.456L1129.3 199.216C1135.88 198.4 1145.1 197.2 1153.69 196.048L1153.54 190.672C1144.57 191.728 1134.82 192.88 1128.44 193.456ZM1128.87 170.656L1129.21 175.984C1134.97 175.744 1142.98 175.408 1150.62 174.976L1150.76 170.032C1142.74 170.32 1134.39 170.56 1128.87 170.656ZM1143.61 166.48C1146.25 169.888 1149.18 174.544 1150.28 177.52L1154.84 174.928C1153.64 171.904 1150.57 167.488 1147.88 164.224L1143.61 166.48ZM1135.78 161.392C1135.02 164.944 1133.43 169.888 1132.04 173.056L1136.89 174.352C1138.47 171.376 1140.34 166.768 1142.02 162.688L1135.78 161.392ZM1155.22 161.104V188.272H1160.74V161.104H1155.22ZM1166.17 156.592V193.408C1166.17 194.272 1165.88 194.512 1165.02 194.56C1164.06 194.56 1161.13 194.608 1158.25 194.464C1159.06 196.096 1159.88 198.688 1160.12 200.32C1164.2 200.32 1167.32 200.128 1169.24 199.216C1171.16 198.304 1171.78 196.72 1171.78 193.456V156.592H1166.17ZM1208.36 173.44C1202.94 176.272 1194.25 179.152 1186.18 180.976C1186.9 182.176 1187.82 184.336 1188.1 185.68C1196.5 183.856 1205.86 181.264 1212.92 178.048L1208.36 173.44ZM1184.89 170.8V190.528C1184.89 197.152 1187.24 199.024 1195.21 199.024C1196.98 199.024 1205.77 199.024 1207.59 199.024C1214.74 199.024 1216.66 196.672 1217.58 188.416C1215.85 188.08 1213.26 187.072 1211.82 186.112C1211.34 192.256 1210.76 193.312 1207.26 193.312C1205.1 193.312 1197.37 193.312 1195.54 193.312C1191.61 193.312 1190.98 192.976 1190.98 190.528V170.8H1184.89ZM1195.64 155.2V163.936H1201.98V155.2H1195.64ZM1178.7 161.248V173.872H1184.46V166.864H1213.11V173.872H1219.16V161.248H1178.7ZM1229.86 163.024V168.064H1239.37V190.288H1229.86V195.376H1244.6V163.024H1229.86ZM1226.5 163.024V198.928H1231.74V163.024H1226.5ZM1229.62 175.84V180.832H1241.91V175.84H1229.62ZM1233.32 155.2C1233.08 157.84 1232.41 161.536 1231.74 164.032L1236.34 165.04C1237.3 162.784 1238.5 159.376 1239.61 156.112L1233.32 155.2ZM1250.94 162.688V167.92H1264.95V162.688H1250.94ZM1262.98 162.688V163.792C1262.46 183.808 1261.83 192.064 1260.3 193.696C1259.67 194.368 1259.14 194.56 1258.18 194.56C1256.98 194.56 1254.1 194.512 1250.98 194.272C1252.04 195.808 1252.81 198.256 1252.9 199.84C1255.69 199.984 1258.62 200.032 1260.44 199.744C1262.41 199.456 1263.75 198.928 1265.1 197.056C1267.06 194.512 1267.64 186.88 1268.26 165.28C1268.31 164.56 1268.31 162.688 1268.31 162.688H1262.98ZM1251.08 155.248C1249.54 161.632 1246.81 168.16 1243.59 172.192C1244.94 172.96 1247.29 174.592 1248.34 175.552C1251.61 170.944 1254.73 163.648 1256.6 156.544L1251.08 155.248ZM1248.73 176.512C1251.03 180.064 1254.06 184.768 1255.35 187.696L1260.25 184.72C1258.76 181.888 1255.59 177.28 1253.24 173.968L1248.73 176.512ZM1284.2 167.536V171.712H1305.56V167.536H1284.2ZM1284.2 174.592V178.72H1305.56V174.592H1284.2ZM1302.97 159.808V193.216C1302.97 194.128 1302.63 194.416 1301.67 194.416C1300.66 194.416 1297.26 194.464 1294.28 194.272C1295.14 195.904 1296.06 198.64 1296.3 200.368C1300.95 200.368 1304.07 200.272 1306.18 199.312C1308.3 198.304 1308.92 196.624 1308.92 193.312V159.808H1302.97ZM1273.35 182.512L1274.17 188.224C1282.52 187.648 1294.47 186.688 1305.66 185.728L1305.75 180.88C1293.99 181.552 1281.22 182.224 1273.35 182.512ZM1311.37 169.696C1303.54 182.272 1289.43 190.48 1272.68 194.704C1273.83 195.952 1275.75 198.592 1276.57 199.984C1293.22 195.04 1308.01 186.208 1316.98 172.384L1311.37 169.696ZM1291.98 155.104C1291.45 157.36 1290.34 160.432 1289.29 162.688L1294.42 163.696C1295.77 161.776 1297.64 158.8 1299.08 155.872L1291.98 155.104ZM1280.5 159.808V185.152H1286.26V164.752H1304.89V159.808H1280.5ZM1320.63 172.096V176.464H1348.62V172.096H1320.63ZM1331.96 169.264V174.544H1337.19V169.264H1331.96ZM1328.98 182.128H1340.22V185.056H1328.98V182.128ZM1324.04 178.432V188.752H1345.45V178.432H1324.04ZM1328.89 164.944H1340.5V166.864H1328.89V164.944ZM1328.89 160.048H1340.5V161.92H1328.89V160.048ZM1323.75 156.832V170.032H1345.83V156.832H1323.75ZM1331.96 186.304V195.28C1331.96 195.808 1331.82 195.904 1331.24 195.904C1330.62 195.952 1328.7 195.952 1326.92 195.856C1327.64 197.056 1328.65 198.928 1328.98 200.272C1331.62 200.272 1333.54 200.224 1335.18 199.504C1336.76 198.784 1337.19 197.632 1337.19 195.424V186.304H1331.96ZM1325.05 189.472C1323.99 191.968 1322.12 194.608 1320.06 196.336C1321.21 197.008 1323.22 198.304 1324.18 199.12C1326.25 197.056 1328.5 193.84 1329.85 190.72L1325.05 189.472ZM1338.68 191.584C1340.46 193.696 1342.57 196.624 1343.53 198.496L1347.99 196.144C1346.94 194.32 1344.73 191.488 1342.95 189.472L1338.68 191.584ZM1358.41 156.016C1355.91 159.664 1351.06 163.408 1346.98 165.52C1348.42 166.576 1350.1 168.352 1351.06 169.6C1355.67 166.864 1360.57 162.736 1363.88 158.224L1358.41 156.016ZM1359.27 169.408C1356.58 173.152 1351.45 176.992 1347.18 179.2C1348.66 180.304 1350.34 182.032 1351.3 183.28C1356.01 180.448 1361.14 176.272 1364.65 171.664L1359.27 169.408ZM1360.28 182.464C1357.35 188.224 1351.54 192.88 1345.45 195.52C1346.89 196.816 1348.62 198.832 1349.48 200.32C1356.39 196.768 1362.25 191.488 1365.99 184.432L1360.28 182.464Z" fill="#424242"/>
<path d="M602.072 246.464V252.368H643.928V246.464H602.072ZM625.256 262.544C630.584 266.624 637.688 272.528 640.856 276.32L645.752 271.904C642.248 268.064 634.856 262.544 629.72 258.8L625.256 262.544ZM623.336 248.624C619.352 257.168 610.856 266.48 600.584 271.328C601.784 272.624 603.608 275.024 604.52 276.56C615.56 270.8 624.296 261.008 629.768 250.88L623.336 248.624ZM619.832 260.24V288.224H626.168V253.952L619.832 260.24ZM654.536 246.176V272.768H660.344V251.696H682.568V272.528H688.616V246.176H654.536ZM657.272 265.664V271.184H684.776V265.664H657.272ZM674.12 277.184C678.632 280.544 684.44 285.392 687.08 288.512L692.36 284.912C689.384 281.696 683.336 277.136 678.968 274.064L674.12 277.184ZM662.264 274.064C659.576 277.52 654.056 281.744 649.064 284.24C650.504 285.248 652.664 287.12 653.912 288.368C658.952 285.536 664.616 280.928 668.504 276.56L662.264 274.064ZM697.784 263.744V268.832H740.312V263.744H697.784ZM719.288 272.432V277.376H737.24V272.432H719.288ZM716.6 266.336V284.096H722.408V266.336H716.6ZM709.16 274.016L704.408 275.552C708.344 285.584 714.92 287.552 725.96 287.552H739.688C739.976 285.872 740.84 283.328 741.656 282.08C738.2 282.176 728.936 282.224 726.296 282.176C717.896 282.128 711.8 281.024 709.16 274.016ZM704.984 269.84C703.88 276.272 700.952 281.36 696.056 284.384C697.304 285.248 699.512 287.36 700.376 288.416C705.704 284.624 709.16 278.576 710.744 270.656L704.984 269.84ZM707.816 255.152H729.848V257.552H707.816V255.152ZM707.816 248.96H729.848V251.36H707.816V248.96ZM702.248 244.88V261.632H735.704V244.88H702.248ZM774.584 249.536H780.632V252.8H774.584V249.536ZM763.928 249.536H769.784V252.8H763.928V249.536ZM753.368 249.536H759.128V252.8H753.368V249.536ZM748.04 245.264V257.12H786.2V245.264H748.04ZM756.44 268.496H777.56V270.8H756.44V268.496ZM756.44 274.256H777.56V276.608H756.44V274.256ZM756.44 262.736H777.56V265.088H756.44V262.736ZM750.68 259.088V280.256H783.608V259.088H750.68ZM769.688 282.8C774.92 284.528 780.248 286.832 783.224 288.368L789.512 285.488C785.816 283.856 779.624 281.552 774.248 279.872L769.688 282.8ZM759.032 279.776C755.672 281.648 749.864 283.376 744.632 284.288C745.928 285.296 747.944 287.36 748.904 288.512C753.896 287.168 760.28 284.768 764.312 282.176L759.032 279.776ZM796.568 272.144V275.984H833.72V272.144H796.568ZM793.016 277.712V281.648H836.984V277.712H793.016ZM812.168 267.68V283.136C812.168 283.76 811.88 283.952 811.112 284C810.392 284 807.512 284 805.256 283.904C805.928 285.152 806.792 287.024 807.08 288.368C810.776 288.368 813.368 288.32 815.288 287.648C817.208 286.976 817.88 285.872 817.88 283.28V267.68H812.168ZM827.768 265.52C820.904 266.672 808.232 267.152 797.576 267.104C798.008 268.016 798.488 269.6 798.536 270.56C809.528 270.656 822.68 270.176 831.464 268.64L827.768 265.52ZM814.712 247.28C819.464 251.024 828.056 254.576 834.488 256.16C835.256 254.672 836.504 252.704 837.656 251.456C830.312 250.112 822.68 247.424 817.112 243.248H811.832C807.704 246.8 799.88 250.16 792.248 251.888C793.208 252.992 794.408 255.104 794.984 256.352C802.424 254.384 810.296 250.784 814.712 247.28ZM804.104 251.6V254.96H826.088V251.6H804.104ZM805.592 259.856H823.928V262.016H805.592V259.856ZM800.264 256.496V265.376H829.64V256.496H800.264ZM858.008 246.944V251.312H871.4V246.944H858.008ZM857.48 270.848V274.4H871.784V270.848H857.48ZM858.152 276.08V279.392H871.256V276.08H858.152ZM856.376 254.048V258.608H885.608V254.048H856.376ZM862.232 243.248V256.256H867.32V243.248H862.232ZM862.04 263.648H867.08V265.856H862.04V263.648ZM857.912 260.144V269.312H871.4V260.144H857.912ZM877.784 246.272C879.224 248.624 880.664 251.696 881.192 253.664L885.656 251.648C885.032 249.68 883.448 246.704 881.96 244.496L877.784 246.272ZM855.944 282.128L856.52 286.352C860.84 285.968 866.312 285.44 871.688 284.912L871.64 280.928C865.832 281.408 860.024 281.84 855.944 282.128ZM880.616 262.448C878.168 272.144 873.368 279.968 866.168 284.576C867.272 285.44 869.192 287.312 869.96 288.272C877.304 282.944 882.632 274.256 885.512 263.504L880.616 262.448ZM862.184 271.856V283.136L867.032 282.752V271.856H862.184ZM872.408 243.248C872.504 271.136 873.368 288.32 880.712 288.32C884.264 288.272 885.752 286.832 886.28 278.48C885.08 278.048 883.544 276.848 882.536 275.744C882.344 281.12 881.96 282.944 881.24 282.944C879.032 282.944 877.208 269.36 877.88 243.248H872.408ZM840.584 282.32L841.736 287.264C846.248 286.4 852.056 285.296 857.528 284.192L857.096 279.44C851.096 280.592 844.76 281.696 840.584 282.32ZM842.984 255.296V259.952H855.8V255.296H842.984ZM841.352 263.408V268.208H856.712V263.408H841.352ZM841.64 271.088C842.312 273.728 842.936 277.232 843.032 279.536L846.584 278.624C846.392 276.368 845.768 272.96 845 270.272L841.64 271.088ZM853.4 269.792C853.112 272.096 852.392 275.504 851.816 277.616L854.936 278.384C855.56 276.368 856.232 273.344 856.952 270.608L853.4 269.792ZM847.016 257.216V282.944L851.624 282.224V257.216H847.016ZM847.448 243.248C846.008 247.04 843.368 251.648 839.432 255.104C840.488 255.872 842.12 257.6 842.84 258.752C847.448 254.432 850.232 249.44 852.008 245.744V244.304H850.424V243.248H847.448ZM847.832 243.248V246.944H848.696C851.048 249.248 853.928 253.472 855.176 255.92L858.776 251.744C857.336 249.248 854.216 245.744 851.672 243.248H847.832ZM900.776 254.048V279.152C900.776 285.824 902.6 287.744 909.08 287.744C910.472 287.744 916.136 287.744 917.576 287.744C923.528 287.744 925.208 284.96 925.976 276.224C924.296 275.888 921.704 274.784 920.36 273.776C919.976 280.64 919.544 281.984 917.096 281.984C915.752 281.984 910.952 281.984 909.8 281.984C907.304 281.984 906.92 281.648 906.92 279.2V254.048H900.776ZM901.352 247.376C905.144 249.968 910.088 253.76 912.824 256.112L916.616 251.36C913.88 249.248 908.984 245.648 905.096 243.2L901.352 247.376ZM893.096 256.256C892.232 261.92 890.456 268.016 888.008 272.192L893.624 274.256C896.024 270.128 897.56 263.312 898.616 257.648L893.096 256.256ZM921.368 261.92C924.248 266.48 927.224 272.672 928.328 276.704L933.896 273.872C932.6 269.84 929.624 263.984 926.6 259.472L921.368 261.92ZM923.672 246.032C917.24 259.568 904.424 273.968 888.152 281.408C889.352 282.56 891.032 284.672 891.896 286.016C909.08 277.568 921.752 263.168 929.48 248.384L923.672 246.032ZM951.848 247.616V252.512H980.936V247.616H951.848ZM957.176 243.248V256.208H962.504V243.248H957.176ZM969.8 243.248V256.4H975.224V243.248H969.8ZM965.864 259.76C968.792 263.936 974.264 268.496 979.208 270.992C979.928 269.36 981.128 267.296 982.184 265.952C977 263.984 971.768 259.664 968.312 254.768H963.032C960.536 259.184 955.16 264.368 949.64 266.912C950.6 268.16 951.704 270.224 952.28 271.568C957.896 268.784 963.176 263.888 965.864 259.76ZM958.616 265.52V270.08H973.544V265.52H958.616ZM957.656 282.08V286.64H974.408V282.08H957.656ZM954.92 273.008V288.32H960.104V277.568H972.056V288.176H977.432V273.008H954.92ZM935.96 266.72L937.208 272.336C941.624 271.04 947.144 269.36 952.328 267.728L951.56 262.64C945.896 264.224 939.944 265.856 935.96 266.72ZM936.92 252.368V257.648H951.752V252.368H936.92ZM942.584 243.296V281.84C942.584 282.512 942.344 282.752 941.72 282.752C941.096 282.752 939.128 282.752 937.256 282.656C937.976 284.24 938.696 286.736 938.888 288.272C942.152 288.272 944.456 288.08 946.04 287.12C947.624 286.208 948.104 284.672 948.104 281.84V243.296H942.584ZM989.864 251.024V256.064H999.368V278.288H989.864V283.376H1004.6V251.024H989.864ZM986.504 251.024V286.928H991.736V251.024H986.504ZM989.624 263.84V268.832H1001.91V263.84H989.624ZM993.32 243.2C993.08 245.84 992.408 249.536 991.736 252.032L996.344 253.04C997.304 250.784 998.504 247.376 999.608 244.112L993.32 243.2ZM1010.94 250.688V255.92H1024.95V250.688H1010.94ZM1022.98 250.688V251.792C1022.46 271.808 1021.83 280.064 1020.3 281.696C1019.67 282.368 1019.14 282.56 1018.18 282.56C1016.98 282.56 1014.1 282.512 1010.98 282.272C1012.04 283.808 1012.81 286.256 1012.9 287.84C1015.69 287.984 1018.62 288.032 1020.44 287.744C1022.41 287.456 1023.75 286.928 1025.1 285.056C1027.06 282.512 1027.64 274.88 1028.26 253.28C1028.31 252.56 1028.31 250.688 1028.31 250.688H1022.98ZM1011.08 243.248C1009.54 249.632 1006.81 256.16 1003.59 260.192C1004.94 260.96 1007.29 262.592 1008.34 263.552C1011.61 258.944 1014.73 251.648 1016.6 244.544L1011.08 243.248ZM1008.73 264.512C1011.03 268.064 1014.06 272.768 1015.35 275.696L1020.25 272.72C1018.76 269.888 1015.59 265.28 1013.24 261.968L1008.73 264.512ZM1043.1 261.968H1032.73V267.296H1037.72V279.632H1043.1V261.968ZM1043.1 277.424H1038.3C1036.28 279.2 1033.98 281.024 1032.06 282.368L1034.79 287.888C1037.05 285.728 1038.97 283.904 1040.79 281.984C1043.67 285.728 1047.61 287.168 1053.46 287.408C1059.46 287.648 1070.12 287.552 1076.26 287.264C1076.5 285.68 1077.37 283.136 1077.99 281.888C1071.18 282.416 1059.37 282.56 1053.42 282.32C1048.47 282.08 1044.97 280.688 1043.1 277.424ZM1032.44 247.232C1034.89 249.68 1037.77 253.184 1038.87 255.488L1043.77 252.272C1042.47 249.92 1039.5 246.656 1036.95 244.352L1032.44 247.232ZM1046.02 262.88V267.056H1075.45V262.88H1046.02ZM1044.58 270.272V274.544H1076.94V270.272H1044.58ZM1052.41 260.336V272.336H1057.83V260.336H1052.41ZM1063.4 260.336V272.336H1068.87V260.336H1063.4ZM1047.32 250.352V254H1059.18V244.736H1045.21V248.336H1054.33V250.352H1047.32ZM1045.88 250.352V255.056C1045.88 258.896 1047.08 260 1051.35 260C1052.26 260 1055.48 260 1056.39 260C1059.32 260 1060.62 259.088 1061.1 255.824C1059.8 255.584 1057.98 254.96 1057.11 254.336C1056.92 255.92 1056.73 256.208 1055.77 256.208C1055.05 256.208 1052.6 256.208 1052.07 256.208C1050.82 256.208 1050.63 256.016 1050.63 255.008V250.352H1045.88ZM1063.11 250.352V254H1075.06V244.736H1060.81V248.336H1070.17V250.352H1063.11ZM1061.67 250.352V255.008C1061.67 258.896 1062.87 260 1067.19 260C1068.1 260 1071.46 260 1072.38 260C1075.35 260 1076.65 259.088 1077.13 255.776C1075.83 255.488 1074.01 254.912 1073.14 254.288C1072.95 255.92 1072.76 256.208 1071.75 256.208C1071.03 256.208 1068.49 256.208 1067.91 256.208C1066.66 256.208 1066.42 256.016 1066.42 255.008V250.352H1061.67ZM1062.58 276.56C1065.75 278.192 1069.16 280.352 1070.94 281.888L1076.89 279.728C1074.49 278.096 1070.26 275.792 1066.81 274.208L1062.58 276.56ZM1054.18 274.208C1052.12 275.84 1048.57 277.376 1045.21 278.384C1046.41 279.152 1048.47 280.88 1049.38 281.84C1052.7 280.496 1056.73 278.288 1059.22 275.984L1054.18 274.208ZM1116.34 248.768H1119.32V251.936H1116.34V248.768ZM1109.05 248.768H1111.98V251.936H1109.05V248.768ZM1101.9 248.768H1104.68V251.936H1101.9V248.768ZM1097.43 244.976V255.728H1124.02V244.976H1097.43ZM1098.01 257.648V261.728H1123.3V257.648H1098.01ZM1095.61 263.936V268.256H1125.42V263.936H1095.61ZM1096.04 271.856V276.128H1124.89V271.856H1096.04ZM1097.29 278.336V282.512H1123.74V278.336H1097.29ZM1107.56 254.72V265.856H1113.03V254.72H1107.56ZM1107.56 273.968V288.56H1113.03V273.968H1107.56ZM1101.27 268.544C1101.8 269.888 1102.33 271.664 1102.52 272.768L1107.42 271.616C1107.18 270.512 1106.5 268.832 1105.98 267.584L1101.27 268.544ZM1115.34 266.912C1114.95 268.304 1114.18 270.32 1113.51 271.76L1117.78 272.912C1118.55 271.712 1119.56 269.984 1120.62 268.16L1115.34 266.912ZM1079.96 267.392L1081.26 272.912C1085.48 271.712 1090.76 270.176 1095.7 268.64L1094.94 263.456C1089.51 264.992 1083.8 266.528 1079.96 267.392ZM1080.73 252.368V257.648H1095.42V252.368H1080.73ZM1085.82 243.296V282.224C1085.82 282.896 1085.58 283.04 1085 283.04C1084.42 283.088 1082.74 283.088 1081.02 282.992C1081.69 284.576 1082.36 286.928 1082.5 288.368C1085.62 288.368 1087.69 288.176 1089.13 287.264C1090.62 286.4 1091.1 284.912 1091.1 282.224V243.296H1085.82ZM1131.46 252.176V257.792H1166.31V252.176H1131.46ZM1147.93 243.248V254.816H1153.83V243.248H1147.93ZM1164.49 252.176V253.568C1160.17 261.488 1150.04 272.432 1140.82 278.336C1142.17 279.344 1143.99 281.12 1144.95 282.368C1154.7 275.888 1165.26 264.8 1171.3 254.624L1166.94 251.84L1165.78 252.176H1164.49ZM1140.92 272.912L1135.93 274.832C1140.78 285.248 1149.03 287.504 1160.79 287.504H1171.59C1171.88 285.824 1172.79 283.136 1173.61 281.792C1170.73 281.888 1163.38 281.888 1161.18 281.888C1152.01 281.888 1144.23 280.496 1140.92 272.912ZM1133.58 288.272C1137.32 282.56 1140.68 275.12 1142.55 270.608L1136.79 268.496C1135.02 273.776 1131.46 280.688 1127.96 284.768L1133.58 288.272ZM1176.82 262.16V268.448H1221.27V262.16H1176.82Z" fill="#424242"/>
</svg>
