<svg width="1440" height="810" viewBox="0 0 1440 810" fill="none" xmlns="http://www.w3.org/2000/svg">
<path d="M567.06 375.24C565.02 383.58 561.36 391.86 556.8 397.02C558.42 398.1 561.3 400.44 562.56 401.7C567.36 395.76 571.62 386.34 574.14 376.86L567.06 375.24ZM565.38 401.94C564 408.6 561.42 415.44 558.06 419.64C559.74 420.54 562.8 422.4 564.18 423.54C567.54 418.68 570.66 411 572.34 403.38L565.38 401.94ZM568.38 385.8L565.68 392.46H592.98V385.8H568.38ZM575.28 388.74V423.3C575.28 424.08 574.98 424.26 574.2 424.26C573.36 424.26 570.84 424.32 568.32 424.2C569.34 426.18 570.42 429.36 570.78 431.46C574.62 431.46 577.56 431.16 579.66 430.02C581.82 428.82 582.42 426.84 582.42 423.36V388.74H575.28ZM584.52 403.5C587.46 409.68 589.98 417.96 590.64 423.36L597.54 420.96C596.7 415.5 594.12 407.52 591 401.34L584.52 403.5ZM591.06 385.8V386.76C590.64 390.96 589.98 396.3 589.44 399.54L595.62 400.62C596.4 397.02 597.48 391.44 598.2 386.52L593.16 385.62L592.02 385.8H591.06ZM554.22 375.3C551.16 383.88 545.94 392.4 540.48 397.86C541.74 399.6 543.66 403.56 544.32 405.3C550.86 398.46 557.1 387.66 561 377.4L554.22 375.3ZM548.4 391.86V431.34H555.3V385.08L555.24 385.02L548.4 391.86ZM610.68 383.46H618.3V391.26H610.68V383.46ZM604.5 377.4V397.32H624.78V377.4H604.5ZM612.48 394.86V421.62H618.78V394.86H612.48ZM604.2 401.58V423.42H609.96V401.58H604.2ZM601.38 422.1L603.12 428.82C609.78 426.84 618.6 424.14 626.82 421.56L625.92 415.62C616.98 418.08 607.44 420.72 601.38 422.1ZM615.42 403.62V409.86H625.86V403.62H615.42ZM628.38 377.46V426.54L635.34 425.04V377.46H628.38ZM632.1 377.46V383.76H648.06V399.48H632.1V405.78H655.08V377.46H632.1ZM632.22 388.32V394.56H650.64V388.32H632.22ZM624.3 423.84L625.92 430.56C631.2 429.36 637.98 427.8 644.28 426.24L643.62 420C636.6 421.44 629.28 423 624.3 423.84ZM644.22 402.18L637.8 403.08C640.2 416.52 644.4 426.42 654.24 431.34C655.2 429.42 657.3 426.6 658.86 425.22C650.22 421.56 646.08 412.86 644.22 402.18ZM652.98 406.44C650.52 408.9 646.26 412.26 643.32 414.12L647.22 418.32C650.34 416.58 654.42 413.94 658.02 411.36L652.98 406.44ZM688.26 393.06V400.32H713.22V393.06H688.26ZM662.58 421.2V428.46H717.42V421.2H662.58ZM684.18 375.78V425.22H691.92V375.78H684.18ZM746.52 395.58V422.88C746.52 423.9 746.04 424.26 744.72 424.26C743.34 424.26 738.42 424.26 734.16 424.08C735.3 426.06 736.68 429.3 737.1 431.4C742.86 431.4 747.18 431.28 750.12 430.2C753.12 429.12 754.14 427.14 754.14 423.06V395.58H746.52ZM726 379.26V386.34H767.94V379.26H726ZM765.24 379.26V381C762.24 385.56 755.16 392.76 748.92 396.72C750.36 397.86 752.7 400.26 753.84 401.82C761.22 397.2 769.14 389.58 774.54 382.98L768.9 378.78L767.16 379.26H765.24ZM787.32 380.34V387H794.64V408.18H787.32V414.84H801.12V380.34H787.32ZM783.72 380.34V419.76H790.08V380.34H783.72ZM808.44 387.06V392.64H834V387.06H808.44ZM808.44 396.18V401.76H834V396.18H808.44ZM804.42 405.36V411.36H832.2V405.36H804.42ZM804.42 377.46V408.6H811.2V383.64H835.68V377.46H804.42ZM817.62 380.82V408.12H824.22V380.82H817.62ZM830.82 405.36V406.44C830.34 418.98 829.74 423.6 828.84 424.68C828.36 425.34 827.82 425.46 827.04 425.46C826.14 425.46 824.46 425.4 822.54 425.22C823.44 426.9 824.1 429.48 824.22 431.34C826.74 431.4 829.08 431.34 830.46 431.16C832.08 430.86 833.28 430.44 834.42 429C835.92 427.02 836.64 421.5 837.24 407.94C837.3 407.16 837.36 405.36 837.36 405.36H830.82ZM802.5 413.4C801.84 418.32 800.46 423.6 798.18 426.96L803.34 429.54C805.86 425.94 807.06 420.06 807.78 414.9L802.5 413.4ZM809.1 414.6C809.94 418.56 810.42 423.66 810.18 426.96L815.16 426.12C815.28 422.82 814.8 417.78 813.84 413.88L809.1 414.6ZM815.76 414.18C817.08 417.54 818.22 421.92 818.46 424.86L823.08 423.42C822.72 420.6 821.52 416.22 820.08 412.92L815.76 414.18ZM822.3 413.34C823.74 415.92 825.06 419.4 825.54 421.74L829.68 420.24C829.08 417.96 827.7 414.54 826.2 411.96L822.3 413.34ZM865.38 410.58H873.18C872.22 402.3 885.36 401.22 885.36 392.46C885.36 384.48 879 380.4 870.3 380.4C863.88 380.4 858.6 383.34 854.76 387.78L859.68 392.28C862.62 389.22 865.62 387.54 869.28 387.54C874.02 387.54 876.9 389.58 876.9 393.24C876.9 399.06 864.12 401.16 865.38 410.58ZM869.34 426.6C872.34 426.6 874.62 424.38 874.62 421.26C874.62 418.14 872.34 415.98 869.34 415.98C866.28 415.98 864 418.14 864 421.26C864 424.38 866.22 426.6 869.34 426.6Z" fill="#424242"/>
</svg>
