<svg width="1440" height="810" viewBox="0 0 1440 810" fill="none" xmlns="http://www.w3.org/2000/svg">
<rect x="427" y="445" width="196" height="34" fill="#C3DBD8"/>
<rect x="716" y="313" width="262" height="30" fill="#C3DBD8"/>
<path d="M432.016 450.584V455.144H475.984V450.584H432.016ZM433.36 423.32V427.688H474.256V423.32H433.36ZM459.616 447.8V459.608C459.616 460.184 459.376 460.376 458.608 460.424C457.84 460.424 455.056 460.424 452.752 460.328C453.472 461.72 454.192 463.832 454.384 465.32C458.08 465.32 460.768 465.272 462.736 464.552C464.656 463.784 465.184 462.392 465.184 459.8V447.8H459.616ZM451.072 420.248V446.12H456.736V420.248H451.072ZM439.696 456.776C442.336 458.6 445.504 461.336 446.944 463.208L451.168 459.56C449.632 457.688 446.272 455.144 443.632 453.464L439.696 456.776ZM442.576 437.96H465.616V439.784H442.576V437.96ZM442.576 432.872H465.616V434.696H442.576V432.872ZM437.152 429.416V443.288H471.28V429.416H437.152ZM460.768 444.056C464.272 445.544 468.496 448.184 470.752 450.104L474.208 447.176C471.904 445.4 467.68 442.904 464.128 441.464L460.768 444.056ZM434.08 445.064L434.272 449.192C443.488 449.096 457.216 448.856 470.08 448.472L470.32 444.92C457.072 445.064 442.912 445.112 434.08 445.064ZM483.712 422.504V436.568C483.712 444.152 483.328 454.904 478.912 462.248C480.304 462.776 482.8 464.12 483.856 465.032C488.56 457.16 489.328 444.824 489.328 436.568V422.504H483.712ZM487.6 422.504V426.2H516.16V428.168H487.6V431.864H521.776V422.504H487.6ZM503.248 432.44V439.304H508.576V432.44H503.248ZM500.224 450.056V461.96H505.072V450.056H500.224ZM491.344 433.064V435.416H501.424V433.064H491.344ZM495.472 448.136V451.352H519.088V448.136H495.472ZM491.296 436.712V439.064H501.424V436.712H491.296ZM510.448 433.064V435.416H520.96V433.064H510.448ZM510.4 436.712V439.064H521.008V436.712H510.4ZM512.176 442.712H516.304V444.536H512.176V442.712ZM503.728 442.712H507.808V444.536H503.728V442.712ZM495.472 442.712H499.408V444.536H495.472V442.712ZM490.912 440.408V446.84H521.056V440.408H490.912ZM517.168 448.136V448.904C516.88 457.16 516.448 460.088 515.92 460.904C515.584 461.336 515.296 461.384 514.768 461.384C514.192 461.384 513.28 461.384 512.08 461.24C512.704 462.344 513.136 464.072 513.232 465.32C514.912 465.368 516.544 465.32 517.552 465.176C518.608 465.032 519.568 464.648 520.384 463.64C521.44 462.344 521.92 458.888 522.256 449.96C522.304 449.336 522.352 448.136 522.352 448.136H517.168ZM496.672 454.904H508.624V456.488H496.672V454.904ZM492.544 452.648V458.744H512.992V452.648H492.544ZM495.904 445.304C494.224 447.896 491.152 450.776 486.784 452.936C487.936 453.56 489.568 455.144 490.384 456.2C495.136 453.416 498.448 450.056 500.992 446.264L495.904 445.304ZM489.616 460.568L489.952 464.264C495.664 464.072 503.536 463.736 511.168 463.304L511.264 460.04C503.296 460.28 495.088 460.472 489.616 460.568ZM507.568 459.32C508.912 460.904 510.352 463.16 510.88 464.6L514.528 463.112C513.952 461.576 512.416 459.464 510.976 457.928L507.568 459.32ZM555.616 420.248V454.136H561.04V420.248H555.616ZM541.408 439.544L543.568 444.632L568.384 433.88L566.272 428.984L541.408 439.544ZM546.16 424.904V455.96C546.16 462.632 547.984 464.36 554.56 464.36C556.048 464.36 563.248 464.36 564.832 464.36C570.448 464.36 572.176 462.104 572.896 455.288C571.36 455 569.104 454.088 567.856 453.224C567.472 458.168 566.992 459.224 564.352 459.224C562.864 459.224 556.48 459.224 555.04 459.224C552.064 459.224 551.632 458.84 551.632 456.008V424.904H546.16ZM565.168 429.608C565.168 440.216 565.168 445.448 564.976 446.408C564.832 447.272 564.544 447.416 563.968 447.416C563.536 447.416 562.432 447.416 561.616 447.368C562.24 448.568 562.672 450.728 562.864 452.168C564.4 452.168 566.464 452.168 567.856 451.496C569.344 450.872 570.16 449.72 570.352 447.512C570.544 445.544 570.64 439.736 570.64 430.568L570.88 429.608L566.848 428.168L565.84 428.888L564.832 429.608H565.168ZM527.632 431.384V436.808H543.472V431.384H527.632ZM533.2 420.92V452.744H538.576V420.92H533.2ZM526.96 452.792L529.264 458.552C533.728 456.536 539.248 453.944 544.336 451.352L543.04 446.264C537.184 448.76 530.944 451.352 526.96 452.792ZM592.816 431H602.704V432.92H592.816V431ZM588.256 428.12V435.8H607.552V428.12H588.256ZM590.992 444.92H604.576V454.136H590.992V444.92ZM586.624 441.8V457.304H609.232V441.8H586.624ZM596.032 448.712H599.44V450.344H596.032V448.712ZM592.96 446.312V452.744H602.752V446.312H592.96ZM584.368 437.24V440.36H611.68V437.24H584.368ZM595.312 433.928V438.632H600.16V433.928H595.312ZM577.408 421.88V465.32H582.784V426.584H613.12V465.32H618.736V421.88H577.408ZM580.816 458.888V463.64H615.952V458.888H580.816ZM625.168 439.304V449.768H630.496V443.96H661.552V449.768H667.168V439.304H625.168ZM638.992 420.872V437.48H653.248V420.872H648.016V433.256H643.984V420.872H638.992ZM624.592 425.48V429.944H667.552V425.48H624.592ZM655.936 420.776V432.344C655.936 436.616 656.8 437.96 660.736 437.96C661.504 437.96 662.896 437.96 663.664 437.96C666.544 437.96 667.792 436.616 668.272 432.104C666.88 431.816 664.912 431.048 663.904 430.328C663.808 433.16 663.664 433.688 663.04 433.688C662.8 433.688 661.984 433.688 661.744 433.688C661.168 433.688 661.072 433.544 661.072 432.344V420.776H655.936ZM631.12 420.776V427.256C631.12 429.992 630.352 433.496 624.928 435.368C626.032 436.232 627.472 437.912 628.144 439.016C634.672 436.232 636.304 431.528 636.304 427.256V420.776H631.12ZM642.928 443.192V465.32H648.592V443.192H642.928ZM629.872 447.56V462.488H635.44V452.12H659.104V447.56H629.872ZM656.896 447.56V457.208C656.896 457.736 656.704 457.88 655.984 457.88C655.36 457.88 652.768 457.88 650.656 457.784C651.376 459.176 652.192 461.288 652.432 462.776C655.84 462.776 658.336 462.728 660.208 461.96C662.032 461.192 662.56 459.752 662.56 457.304V447.56H656.896ZM691.648 420.392C690.016 427.064 687.088 433.688 683.44 437.816C684.736 438.68 687.04 440.552 688.048 441.56C691.888 436.808 695.296 429.272 697.312 421.688L691.648 420.392ZM690.304 441.752C689.2 447.08 687.136 452.552 684.448 455.912C685.792 456.632 688.24 458.12 689.344 459.032C692.032 455.144 694.528 449 695.872 442.904L690.304 441.752ZM692.704 428.84L690.544 434.168H712.384V428.84H692.704ZM698.224 431.192V458.84C698.224 459.464 697.984 459.608 697.36 459.608C696.688 459.608 694.672 459.656 692.656 459.56C693.472 461.144 694.336 463.688 694.624 465.368C697.696 465.368 700.048 465.128 701.728 464.216C703.456 463.256 703.936 461.672 703.936 458.888V431.192H698.224ZM705.616 443C707.968 447.944 709.984 454.568 710.512 458.888L716.032 456.968C715.36 452.6 713.296 446.216 710.8 441.272L705.616 443ZM710.848 428.84V429.608C710.512 432.968 709.984 437.24 709.552 439.832L714.496 440.696C715.12 437.816 715.984 433.352 716.56 429.416L712.528 428.696L711.616 428.84H710.848ZM681.376 420.44C678.928 427.304 674.752 434.12 670.384 438.488C671.392 439.88 672.928 443.048 673.456 444.44C678.688 438.968 683.68 430.328 686.8 422.12L681.376 420.44ZM676.72 433.688V465.272H682.24V428.264L682.192 428.216L676.72 433.688ZM719.968 423.272V428.408H744.448V423.272H719.968ZM721.408 446.12V451.256H742.96V446.12H721.408ZM729.376 441.464V460.424L735.088 459.56V441.464H729.376ZM719.44 458.456L720.304 464.216C726.88 463.4 736.096 462.2 744.688 461.048L744.544 455.672C735.568 456.728 725.824 457.88 719.44 458.456ZM719.872 435.656L720.208 440.984C725.968 440.744 733.984 440.408 741.616 439.976L741.76 435.032C733.744 435.32 725.392 435.56 719.872 435.656ZM734.608 431.48C737.248 434.888 740.176 439.544 741.28 442.52L745.84 439.928C744.64 436.904 741.568 432.488 738.88 429.224L734.608 431.48ZM726.784 426.392C726.016 429.944 724.432 434.888 723.04 438.056L727.888 439.352C729.472 436.376 731.344 431.768 733.024 427.688L726.784 426.392ZM746.224 426.104V453.272H751.744V426.104H746.224ZM757.168 421.592V458.408C757.168 459.272 756.88 459.512 756.016 459.56C755.056 459.56 752.128 459.608 749.248 459.464C750.064 461.096 750.88 463.688 751.12 465.32C755.2 465.32 758.32 465.128 760.24 464.216C762.16 463.304 762.784 461.72 762.784 458.456V421.592H757.168ZM781.696 429.608V434.648H793.984V429.608H781.696ZM800.128 454.664V459.752H808.432V454.664H800.128ZM798.304 425.624V463.496H802.864V430.712H806.368V463.112H811.168V425.624H798.304ZM792.16 429.608V430.76C791.68 450.68 791.2 457.4 790.24 458.84C789.808 459.56 789.472 459.704 788.848 459.704C788.128 459.704 787.024 459.704 785.728 459.56C786.496 461 786.976 463.16 787.024 464.648C788.752 464.744 790.336 464.696 791.488 464.456C792.832 464.168 793.696 463.688 794.608 462.2C796.048 460.136 796.48 452.84 797.008 431.96C797.056 431.288 797.056 429.608 797.056 429.608H792.16ZM784.624 420.44C784.576 440.072 784.912 453.752 777.76 461.864C778.96 462.632 780.688 464.36 781.456 465.608C789.424 456.536 789.424 441.272 789.52 420.44H784.624ZM771.664 423.464V428.024H776.08V449.336H771.664V453.896H780.496V423.464H771.664ZM768.928 423.464V458.024H773.296V423.464H768.928ZM846.784 420.584V465.272H852.352V420.584H846.784ZM831.616 427.688V432.92H841.744V427.688H831.616ZM849.568 427.688V432.92H860.032V427.688H849.568ZM849.904 437.576V442.712H859.264V437.576H849.904ZM849.616 447.464V452.648H860.56V447.464H849.616ZM831.952 437.576V442.712H840.976V437.576H831.952ZM829.456 450.008L831.664 455.24C835.888 453.656 841.072 451.688 846.016 449.672L845.248 445.352C839.488 447.128 833.344 449 829.456 450.008ZM838.624 420.68V442.52C838.624 449.48 837.664 457.304 830.128 461.768C831.376 462.584 833.44 464.456 834.304 465.512C842.704 460.472 844.096 451.448 844.096 442.568V420.68H838.624ZM819.952 424.664V429.896H825.424V446.408H819.952V451.592H830.56V424.664H819.952ZM816.976 424.664V455.768H822.064V424.664H816.976ZM872.512 429.944V433.496H887.872V429.944H872.512ZM875.68 435.176V437.96H884.512V435.176H875.68ZM875.68 439.784V442.616H884.512V439.784H875.68ZM872.032 450.008V453.224H880.816V450.008H872.032ZM872.08 455.096V458.216H880.768V455.096H872.08ZM888.208 430.952V434.84H907.312V430.952H888.208ZM887.488 447.896V451.688H908.32V447.896H887.488ZM895.072 428.792V438.968H899.872V428.792H895.072ZM874.192 431.912V446.216H878.224V431.912H874.192ZM874.672 451.448V461.672H878.224V451.448H874.672ZM881.776 431.864V465.32H886.048V431.864H881.776ZM901.552 439.928H903.52V443.096H901.552V439.928ZM896.656 439.928H898.576V443.096H896.656V439.928ZM891.904 439.928H893.68V443.096H891.904V439.928ZM888.448 436.712V446.312H907.024V436.712H888.448ZM871.888 444.824L872.176 448.76C875.92 448.52 880.48 448.232 885.088 447.848L885.136 444.248C880.192 444.488 875.344 444.728 871.888 444.824ZM870.736 460.664L871.12 464.216C874.144 463.928 877.456 463.592 880.96 463.208L880.864 459.896C877.024 460.184 873.472 460.472 870.736 460.664ZM892.768 454.712V460.424C892.768 463.976 893.488 465.032 896.8 465.032C897.472 465.032 898.96 465.032 899.632 465.032C902.032 465.032 903.088 463.976 903.472 459.8C902.368 459.56 900.736 458.984 899.968 458.36C899.872 461.144 899.728 461.432 899.056 461.432C898.72 461.432 897.712 461.432 897.472 461.432C896.896 461.432 896.8 461.336 896.8 460.424V454.712H892.768ZM888.208 454.664C887.92 457.4 887.248 460.328 886.096 462.2L889.6 463.832C890.944 461.864 891.52 458.648 891.808 455.72L888.208 454.664ZM901.744 455.528C903.328 458.12 904.72 461.528 905.056 463.736L908.896 462.296C908.512 460.04 907.024 456.728 905.392 454.184L901.744 455.528ZM893.488 452.84C895.552 453.896 898.048 455.528 899.2 456.776L901.984 453.944C900.736 452.744 898.144 451.208 896.08 450.296L893.488 452.84ZM884.512 420.248V426.344H890.512V420.248H884.512ZM869.968 423.464V427.88H907.888V423.464H869.968ZM866.368 423.464V438.344C866.368 445.4 866.128 455.432 862.96 462.296C864.112 462.824 866.416 464.456 867.328 465.416C870.928 457.928 871.504 446.072 871.504 438.296V423.464H866.368ZM935.056 432.92H948.4V435.56H935.056V432.92ZM935.056 426.488H948.4V429.08H935.056V426.488ZM929.872 422.408V439.688H953.824V422.408H929.872ZM933.472 438.44C931.792 442.616 928.384 447.128 922.816 450.392C923.968 451.16 925.696 453.128 926.416 454.424C932.8 450.296 936.592 445.016 939.04 439.352L933.472 438.44ZM934.864 442.376L931.6 447.08H951.904V442.376H934.864ZM949.936 442.376V443.288C949.6 455.144 949.168 459.368 948.4 460.376C947.968 460.904 947.584 461.048 946.96 461.048C946.192 461.048 944.752 461 943.168 460.808C943.792 462.056 944.368 463.976 944.416 465.272C946.576 465.32 948.496 465.32 949.744 465.128C951.088 464.936 952.144 464.504 953.056 463.304C954.304 461.672 954.832 457.064 955.264 444.488C955.312 443.816 955.312 442.376 955.312 442.376H949.936ZM929.632 447.896V456.872C929.632 461.336 930.688 462.728 935.584 462.728C936.544 462.728 940.48 462.728 941.488 462.728C944.944 462.728 946.288 461.576 946.912 457.16C945.52 456.872 943.504 456.104 942.544 455.336C942.4 457.832 942.16 458.216 940.96 458.216C940.048 458.216 936.928 458.216 936.256 458.216C934.672 458.216 934.432 458.024 934.432 456.776V447.896H929.632ZM941.632 448.472C939.424 449.96 935.536 451.544 932.032 452.552C932.608 453.512 933.328 455.096 933.568 456.008C937.504 455.048 942.064 453.608 945.52 451.784L941.632 448.472ZM916.288 425.048V430.232H921.856V447.176H916.288V452.456H926.704V425.048H916.288ZM913.072 425.048V456.44H918.064V425.048H913.072ZM960.16 423.128V428.168H1004.03V423.128H960.16ZM973.072 420.248V435.032H990.256V420.248H985.024V430.856H978.112V420.248H973.072ZM966.976 432.872V452.792H972.064V432.872H966.976ZM960.832 436.088V440.936H969.664V436.088H960.832ZM959.728 447.08L960.784 452.024C963.664 451.064 966.736 450.008 969.76 448.904L969.088 444.536C965.536 445.496 962.224 446.504 959.728 447.08ZM991.312 432.92V446.312C991.312 450.824 992.176 452.264 996.304 452.264C997.024 452.264 998.704 452.264 999.52 452.264C1002.59 452.264 1003.84 450.68 1004.32 445.352C1002.98 445.016 1000.91 444.248 999.952 443.432C999.808 447.128 999.616 447.752 998.896 447.752C998.608 447.752 997.504 447.752 997.216 447.752C996.592 447.752 996.496 447.608 996.496 446.264V432.92H991.312ZM1000.58 434.888C998.8 436.424 995.968 438.248 993.424 439.496C994 440.504 994.72 442.184 995.008 443.24C997.792 442.136 1001.2 440.6 1004.08 438.92L1000.58 434.888ZM979.216 441.368H983.968V447.128H979.216V441.368ZM974.56 437.24V451.304H988.864V437.24H974.56ZM973.888 455.24C974.464 458.36 974.848 462.392 974.848 464.888L980.512 464.024C980.464 461.624 979.888 457.64 979.216 454.616L973.888 455.24ZM983.44 455.336C984.592 458.408 985.696 462.44 986.032 464.888L991.792 463.736C991.36 461.24 990.112 457.352 988.864 454.424L983.44 455.336ZM993.088 455.048C995.344 458.264 998.032 462.68 999.088 465.368L1004.8 462.92C1003.55 460.184 1000.67 455.96 998.416 452.936L993.088 455.048ZM965.152 453.368C963.904 456.968 961.552 460.76 959.2 462.824L964.624 465.176C967.216 462.584 969.472 458.6 970.72 454.76L965.152 453.368ZM1008.93 424.328V429.32H1051.12V424.328H1008.93ZM1036.86 446.504V447.272C1033.02 455.432 1022.03 459.224 1009.6 460.472C1010.51 461.72 1011.57 463.928 1012 465.368C1025.54 463.496 1037.34 458.984 1042.53 448.136L1038.93 446.312L1037.97 446.504H1036.86ZM1026.06 443.144C1023.14 446.504 1017.95 450.056 1011.04 452.648C1012.24 453.416 1013.92 455.192 1014.74 456.392C1022.08 453.176 1027.55 449.192 1031.82 444.44L1026.06 443.144ZM1025.06 446.504L1020.88 450.68H1038.69V446.504H1025.06ZM1027.07 420.2V443.144H1032.59V420.2H1027.07ZM1027.41 432.248C1023.47 438.44 1015.55 443.624 1006.96 445.928C1008.06 446.984 1009.55 449 1010.27 450.296C1019.25 447.368 1027.02 441.416 1031.63 433.832L1027.41 432.248ZM1032.35 432.296L1028.08 434.024C1032.88 441.464 1040.9 447.656 1049.58 450.728C1050.35 449.384 1051.94 447.32 1053.09 446.264C1044.54 443.768 1036.43 438.392 1032.35 432.296ZM1016.46 429.128C1015.07 433.064 1012.1 436.424 1008.26 438.488C1009.36 439.208 1011.23 440.84 1012.05 441.752C1016.03 439.16 1019.49 435.08 1021.31 430.088L1016.46 429.128ZM1015.31 435.464C1017.14 436.664 1019.58 438.392 1020.74 439.496L1023.76 435.848C1022.51 434.792 1020.02 433.208 1018.19 432.2L1015.31 435.464ZM1040.22 429.176C1039.12 432.2 1036.96 435.032 1034.32 436.856C1035.42 437.624 1037.25 439.256 1038.11 440.168C1040.94 437.864 1043.54 434.216 1044.98 430.376L1040.22 429.176ZM1039.12 435.272C1042.24 437.144 1046.37 440.024 1048.38 441.8L1051.41 438.152C1049.3 436.424 1045.07 433.784 1042.05 432.056L1039.12 435.272ZM1020.16 455.384C1028.03 458.12 1038.88 462.584 1044.11 465.464L1049.15 461.48C1043.15 458.504 1032.21 454.376 1024.82 451.976L1020.16 455.384ZM1055.78 429.8V435.128H1071.33V429.8H1055.78ZM1062.26 420.248C1060.77 429.8 1058.13 442.472 1056.06 450.056L1060.77 452.552C1063.02 443.912 1065.81 431.048 1067.68 420.824L1062.26 420.248ZM1058.61 449.288C1063.17 452.264 1068.69 456.824 1071.14 460.136L1074.54 455.528C1072 452.264 1066.29 448.04 1061.73 445.208L1058.61 449.288ZM1069.31 429.8V430.856C1068.4 446.024 1064.08 456.632 1055.87 460.904C1057.02 462.008 1058.56 464.072 1059.33 465.464C1068.93 459.608 1073.58 449 1074.74 430.232L1071.28 429.656L1070.27 429.8H1069.31ZM1074.5 422.792V427.976H1090.19V422.792H1074.5ZM1090.58 436.04L1089.86 441.224H1096.77V436.04H1090.58ZM1094.85 436.04V437.048C1094.37 451.976 1093.7 457.832 1092.54 459.128C1092.02 459.704 1091.54 459.8 1090.72 459.8C1089.71 459.8 1087.5 459.8 1085.2 459.608C1086.11 461.096 1086.78 463.4 1086.88 464.984C1089.38 465.128 1091.78 465.128 1093.31 464.888C1094.99 464.648 1096.14 464.168 1097.34 462.632C1098.98 460.664 1099.55 454.472 1100.18 438.392C1100.22 437.72 1100.27 436.04 1100.27 436.04H1094.85ZM1078.77 424.568C1078.67 438.728 1078.82 452.984 1071.9 461.576C1073.34 462.44 1075.17 464.12 1076.08 465.416C1083.76 455.672 1084.24 440.072 1084.43 424.568H1078.77ZM1088.75 422.792C1088.51 429.272 1087.79 437.624 1086.98 442.856L1092.21 443.24C1092.93 437.96 1093.65 429.512 1094.03 422.792H1088.75Z" fill="#424242"/>
<path d="M405.109 309.141V310.758C405.109 313.352 404.758 315.68 404.055 317.742C403.352 319.805 402.359 321.562 401.078 323.016C399.797 324.453 398.266 325.555 396.484 326.32C394.719 327.086 392.758 327.469 390.602 327.469C388.461 327.469 386.5 327.086 384.719 326.32C382.953 325.555 381.422 324.453 380.125 323.016C378.828 321.562 377.82 319.805 377.102 317.742C376.398 315.68 376.047 313.352 376.047 310.758V309.141C376.047 306.531 376.398 304.203 377.102 302.156C377.805 300.094 378.797 298.336 380.078 296.883C381.375 295.43 382.906 294.32 384.672 293.555C386.453 292.789 388.414 292.406 390.555 292.406C392.711 292.406 394.672 292.789 396.438 293.555C398.219 294.32 399.75 295.43 401.031 296.883C402.328 298.336 403.328 300.094 404.031 302.156C404.75 304.203 405.109 306.531 405.109 309.141ZM398.008 310.758V309.094C398.008 307.281 397.844 305.688 397.516 304.312C397.188 302.938 396.703 301.781 396.062 300.844C395.422 299.906 394.641 299.203 393.719 298.734C392.797 298.25 391.742 298.008 390.555 298.008C389.367 298.008 388.312 298.25 387.391 298.734C386.484 299.203 385.711 299.906 385.07 300.844C384.445 301.781 383.969 302.938 383.641 304.312C383.312 305.688 383.148 307.281 383.148 309.094V310.758C383.148 312.555 383.312 314.148 383.641 315.539C383.969 316.914 384.453 318.078 385.094 319.031C385.734 319.969 386.516 320.68 387.438 321.164C388.359 321.648 389.414 321.891 390.602 321.891C391.789 321.891 392.844 321.648 393.766 321.164C394.688 320.68 395.461 319.969 396.086 319.031C396.711 318.078 397.188 316.914 397.516 315.539C397.844 314.148 398.008 312.555 398.008 310.758ZM423.438 321.281V309.984C423.438 309.172 423.305 308.477 423.039 307.898C422.773 307.305 422.359 306.844 421.797 306.516C421.25 306.188 420.539 306.023 419.664 306.023C418.914 306.023 418.266 306.156 417.719 306.422C417.172 306.672 416.75 307.039 416.453 307.523C416.156 307.992 416.008 308.547 416.008 309.188H409.258C409.258 308.109 409.508 307.086 410.008 306.117C410.508 305.148 411.234 304.297 412.188 303.562C413.141 302.812 414.273 302.227 415.586 301.805C416.914 301.383 418.398 301.172 420.039 301.172C422.008 301.172 423.758 301.5 425.289 302.156C426.82 302.812 428.023 303.797 428.898 305.109C429.789 306.422 430.234 308.062 430.234 310.031V320.883C430.234 322.273 430.32 323.414 430.492 324.305C430.664 325.18 430.914 325.945 431.242 326.602V327H424.422C424.094 326.312 423.844 325.453 423.672 324.422C423.516 323.375 423.438 322.328 423.438 321.281ZM424.328 311.555L424.375 315.375H420.602C419.711 315.375 418.938 315.477 418.281 315.68C417.625 315.883 417.086 316.172 416.664 316.547C416.242 316.906 415.93 317.328 415.727 317.812C415.539 318.297 415.445 318.828 415.445 319.406C415.445 319.984 415.578 320.508 415.844 320.977C416.109 321.43 416.492 321.789 416.992 322.055C417.492 322.305 418.078 322.43 418.75 322.43C419.766 322.43 420.648 322.227 421.398 321.82C422.148 321.414 422.727 320.914 423.133 320.32C423.555 319.727 423.773 319.164 423.789 318.633L425.57 321.492C425.32 322.133 424.977 322.797 424.539 323.484C424.117 324.172 423.578 324.82 422.922 325.43C422.266 326.023 421.477 326.516 420.555 326.906C419.633 327.281 418.539 327.469 417.273 327.469C415.664 327.469 414.203 327.148 412.891 326.508C411.594 325.852 410.562 324.953 409.797 323.812C409.047 322.656 408.672 321.344 408.672 319.875C408.672 318.547 408.922 317.367 409.422 316.336C409.922 315.305 410.656 314.438 411.625 313.734C412.609 313.016 413.836 312.477 415.305 312.117C416.773 311.742 418.477 311.555 420.414 311.555H424.328ZM447.859 301.641V306.422H433.094V301.641H447.859ZM436.75 295.383H443.5V319.359C443.5 320.094 443.594 320.656 443.781 321.047C443.984 321.438 444.281 321.711 444.672 321.867C445.062 322.008 445.555 322.078 446.148 322.078C446.57 322.078 446.945 322.062 447.273 322.031C447.617 321.984 447.906 321.938 448.141 321.891L448.164 326.859C447.586 327.047 446.961 327.195 446.289 327.305C445.617 327.414 444.875 327.469 444.062 327.469C442.578 327.469 441.281 327.227 440.172 326.742C439.078 326.242 438.234 325.445 437.641 324.352C437.047 323.258 436.75 321.82 436.75 320.039V295.383ZM458.828 291V327H452.055V291H458.828ZM471.93 324.141L478.656 301.641H485.898L475.703 330.82C475.484 331.461 475.188 332.148 474.812 332.883C474.453 333.617 473.961 334.312 473.336 334.969C472.727 335.641 471.953 336.188 471.016 336.609C470.094 337.031 468.961 337.242 467.617 337.242C466.977 337.242 466.453 337.203 466.047 337.125C465.641 337.047 465.156 336.938 464.594 336.797V331.852C464.766 331.852 464.945 331.852 465.133 331.852C465.32 331.867 465.5 331.875 465.672 331.875C466.562 331.875 467.289 331.773 467.852 331.57C468.414 331.367 468.867 331.055 469.211 330.633C469.555 330.227 469.828 329.695 470.031 329.039L471.93 324.141ZM469.117 301.641L474.625 320.016L475.586 327.164L470.992 327.656L461.875 301.641H469.117ZM507.185 290.52V295.752H530.321V290.52H507.185ZM504.305 299.832V305.16H532.433V299.832H504.305ZM505.361 309.48V314.808H531.953V309.48H505.361ZM515.729 286.2V302.76H521.441V286.2H515.729ZM521.441 304.584V324.792C521.441 325.464 521.201 325.608 520.433 325.608C519.617 325.656 516.977 325.656 514.625 325.56C515.393 327.144 516.161 329.592 516.353 331.272C520.001 331.272 522.737 331.128 524.657 330.264C526.577 329.4 527.153 327.816 527.153 324.888V304.584H521.441ZM507.041 317.4C509.105 319.704 511.553 322.872 512.561 324.984L517.121 322.008C515.969 319.896 513.425 316.872 511.313 314.76L507.041 317.4ZM487.217 311.832L488.609 317.352C493.697 315.864 500.273 313.896 506.321 311.976L505.553 306.936C498.929 308.808 491.921 310.776 487.217 311.832ZM495.857 286.248V331.32H501.137V286.248H495.857ZM489.521 288.744C489.089 294.408 488.273 300.408 486.737 304.296C487.889 304.872 489.953 306.168 490.817 306.888C492.545 302.568 493.697 295.896 494.321 289.56L489.521 288.744ZM490.817 295.32L489.761 300.792H505.121V295.32H490.817ZM561.425 292.104V319.272H567.041V292.104H561.425ZM572.753 287.208V324.312C572.753 325.224 572.369 325.512 571.457 325.512C570.449 325.56 567.377 325.56 564.209 325.416C565.025 327.048 565.937 329.736 566.225 331.368C570.641 331.368 573.809 331.176 575.825 330.264C577.793 329.304 578.465 327.72 578.465 324.36V287.208H572.753ZM544.433 309.192V314.232H555.473V309.192H544.433ZM552.929 309.192V310.056C552.545 320.76 552.113 324.84 551.297 325.8C550.865 326.28 550.385 326.376 549.665 326.376C548.801 326.376 546.929 326.376 544.913 326.184C545.777 327.528 546.353 329.64 546.449 331.176C548.753 331.224 550.961 331.224 552.257 331.032C553.793 330.792 554.897 330.408 555.857 329.16C557.201 327.528 557.681 322.92 558.161 311.304C558.209 310.632 558.257 309.192 558.257 309.192H552.929ZM543.185 293.544H552.257V300.12H543.185V293.544ZM538.001 288.504V305.256H557.777V288.504H538.001ZM542.849 303.672C542.513 312.12 541.841 321.624 535.073 327.192C536.465 328.104 538.097 329.928 538.961 331.368C546.737 324.744 547.985 313.848 548.513 303.672H542.849ZM592.817 295.56V299.448H603.953V295.56H592.817ZM592.673 325.608V329.736H606.929V325.608H592.673ZM590.177 306.936V310.344H605.537V306.936H590.177ZM587.873 301.176V308.136C587.873 313.608 587.345 321.336 583.073 326.856C584.081 327.48 586.145 329.352 586.913 330.36C591.809 324.168 592.769 314.568 592.769 308.232V301.176H587.873ZM590.657 301.176V305.16H602.657V312.216H590.513V316.2H607.793V301.176H590.657ZM590.609 318.072V331.272H595.457V322.2H603.569V331.08H608.561V318.072H590.609ZM610.673 292.104V319.272H616.097V292.104H610.673ZM621.185 287.208V324.408C621.185 325.224 620.849 325.512 619.985 325.512C619.073 325.56 616.241 325.56 613.361 325.416C614.177 327.048 615.041 329.688 615.233 331.272C619.457 331.32 622.385 331.128 624.257 330.168C626.129 329.256 626.753 327.672 626.753 324.408V287.208H621.185ZM594.977 286.872C592.673 290.76 588.593 295.272 582.833 298.584C583.937 299.448 585.617 301.416 586.337 302.712C592.865 298.488 597.089 293.544 599.969 289.656V288.024H598.193V286.872H594.977ZM596.225 286.872V290.904H597.233C600.353 293.208 604.481 297.336 606.497 299.736L610.193 295.512C607.841 293.016 603.473 289.416 600.113 286.872H596.225ZM644.945 295.608V300.024H676.337V295.608H644.945ZM647.729 308.52V312.648H673.121V308.52H647.729ZM645.617 314.856V319.416H675.281V314.856H645.617ZM657.089 286.632V323.304H662.705V286.632H657.089ZM648.257 289.32V293.688H667.073V302.04H648.017V306.408H672.737V289.32H648.257ZM631.505 288.888V293.928H641.633V288.888H631.505ZM639.665 288.888V289.512C637.985 293.736 634.529 301.656 631.601 307.56L636.833 308.904C639.617 302.904 642.977 295.416 645.137 289.752L641.249 288.696L640.385 288.888H639.665ZM636.401 302.472L636.209 307.512H643.409V302.472H636.401ZM641.105 302.472V303.528C640.193 315.72 637.025 323.496 631.073 327.624C632.321 328.344 634.529 330.408 635.393 331.512C641.633 326.808 645.329 317.592 646.529 303.096L643.169 302.376L642.209 302.472H641.105ZM636.689 310.248L632.177 311.832C637.169 327.336 646.625 330.168 660.545 330.168H674.705C675.041 328.488 676.049 325.848 676.913 324.552C673.409 324.696 663.617 324.696 660.689 324.696C649.361 324.648 640.577 322.68 636.689 310.248Z" fill="#424242"/>
<path d="M728.822 288.152V318.824H734.486V293.336H744.71V288.152H728.822ZM777.18 311.141V312.758C777.18 315.352 776.828 317.68 776.125 319.742C775.422 321.805 774.43 323.562 773.148 325.016C771.867 326.453 770.336 327.555 768.555 328.32C766.789 329.086 764.828 329.469 762.672 329.469C760.531 329.469 758.57 329.086 756.789 328.32C755.023 327.555 753.492 326.453 752.195 325.016C750.898 323.562 749.891 321.805 749.172 319.742C748.469 317.68 748.117 315.352 748.117 312.758V311.141C748.117 308.531 748.469 306.203 749.172 304.156C749.875 302.094 750.867 300.336 752.148 298.883C753.445 297.43 754.977 296.32 756.742 295.555C758.523 294.789 760.484 294.406 762.625 294.406C764.781 294.406 766.742 294.789 768.508 295.555C770.289 296.32 771.82 297.43 773.102 298.883C774.398 300.336 775.398 302.094 776.102 304.156C776.82 306.203 777.18 308.531 777.18 311.141ZM770.078 312.758V311.094C770.078 309.281 769.914 307.688 769.586 306.312C769.258 304.938 768.773 303.781 768.133 302.844C767.492 301.906 766.711 301.203 765.789 300.734C764.867 300.25 763.812 300.008 762.625 300.008C761.438 300.008 760.383 300.25 759.461 300.734C758.555 301.203 757.781 301.906 757.141 302.844C756.516 303.781 756.039 304.938 755.711 306.312C755.383 307.688 755.219 309.281 755.219 311.094V312.758C755.219 314.555 755.383 316.148 755.711 317.539C756.039 318.914 756.523 320.078 757.164 321.031C757.805 321.969 758.586 322.68 759.508 323.164C760.43 323.648 761.484 323.891 762.672 323.891C763.859 323.891 764.914 323.648 765.836 323.164C766.758 322.68 767.531 321.969 768.156 321.031C768.781 320.078 769.258 318.914 769.586 317.539C769.914 316.148 770.078 314.555 770.078 312.758ZM795.508 323.281V311.984C795.508 311.172 795.375 310.477 795.109 309.898C794.844 309.305 794.43 308.844 793.867 308.516C793.32 308.188 792.609 308.023 791.734 308.023C790.984 308.023 790.336 308.156 789.789 308.422C789.242 308.672 788.82 309.039 788.523 309.523C788.227 309.992 788.078 310.547 788.078 311.188H781.328C781.328 310.109 781.578 309.086 782.078 308.117C782.578 307.148 783.305 306.297 784.258 305.562C785.211 304.812 786.344 304.227 787.656 303.805C788.984 303.383 790.469 303.172 792.109 303.172C794.078 303.172 795.828 303.5 797.359 304.156C798.891 304.812 800.094 305.797 800.969 307.109C801.859 308.422 802.305 310.062 802.305 312.031V322.883C802.305 324.273 802.391 325.414 802.562 326.305C802.734 327.18 802.984 327.945 803.312 328.602V329H796.492C796.164 328.312 795.914 327.453 795.742 326.422C795.586 325.375 795.508 324.328 795.508 323.281ZM796.398 313.555L796.445 317.375H792.672C791.781 317.375 791.008 317.477 790.352 317.68C789.695 317.883 789.156 318.172 788.734 318.547C788.312 318.906 788 319.328 787.797 319.812C787.609 320.297 787.516 320.828 787.516 321.406C787.516 321.984 787.648 322.508 787.914 322.977C788.18 323.43 788.562 323.789 789.062 324.055C789.562 324.305 790.148 324.43 790.82 324.43C791.836 324.43 792.719 324.227 793.469 323.82C794.219 323.414 794.797 322.914 795.203 322.32C795.625 321.727 795.844 321.164 795.859 320.633L797.641 323.492C797.391 324.133 797.047 324.797 796.609 325.484C796.188 326.172 795.648 326.82 794.992 327.43C794.336 328.023 793.547 328.516 792.625 328.906C791.703 329.281 790.609 329.469 789.344 329.469C787.734 329.469 786.273 329.148 784.961 328.508C783.664 327.852 782.633 326.953 781.867 325.812C781.117 324.656 780.742 323.344 780.742 321.875C780.742 320.547 780.992 319.367 781.492 318.336C781.992 317.305 782.727 316.438 783.695 315.734C784.68 315.016 785.906 314.477 787.375 314.117C788.844 313.742 790.547 313.555 792.484 313.555H796.398ZM819.93 303.641V308.422H805.164V303.641H819.93ZM808.82 297.383H815.57V321.359C815.57 322.094 815.664 322.656 815.852 323.047C816.055 323.438 816.352 323.711 816.742 323.867C817.133 324.008 817.625 324.078 818.219 324.078C818.641 324.078 819.016 324.062 819.344 324.031C819.688 323.984 819.977 323.938 820.211 323.891L820.234 328.859C819.656 329.047 819.031 329.195 818.359 329.305C817.688 329.414 816.945 329.469 816.133 329.469C814.648 329.469 813.352 329.227 812.242 328.742C811.148 328.242 810.305 327.445 809.711 326.352C809.117 325.258 808.82 323.82 808.82 322.039V297.383ZM832.211 329H825.438V302.492C825.438 300.336 825.875 298.516 826.75 297.031C827.641 295.547 828.906 294.422 830.547 293.656C832.203 292.891 834.203 292.508 836.547 292.508C837.875 292.508 839.164 292.641 840.414 292.906C841.664 293.156 842.953 293.484 844.281 293.891L843.297 299.305C842.438 299.039 841.516 298.789 840.531 298.555C839.547 298.32 838.359 298.203 836.969 298.203C835.406 298.203 834.219 298.57 833.406 299.305C832.609 300.023 832.211 301.086 832.211 302.492V329ZM837.25 303.641V308.422H821.664V303.641H837.25ZM847.422 303.641V329H840.648V303.641H847.422ZM859.68 309.055V329H852.93V303.641H859.258L859.68 309.055ZM858.695 315.43H856.867C856.867 313.555 857.109 311.867 857.594 310.367C858.078 308.852 858.758 307.562 859.633 306.5C860.508 305.422 861.547 304.602 862.75 304.039C863.969 303.461 865.328 303.172 866.828 303.172C868.016 303.172 869.102 303.344 870.086 303.688C871.07 304.031 871.914 304.578 872.617 305.328C873.336 306.078 873.883 307.07 874.258 308.305C874.648 309.539 874.844 311.047 874.844 312.828V329H868.047V312.805C868.047 311.68 867.891 310.805 867.578 310.18C867.266 309.555 866.805 309.117 866.195 308.867C865.602 308.602 864.867 308.469 863.992 308.469C863.086 308.469 862.297 308.648 861.625 309.008C860.969 309.367 860.422 309.867 859.984 310.508C859.562 311.133 859.242 311.867 859.023 312.711C858.805 313.555 858.695 314.461 858.695 315.43ZM894.953 323.469V293H901.75V329H895.633L894.953 323.469ZM878.922 316.625V316.133C878.922 314.195 879.141 312.438 879.578 310.859C880.016 309.266 880.656 307.898 881.5 306.758C882.344 305.617 883.383 304.734 884.617 304.109C885.852 303.484 887.258 303.172 888.836 303.172C890.32 303.172 891.617 303.484 892.727 304.109C893.852 304.734 894.805 305.625 895.586 306.781C896.383 307.922 897.023 309.273 897.508 310.836C897.992 312.383 898.344 314.078 898.562 315.922V317C898.344 318.766 897.992 320.406 897.508 321.922C897.023 323.438 896.383 324.766 895.586 325.906C894.805 327.031 893.852 327.906 892.727 328.531C891.602 329.156 890.289 329.469 888.789 329.469C887.211 329.469 885.805 329.148 884.57 328.508C883.352 327.867 882.32 326.969 881.477 325.812C880.648 324.656 880.016 323.297 879.578 321.734C879.141 320.172 878.922 318.469 878.922 316.625ZM885.672 316.133V316.625C885.672 317.672 885.75 318.648 885.906 319.555C886.078 320.461 886.352 321.266 886.727 321.969C887.117 322.656 887.617 323.195 888.227 323.586C888.852 323.961 889.609 324.148 890.5 324.148C891.656 324.148 892.609 323.891 893.359 323.375C894.109 322.844 894.68 322.117 895.07 321.195C895.477 320.273 895.711 319.211 895.773 318.008V314.938C895.727 313.953 895.586 313.07 895.352 312.289C895.133 311.492 894.805 310.812 894.367 310.25C893.945 309.688 893.414 309.25 892.773 308.938C892.148 308.625 891.406 308.469 890.547 308.469C889.672 308.469 888.922 308.672 888.297 309.078C887.672 309.469 887.164 310.008 886.773 310.695C886.398 311.383 886.117 312.195 885.93 313.133C885.758 314.055 885.672 315.055 885.672 316.133ZM918.695 329.469C916.727 329.469 914.961 329.156 913.398 328.531C911.836 327.891 910.508 327.008 909.414 325.883C908.336 324.758 907.508 323.453 906.93 321.969C906.352 320.469 906.062 318.875 906.062 317.188V316.25C906.062 314.328 906.336 312.57 906.883 310.977C907.43 309.383 908.211 308 909.227 306.828C910.258 305.656 911.508 304.758 912.977 304.133C914.445 303.492 916.102 303.172 917.945 303.172C919.742 303.172 921.336 303.469 922.727 304.062C924.117 304.656 925.281 305.5 926.219 306.594C927.172 307.688 927.891 309 928.375 310.531C928.859 312.047 929.102 313.734 929.102 315.594V318.406H908.945V313.906H922.469V313.391C922.469 312.453 922.297 311.617 921.953 310.883C921.625 310.133 921.125 309.539 920.453 309.102C919.781 308.664 918.922 308.445 917.875 308.445C916.984 308.445 916.219 308.641 915.578 309.031C914.938 309.422 914.414 309.969 914.008 310.672C913.617 311.375 913.32 312.203 913.117 313.156C912.93 314.094 912.836 315.125 912.836 316.25V317.188C912.836 318.203 912.977 319.141 913.258 320C913.555 320.859 913.969 321.602 914.5 322.227C915.047 322.852 915.703 323.336 916.469 323.68C917.25 324.023 918.133 324.195 919.117 324.195C920.336 324.195 921.469 323.961 922.516 323.492C923.578 323.008 924.492 322.281 925.258 321.312L928.539 324.875C928.008 325.641 927.281 326.375 926.359 327.078C925.453 327.781 924.359 328.359 923.078 328.812C921.797 329.25 920.336 329.469 918.695 329.469ZM939.695 309.172V329H932.945V303.641H939.297L939.695 309.172ZM947.336 303.477L947.219 309.734C946.891 309.688 946.492 309.648 946.023 309.617C945.57 309.57 945.156 309.547 944.781 309.547C943.828 309.547 943 309.672 942.297 309.922C941.609 310.156 941.031 310.508 940.562 310.977C940.109 311.445 939.766 312.016 939.531 312.688C939.312 313.359 939.188 314.125 939.156 314.984L937.797 314.562C937.797 312.922 937.961 311.414 938.289 310.039C938.617 308.648 939.094 307.438 939.719 306.406C940.359 305.375 941.141 304.578 942.062 304.016C942.984 303.453 944.039 303.172 945.227 303.172C945.602 303.172 945.984 303.203 946.375 303.266C946.766 303.312 947.086 303.383 947.336 303.477ZM965.13 333.416V302.744H959.466V328.232H949.242V333.416H965.13Z" fill="#424242"/>
</svg>
