<svg width="1440" height="810" viewBox="0 0 1440 810" fill="none" xmlns="http://www.w3.org/2000/svg">
<path d="M895.866 383.904H939.078V368.57C939.078 367.724 939.395 366.897 939.989 366.194C940.582 365.491 941.426 364.943 942.413 364.62C943.399 364.296 944.485 364.212 945.533 364.377C946.581 364.541 947.543 364.949 948.298 365.546L983.872 393.709C984.885 394.511 985.454 395.599 985.454 396.732C985.454 397.866 984.885 398.954 983.872 399.756L948.298 427.918C947.543 428.516 946.581 428.923 945.533 429.088C944.485 429.253 943.399 429.169 942.413 428.845C941.426 428.521 940.582 427.973 939.989 427.27C939.395 426.567 939.078 425.741 939.078 424.895V409.561H895.866C894.434 409.561 893.06 409.11 892.047 408.308C891.034 407.507 890.465 406.419 890.465 405.285V388.18C890.465 387.046 891.034 385.958 892.047 385.156C893.06 384.354 894.434 383.904 895.866 383.904Z" fill="#DBE4E3" stroke="#56878A" stroke-width="2.5" stroke-linecap="round" stroke-linejoin="round"/>
<g clip-path="url(#clip0_730_3104)">
<path d="M777.427 295.258C784.877 302.965 789.689 312.838 791.17 323.455C792.652 334.071 790.726 344.884 785.67 354.336C762.685 397.464 696.94 385.901 690.779 336.725C684.758 288.422 743.837 260.486 777.427 295.258Z" fill="#DBE4E3"/>
<path d="M785.673 354.28C760.128 402.302 685.661 381.175 690.585 326.147C692.526 374.282 761.338 391.612 785.673 345.84C788.967 339.756 790.941 333.046 791.468 326.147C792.337 335.89 790.321 345.674 785.673 354.28Z" fill="#DBE4E3"/>
<path d="M726.734 337.007C729.548 339.229 731.77 336.416 736.778 335.769C741.785 335.122 755.008 338.582 755.655 343.618C756.302 348.654 749.466 354.618 744.964 360.273C740.463 365.927 741.813 375.971 741.813 375.971L736.187 371.582C733.374 369.359 736.806 356.193 736.468 353.661C736.131 351.13 728.028 347.078 730.195 344.265C732.361 341.452 729.576 339.229 726.734 337.007Z" fill="#597476"/>
<path d="M736.468 312.841C734.61 314.023 733.068 315.639 731.975 317.551C730.882 319.463 730.271 321.612 730.195 323.813C730.504 326.344 722.655 324.797 720.461 327.61C718.266 330.424 723.921 334.812 726.734 337.007C723.921 334.812 716.072 333.265 710.727 331.38C705.382 329.495 704.144 319.452 703.806 316.948C703.553 314.951 698.377 311.969 694.832 309.718C696.972 305.018 699.818 300.673 703.272 296.833C728.085 294.526 720.742 297.734 725.215 301.194C728.028 303.388 724.962 301.531 729.998 300.884C735.034 300.237 741.195 309.69 736.468 312.841Z" fill="#597476"/>
<path d="M777.426 295.258C784.876 302.966 789.689 312.838 791.17 323.455C792.651 334.072 790.725 344.885 785.669 354.337C782.124 351.524 780.662 339.764 780.043 335.516C779.396 330.48 764.345 332.365 763.698 327.329C763.05 322.294 767.467 316.667 767.467 316.667C769.662 313.854 777.539 315.401 782.546 314.782C787.554 314.163 776.92 310.366 768.733 306.343C760.547 302.32 773.206 303.079 777.426 295.258Z" fill="#597476"/>
<path d="M758.156 282.795C757.923 284.251 758.139 285.742 758.775 287.072C762.235 294.302 755.286 295.877 750.87 301.532C746.453 307.186 739.617 299.675 738.66 289.603C738.21 285.44 727.66 283.302 727.66 283.302C727.576 282.752 727.529 282.198 727.52 281.642C737.606 278.852 748.308 279.255 758.156 282.795Z" fill="#597476"/>
<path d="M741.024 434.543V457.049H710.078C711.456 446.19 709.346 434.543 701.638 428.916C691.643 421.189 682.239 412.726 673.505 403.597C665.066 395.157 653.812 367.024 653.812 361.398C653.819 360.143 654.246 358.927 655.024 357.942C655.801 356.957 656.886 356.261 658.105 355.963C659.324 355.666 660.608 355.784 661.752 356.3C662.896 356.816 663.834 357.699 664.418 358.81C676.825 388.236 679.751 390.149 707.264 406.41C703.065 401.096 699.302 395.451 696.011 389.531C687.572 375.464 695.674 373.467 701.638 375.464C710.078 378.278 715.704 395.157 724.144 400.784C732.584 406.41 741.024 423.599 741.024 434.543Z" fill="#F7F0EA"/>
<path d="M828.236 361.398C828.236 367.024 816.983 395.157 808.543 403.597C799.809 412.725 790.405 421.189 780.41 428.916C772.786 434.543 770.536 445.796 771.971 457.049H741.025C741.025 434.543 740.631 432.686 742.009 427.2C744.429 416.96 751.152 405.285 757.904 400.784C766.344 395.157 771.971 378.278 780.41 375.464C786.374 373.467 794.477 375.464 786.037 389.531C782.746 395.451 778.983 401.096 774.784 406.41C802.298 390.149 805.195 388.236 817.574 358.838C818.141 357.699 819.078 356.786 820.231 356.248C821.384 355.71 822.686 355.579 823.923 355.876C825.16 356.173 826.261 356.881 827.044 357.884C827.827 358.887 828.247 360.126 828.236 361.398Z" fill="#F7F0EA"/>
<path d="M741.025 442.982C740.18 444.677 738.88 446.101 737.269 447.095C735.659 448.089 733.802 448.614 731.91 448.609H729.293C725.111 448.608 720.993 447.582 717.3 445.62C713.607 443.658 710.451 440.821 708.109 437.356C710.352 443.664 711.028 450.422 710.079 457.049H741.025C741.025 440.844 741.025 443.264 741.025 442.982Z" fill="#F7F0EA"/>
<path d="M773.939 437.356C771.597 440.821 768.441 443.658 764.748 445.62C761.055 447.582 756.937 448.608 752.755 448.609C749.154 448.609 743.949 448.834 741.023 442.982V457.049H771.969C771.004 450.422 771.68 443.66 773.939 437.356Z" fill="#F7F0EA"/>
<path d="M815.041 357.713C803.282 385.845 799.231 387.73 784.799 396.929C788.878 390.431 795.602 380.641 790.903 374.817C788.09 371.413 783.251 371.554 779.65 372.792C769.804 376.083 764.543 393.075 756.497 398.449C750.308 402.472 744.4 411.587 741.024 420.786C737.648 411.587 731.741 402.472 725.692 398.449C717.759 393.16 712.301 375.942 702.539 372.792C698.825 371.554 693.874 371.413 691.145 374.817C686.447 380.669 693.199 390.487 697.25 396.929C682.565 387.589 678.879 385.845 666.923 357.544C666.052 355.873 664.646 354.541 662.93 353.762C661.214 352.982 659.286 352.8 657.454 353.243C655.622 353.687 653.992 354.73 652.822 356.208C651.652 357.686 651.011 359.513 651 361.398C651 367.728 662.619 396.704 671.509 405.594C680.345 414.809 689.852 423.357 699.951 431.167C709.685 438.453 707.321 453.673 707.293 453.673C707.174 454.419 707.356 455.182 707.799 455.794C708.242 456.406 708.91 456.817 709.656 456.936C710.403 457.056 711.166 456.874 711.778 456.431C712.39 455.987 712.8 455.319 712.92 454.573C712.92 453.842 715.874 435.921 703.383 426.441C693.498 418.788 684.198 410.41 675.56 401.374C667.429 393.525 656.627 365.843 656.627 361.398C656.625 360.785 656.823 360.189 657.19 359.699C657.558 359.209 658.076 358.853 658.665 358.684C659.254 358.516 659.882 358.544 660.453 358.764C661.025 358.985 661.508 359.386 661.831 359.907C674.322 389.784 677.839 392.344 705.774 408.801C706.35 409.14 707.028 409.263 707.686 409.148C708.344 409.032 708.94 408.686 709.367 408.172C709.793 407.658 710.022 407.008 710.014 406.34C710.005 405.672 709.759 405.028 709.319 404.525C707.125 402.05 692.749 381.794 695.534 378.334C696.237 377.462 698.516 377.377 700.738 378.137C707.772 380.472 713.708 397.211 722.597 403.119C730.165 408.182 738.211 424.331 738.211 434.543V454.236C738.211 454.982 738.507 455.697 739.035 456.225C739.563 456.752 740.278 457.049 741.024 457.049C741.77 457.049 742.486 456.752 743.014 456.225C743.541 455.697 743.838 454.982 743.838 454.236V434.543C743.838 424.331 751.884 408.182 759.451 403.119C768.313 397.239 774.277 380.613 781.31 378.137C783.533 377.377 785.811 377.462 786.515 378.334C789.328 381.794 774.783 402.19 772.73 404.525C772.29 405.028 772.044 405.672 772.035 406.34C772.026 407.008 772.256 407.658 772.682 408.172C773.109 408.686 773.704 409.032 774.363 409.148C775.021 409.263 775.699 409.14 776.274 408.801C803.141 393.075 807.811 389.643 819.43 361.82C820.161 360.048 820.583 358.585 822.609 358.585C823.355 358.585 824.071 358.881 824.598 359.409C825.126 359.936 825.422 360.652 825.422 361.398C825.422 365.843 814.619 393.525 806.545 401.599C797.907 410.635 788.607 419.013 778.722 426.666C766.344 436.034 769.157 453.954 769.157 454.686C769.276 455.432 769.687 456.1 770.299 456.543C770.911 456.986 771.674 457.168 772.42 457.049C773.166 456.929 773.835 456.519 774.278 455.907C774.721 455.295 774.903 454.532 774.783 453.785C774.783 453.617 772.392 438.453 782.126 431.279C792.225 423.469 801.732 414.922 810.568 405.707C819.43 396.704 831.049 367.728 831.049 361.398C831.037 359.497 830.385 357.656 829.197 356.173C828.009 354.689 826.355 353.65 824.503 353.224C822.65 352.798 820.709 353.009 818.992 353.823C817.274 354.638 815.883 356.008 815.041 357.713Z" fill="#597476"/>
<path d="M747.663 383.482C761.727 381.719 774.514 374.443 783.214 363.253C791.913 352.063 795.812 337.877 794.054 323.813C788.343 278.182 731.431 260.824 701.047 294.949C668.554 331.634 698.825 389.53 747.663 383.482ZM696.152 313.882C697.93 314.891 699.575 316.12 701.047 317.539C703.157 333.518 708.699 333.856 715.845 335.91C719.023 336.649 722.102 337.763 725.016 339.229C726.206 340.054 727.268 341.049 728.167 342.183C728.167 342.858 723.807 344.997 731.571 352.142C732.321 352.777 733.026 353.464 733.681 354.196C733.681 354.984 733.372 356.812 733.175 358.191C730.952 373.073 732.303 372.257 740.124 378.193C732.502 378.046 725.026 376.08 718.318 372.458C711.611 368.836 705.866 363.662 701.564 357.37C697.261 351.077 694.525 343.847 693.584 336.282C692.643 328.717 693.523 321.037 696.152 313.882ZM704.451 299.506C706.252 299.337 720.684 297.987 720.571 299.703C721.196 301.527 722.467 303.058 724.144 304.007C724.434 304.332 724.79 304.592 725.188 304.769C725.585 304.947 726.016 305.039 726.451 305.039C726.887 305.039 727.317 304.947 727.715 304.769C728.112 304.592 728.468 304.332 728.758 304.007C729.243 303.852 729.742 303.748 730.249 303.698C732.415 303.388 736.663 308.762 734.919 310.506C732.877 311.87 731.15 313.655 729.854 315.742C728.559 317.828 727.724 320.168 727.408 322.603C724.594 323.053 720.431 323.081 718.265 325.895C717.755 326.524 717.404 327.266 717.243 328.06C717.081 328.853 717.113 329.674 717.336 330.452C715.367 329.889 713.369 329.299 711.71 328.708C710.641 328.314 707.94 326.373 706.646 316.554C706.308 313.741 703.354 311.688 698.515 308.649C700.147 305.39 702.138 302.323 704.451 299.506ZM733.147 339.651C734.429 339.126 735.771 338.758 737.141 338.554C741.98 337.963 752.558 341.593 752.868 343.956C753.261 347.332 746.65 353.493 742.768 358.585C740.401 362.009 739.073 366.043 738.942 370.203L738.098 369.556C737.029 366.996 739.617 356.025 739.28 353.38C738.858 350.117 734.497 347.754 732.809 345.475C733.43 344.644 733.793 343.649 733.853 342.614C733.913 341.578 733.668 340.548 733.147 339.651ZM743.528 378.277C743.903 377.985 744.198 377.601 744.385 377.163C744.572 376.726 744.645 376.247 744.597 375.774C744.315 373.27 744.203 365.983 747.185 362.129C751.77 356.25 759.226 349.948 758.438 343.393C757.453 335.741 741.558 332.478 736.438 333.125C731.318 333.772 729.518 335.769 728.477 334.925C728.758 334.925 723.441 331.324 722.85 329.299C724.988 327.948 733.737 329.299 733.006 323.672C733.165 322.002 733.701 320.39 734.573 318.958C735.445 317.525 736.631 316.309 738.042 315.401C745.75 310.281 736.719 294.921 726.648 299.028C725.523 298.1 726.507 297.199 723.469 294.836C722.287 293.936 720.234 293.12 710.809 293.655C715.21 290.052 720.222 287.27 725.607 285.44C726.012 285.874 726.544 286.17 727.126 286.284C731.177 287.1 735.566 289.097 735.876 290.11C736.635 297.199 740.883 306.511 747.494 306.511C751.602 306.511 752.277 303.698 757.059 299.619C760.182 296.805 764.008 293.655 761.983 287.69C766.275 289.815 770.228 292.564 773.714 295.849C769.86 299.956 763.417 299.9 763.389 304.289C763.389 307.833 768.2 309.437 774.417 312.25C775.796 312.841 768.453 311.181 765.387 315.063C764.852 315.739 760.266 321.815 761.026 327.808C761.926 334.869 775.711 333.997 777.371 336.05C778.271 343.168 779.565 350.679 782.294 354.759C778.302 361.597 772.665 367.33 765.895 371.437C759.125 375.544 751.437 377.896 743.528 378.277ZM755.315 284.849C755.405 286.029 755.71 287.183 756.215 288.253C758.607 293.204 753.402 293.683 748.648 299.759C747.86 300.772 747.382 300.631 747.157 300.575C745.244 300.013 742.121 295.68 741.53 289.322C741.167 287.861 740.443 286.514 739.426 285.403C738.409 284.293 737.131 283.454 735.707 282.964C742.303 282.208 748.984 282.85 755.315 284.849ZM777.821 299.9C780.56 303.198 782.841 306.85 784.601 310.759C781.985 308.987 776.358 306.792 770.901 304.148C777.23 301.11 777.343 299.337 777.821 299.9ZM785.417 348.119C780.972 334.053 786.908 331.493 772.532 328.623C770.479 328.354 768.477 327.775 766.596 326.907C766.737 323.829 767.85 320.874 769.775 318.468C771.829 316.301 784.292 319.959 786.43 315.654C789.936 326.256 789.577 337.757 785.417 348.119Z" fill="#597476"/>
</g>
<path d="M651.864 482.982V485.502H659.616V482.982H651.864ZM652.08 489.894V492.438H659.28V489.894H652.08ZM659.328 488.238V490.518H674.208V488.238H659.328ZM651.528 497.862L652.128 500.574C654.432 499.95 657.384 499.158 660.12 498.39L659.784 495.822C656.784 496.614 653.64 497.406 651.528 497.862ZM663.312 493.446H670.224V494.982H663.312V493.446ZM660.792 491.406V497.046H672.888V491.406H660.792ZM669.36 483.966H670.896V485.526H669.36V483.966ZM666 483.966H667.512V485.526H666V483.966ZM662.712 483.966H664.176V485.526H662.712V483.966ZM660.408 482.046V487.446H673.296V482.046H660.408ZM667.632 495.942L665.568 496.542C666.912 499.806 669.312 502.518 672.48 503.838C672.864 503.142 673.68 502.11 674.28 501.582C671.232 500.646 668.808 498.462 667.632 495.942ZM671.904 496.974C671.256 497.598 670.128 498.534 669.336 499.038L670.968 500.334C671.808 499.878 672.912 499.158 673.872 498.438L671.904 496.974ZM654.528 484.086V498.486L657.12 498.054V484.086H654.528ZM666.288 495.558C664.464 497.622 660.888 499.638 657.72 500.622C658.272 501.126 659.016 502.062 659.376 502.662C662.616 501.414 666.216 499.038 668.304 496.47L666.288 495.558ZM663.912 498.942V503.814H666.624V497.118L663.912 498.942ZM683.952 482.79V485.022H697.728V482.79H683.952ZM683.424 486.87V489.198H698.16V486.87H683.424ZM689.184 481.35V484.302H692.016V481.35H689.184ZM692.808 484.59C692.64 485.238 692.28 486.174 691.968 486.822L694.464 487.326C694.776 486.774 695.16 486.006 695.616 485.118L692.808 484.59ZM686.016 485.19C686.328 485.886 686.664 486.798 686.736 487.398L689.352 486.774C689.208 486.174 688.872 485.286 688.488 484.686L686.016 485.19ZM687.456 494.766H694.224V495.99H687.456V494.766ZM687.456 491.91H694.224V493.11H687.456V491.91ZM684.768 490.134V497.766H697.032V490.134H684.768ZM691.368 497.214V500.622C691.368 502.902 691.848 503.694 694.104 503.694C694.536 503.694 695.544 503.694 696 503.694C697.68 503.694 698.352 502.998 698.616 500.19C697.896 500.046 696.744 499.59 696.24 499.182C696.168 501.006 696.072 501.27 695.688 501.27C695.448 501.27 694.752 501.27 694.584 501.27C694.176 501.27 694.104 501.174 694.104 500.574V497.214H691.368ZM686.976 497.118C686.592 499.254 685.752 500.646 681.552 501.462C682.104 502.014 682.848 503.19 683.112 503.886C688.08 502.614 689.304 500.358 689.784 497.118H686.976ZM676.056 486.99V489.702H683.304V486.99H676.056ZM678.456 481.614V497.55H681.12V481.614H678.456ZM675.528 497.31L676.512 500.19C678.696 499.182 681.456 497.934 684 496.71L683.352 494.142C680.52 495.366 677.496 496.638 675.528 497.31ZM709.032 491.574L706.512 492.318C709.008 498.414 713.184 502.182 720.24 503.742C720.648 502.95 721.464 501.702 722.112 501.102C715.344 499.902 711.048 496.614 709.032 491.574ZM716.376 490.134V490.638C714.888 496.302 710.448 499.902 704.88 501.342C705.456 501.942 706.152 503.046 706.512 503.79C712.752 501.822 717.504 498.03 719.424 490.854L717.456 490.014L716.928 490.134H716.376ZM700.512 484.854V487.638H721.464V484.854H700.512ZM707.304 490.134L706.488 492.918H716.664V490.134H707.304ZM706.512 481.278C706.368 484.206 706.416 495.294 699.552 500.886C700.536 501.462 701.448 502.182 702.048 502.95C708.96 496.662 709.32 485.046 709.512 481.278H706.512ZM728.616 500.886V503.094H741.264V500.886H728.616ZM727.32 497.046V503.814H730.152V499.23H739.776V503.742H742.728V497.046H727.32ZM725.52 483.822V485.91H744.48V483.822H725.52ZM724.848 489.798V491.886H745.2V489.798H724.848ZM727.104 486.822V488.838H742.92V486.822H727.104ZM724.08 493.95V496.158H745.944V493.95H724.08ZM733.44 484.83V494.862H736.416V484.83H733.44ZM728.568 481.902C729.072 482.694 729.576 483.798 729.744 484.494L732.48 483.702C732.24 482.982 731.736 481.974 731.184 481.23L728.568 481.902ZM727.464 492.126C727.896 492.822 728.352 493.806 728.472 494.454L731.256 493.758C731.064 493.134 730.608 492.222 730.128 491.55L727.464 492.126ZM738.528 481.206C738.288 481.974 737.76 483.03 737.352 483.798L739.968 484.278C740.424 483.63 741 482.742 741.576 481.71L738.528 481.206ZM739.752 491.574C739.512 492.222 739.08 493.134 738.744 493.782L741.432 494.214C741.792 493.662 742.2 492.918 742.704 492.006L739.752 491.574Z" fill="#56878A"/>
<path d="M1166.68 477.557C1166.18 479.477 1165.19 482.021 1164.33 483.653L1166.82 484.301C1167.74 482.765 1168.82 480.413 1169.68 478.205L1166.68 477.557ZM1163.06 482.477L1163.27 485.213C1166.01 485.045 1169.7 484.829 1173.23 484.565L1173.26 482.069C1169.54 482.237 1165.65 482.405 1163.06 482.477ZM1164.47 486.341V500.189H1167.14V488.717H1172.1V486.341H1164.47ZM1170.74 486.341V497.237C1170.74 497.549 1170.64 497.621 1170.35 497.621C1170.04 497.645 1169.08 497.645 1168.24 497.597C1168.6 498.293 1169.01 499.397 1169.15 500.165C1170.62 500.165 1171.7 500.117 1172.54 499.685C1173.35 499.253 1173.59 498.533 1173.59 497.309V486.341H1170.74ZM1165.7 489.965V492.101H1172.34V489.965H1165.7ZM1165.7 493.493V495.629H1172.34V493.493H1165.7ZM1175.46 477.773V485.021C1175.46 487.685 1176.16 488.501 1178.99 488.501C1179.54 488.501 1181.7 488.501 1182.3 488.501C1184.54 488.501 1185.3 487.637 1185.62 484.517C1184.82 484.349 1183.65 483.917 1183.05 483.461C1182.95 485.573 1182.81 485.933 1182.02 485.933C1181.51 485.933 1179.78 485.933 1179.4 485.933C1178.49 485.933 1178.34 485.813 1178.34 484.973V477.773H1175.46ZM1182.66 479.189C1181.08 480.101 1178.61 481.181 1176.38 481.877C1176.69 482.429 1177.07 483.293 1177.19 483.869C1179.57 483.221 1182.35 482.309 1184.49 481.277L1182.66 479.189ZM1175.46 488.981V496.565C1175.46 499.229 1176.18 500.045 1179.02 500.045C1179.59 500.045 1181.82 500.045 1182.42 500.045C1184.73 500.045 1185.5 499.085 1185.81 495.701C1185.02 495.533 1183.86 495.077 1183.26 494.645C1183.14 497.093 1183 497.525 1182.16 497.525C1181.63 497.525 1179.83 497.525 1179.42 497.525C1178.49 497.525 1178.32 497.429 1178.32 496.541V488.981H1175.46ZM1182.86 489.989C1181.22 491.045 1178.66 492.221 1176.33 492.965C1176.62 493.517 1177.02 494.429 1177.17 494.981C1179.64 494.285 1182.54 493.277 1184.73 492.101L1182.86 489.989ZM1169.94 480.197C1171.1 481.997 1172.25 484.397 1172.66 485.933L1175.27 484.877C1174.82 483.293 1173.57 481.013 1172.39 479.285L1169.94 480.197ZM1195.12 478.925V481.517H1209.33V478.925H1195.12ZM1194.26 478.925V485.573C1194.26 489.485 1194.02 494.957 1191.33 498.701C1192 498.989 1193.22 499.757 1193.75 500.237C1196.61 496.229 1197.04 489.845 1197.04 485.573V478.925H1194.26ZM1200.45 488.813H1205.99V490.157H1200.45V488.813ZM1200.45 485.573H1205.99V486.893H1200.45V485.573ZM1197.88 483.509V492.221H1208.66V483.509H1197.88ZM1198.29 493.157C1197.78 494.789 1196.85 496.445 1195.74 497.549C1196.37 497.885 1197.45 498.581 1197.98 499.013C1199.08 497.741 1200.21 495.725 1200.83 493.757L1198.29 493.157ZM1205.1 493.853C1206.02 495.389 1206.98 497.429 1207.31 498.701L1209.95 497.573C1209.54 496.277 1208.49 494.333 1207.58 492.869L1205.1 493.853ZM1201.74 480.917C1201.7 481.949 1201.46 483.365 1201.24 484.373L1203.81 484.901C1204.14 484.037 1204.53 482.741 1204.94 481.421L1201.74 480.917ZM1201.7 491.405V497.429C1201.7 497.669 1201.6 497.741 1201.34 497.765C1201.05 497.765 1200.06 497.765 1199.22 497.741C1199.54 498.437 1199.87 499.469 1199.97 500.189C1201.46 500.213 1202.58 500.189 1203.4 499.805C1204.26 499.421 1204.43 498.725 1204.43 497.501V491.405H1201.7ZM1188.14 479.909C1189.53 480.581 1191.26 481.685 1192.05 482.501L1193.78 480.197C1192.91 479.381 1191.14 478.421 1189.74 477.821L1188.14 479.909ZM1186.98 486.413C1188.38 487.037 1190.1 488.069 1190.9 488.861L1192.6 486.533C1191.71 485.765 1189.96 484.829 1188.59 484.277L1186.98 486.413ZM1187.3 498.365L1189.91 499.901C1190.99 497.525 1192.1 494.765 1193.01 492.173L1190.66 490.589C1189.65 493.421 1188.28 496.469 1187.3 498.365ZM1221.23 488.837V491.261H1230.74V488.837H1221.23ZM1221.21 493.061V495.461H1230.74V493.061H1221.21ZM1230.5 478.229C1230.02 479.693 1229.1 481.589 1228.38 482.813L1230.88 483.749C1231.62 482.597 1232.51 480.893 1233.3 479.213L1230.5 478.229ZM1218.57 479.477C1219.5 480.869 1220.44 482.717 1220.75 483.941L1223.34 482.717C1222.98 481.493 1221.95 479.717 1220.99 478.397L1218.57 479.477ZM1219.31 484.373V500.189H1222.14V487.061H1230.78V484.373H1219.31ZM1229.44 484.373V497.069C1229.44 497.381 1229.32 497.477 1228.96 497.501C1228.6 497.501 1227.33 497.501 1226.22 497.453C1226.58 498.197 1226.97 499.373 1227.09 500.141C1228.89 500.141 1230.18 500.117 1231.1 499.685C1231.98 499.229 1232.25 498.461 1232.25 497.093V484.373H1229.44ZM1224.42 477.653V486.173H1227.33V477.653H1224.42ZM1212.11 479.885C1213.6 480.677 1215.47 481.949 1216.31 482.837L1218.11 480.629C1217.18 479.717 1215.28 478.589 1213.79 477.869L1212.11 479.885ZM1211.01 486.269C1212.54 487.061 1214.44 488.333 1215.33 489.245L1217.06 486.989C1216.1 486.077 1214.15 484.925 1212.64 484.229L1211.01 486.269ZM1211.68 498.245L1214.2 500.093C1215.5 497.669 1216.84 494.885 1217.92 492.293L1215.81 490.565C1214.51 493.373 1212.86 496.421 1211.68 498.245ZM1235.56 480.053V482.477H1244.58V480.053H1235.56ZM1245.47 485.789L1245.88 488.381L1256.7 486.677L1256.3 484.133L1245.47 485.789ZM1245.02 491.141L1245.4 493.757L1257.62 491.861L1257.26 489.317L1245.02 491.141ZM1253.99 477.701C1251.95 479.069 1248.33 480.389 1244.97 481.229C1245.33 481.781 1245.76 482.765 1245.9 483.365C1249.5 482.525 1253.51 481.277 1256.37 479.621L1253.99 477.701ZM1249.1 481.589V496.181C1249.1 499.037 1249.74 499.901 1252.17 499.901C1252.62 499.901 1254.23 499.901 1254.74 499.901C1256.85 499.901 1257.52 498.701 1257.78 495.221C1257.04 495.053 1255.96 494.573 1255.34 494.093C1255.24 496.805 1255.12 497.453 1254.5 497.453C1254.16 497.453 1252.94 497.453 1252.65 497.453C1251.98 497.453 1251.88 497.285 1251.88 496.181V481.589H1249.1ZM1235.25 488.021V490.517H1245.11V488.021H1235.25ZM1235.99 484.013V486.437H1244.1V484.013H1235.99ZM1239.02 477.653V500.189H1241.68V477.653H1239.02ZM1239.14 488.957C1238.3 490.973 1236.52 493.493 1234.84 494.909C1235.25 495.605 1235.82 496.757 1236.09 497.549C1238.03 495.821 1239.88 492.533 1240.94 489.797L1239.14 488.957ZM1241.44 489.821L1239.86 491.141C1240.79 492.293 1242.64 494.789 1243.43 496.157L1245.23 493.973C1244.68 493.277 1242.18 490.493 1241.44 489.821ZM1276.84 479.165C1277.94 479.837 1279.26 480.869 1279.86 481.589L1281.47 480.029C1280.8 479.285 1279.46 478.325 1278.35 477.749L1276.84 479.165ZM1269.71 488.525V490.613H1272.16V493.205H1269.71V495.317H1274.08V488.525H1269.71ZM1278.74 485.309C1277.51 491.141 1274.97 495.629 1270.74 498.197C1271.27 498.653 1272.26 499.589 1272.64 500.069C1276.94 497.045 1279.72 492.197 1281.21 485.765L1278.74 485.309ZM1265.42 481.205V487.949C1265.42 491.189 1265.27 495.629 1263.42 498.725C1264 498.989 1265.13 499.733 1265.58 500.189C1267.6 496.805 1267.94 491.549 1267.94 487.949V481.205H1265.42ZM1266.95 481.205V483.749H1281.28V481.205H1266.95ZM1268.73 485.093V487.181H1273.86V485.093H1268.73ZM1268.61 488.525V496.589H1270.5V488.525H1268.61ZM1260.11 479.909C1261.5 480.581 1263.21 481.637 1264.02 482.429L1265.75 480.125C1264.86 479.333 1263.09 478.397 1261.74 477.821L1260.11 479.909ZM1258.98 486.413C1260.35 487.013 1262.08 488.045 1262.87 488.813L1264.58 486.485C1263.69 485.717 1261.94 484.805 1260.57 484.301L1258.98 486.413ZM1259.13 498.293L1261.72 499.733C1262.73 497.309 1263.76 494.429 1264.6 491.765L1262.27 490.277C1261.34 493.181 1260.04 496.349 1259.13 498.293ZM1274.08 477.941C1274.37 490.925 1275.5 500.093 1279.24 500.165C1280.2 500.165 1281.42 499.205 1282 494.813C1281.57 494.597 1280.42 493.877 1279.98 493.325C1279.84 495.557 1279.62 496.757 1279.26 496.733C1277.97 496.685 1276.79 487.757 1276.7 477.941H1274.08ZM1292.85 477.677V489.317C1292.85 489.677 1292.7 489.773 1292.3 489.773C1291.86 489.773 1290.35 489.797 1288.98 489.749C1289.42 490.565 1289.87 491.861 1289.99 492.701C1291.96 492.701 1293.45 492.629 1294.46 492.173C1295.51 491.717 1295.8 490.901 1295.8 489.365V477.677H1292.85ZM1298.08 481.709C1300.02 484.253 1302.09 487.637 1302.81 489.869L1305.76 488.261C1304.92 485.957 1302.71 482.741 1300.74 480.341L1298.08 481.709ZM1299.16 487.829C1297.19 494.237 1292.82 496.517 1284.86 497.429C1285.46 498.173 1286.1 499.397 1286.39 500.309C1295.08 498.917 1299.88 496.157 1302.26 488.693L1299.16 487.829ZM1287.35 480.701C1286.63 483.245 1284.98 486.461 1282.96 488.381C1283.73 488.765 1284.9 489.533 1285.58 490.085C1287.66 487.949 1289.44 484.469 1290.57 481.445L1287.35 480.701ZM1316.21 480.815H1316.71V483.51H1316.51C1315.62 483.51 1314.82 483.643 1314.13 483.909C1313.43 484.174 1312.84 484.553 1312.36 485.045C1311.88 485.53 1311.52 486.116 1311.26 486.803C1311.01 487.491 1310.88 488.26 1310.88 489.112V491.948C1310.88 492.557 1310.94 493.096 1311.06 493.565C1311.18 494.026 1311.36 494.413 1311.59 494.725C1311.82 495.03 1312.09 495.26 1312.41 495.417C1312.72 495.565 1313.07 495.639 1313.46 495.639C1313.83 495.639 1314.16 495.561 1314.46 495.405C1314.76 495.249 1315.02 495.03 1315.23 494.749C1315.45 494.459 1315.61 494.124 1315.72 493.741C1315.84 493.35 1315.9 492.924 1315.9 492.463C1315.9 492.002 1315.84 491.577 1315.72 491.186C1315.61 490.795 1315.45 490.459 1315.23 490.178C1315.01 489.889 1314.75 489.667 1314.43 489.51C1314.12 489.354 1313.77 489.276 1313.38 489.276C1312.85 489.276 1312.38 489.401 1311.97 489.651C1311.57 489.893 1311.26 490.206 1311.04 490.588C1310.81 490.971 1310.69 491.374 1310.67 491.795L1309.65 491.139C1309.68 490.538 1309.8 489.967 1310.03 489.428C1310.26 488.889 1310.58 488.413 1310.99 487.999C1311.4 487.577 1311.9 487.249 1312.48 487.014C1313.05 486.772 1313.71 486.651 1314.43 486.651C1315.23 486.651 1315.93 486.803 1316.53 487.108C1317.14 487.413 1317.65 487.831 1318.05 488.362C1318.46 488.893 1318.77 489.506 1318.97 490.202C1319.17 490.897 1319.27 491.639 1319.27 492.428C1319.27 493.256 1319.14 494.026 1318.86 494.737C1318.6 495.448 1318.21 496.069 1317.7 496.6C1317.2 497.131 1316.6 497.545 1315.9 497.842C1315.2 498.139 1314.41 498.288 1313.53 498.288C1312.62 498.288 1311.8 498.124 1311.06 497.795C1310.32 497.459 1309.69 496.991 1309.16 496.389C1308.63 495.788 1308.22 495.073 1307.93 494.245C1307.65 493.417 1307.51 492.51 1307.51 491.526V490.213C1307.51 488.838 1307.71 487.581 1308.11 486.44C1308.51 485.292 1309.09 484.299 1309.85 483.463C1310.61 482.62 1311.52 481.967 1312.59 481.506C1313.66 481.045 1314.87 480.815 1316.21 480.815ZM1332.77 488.022V490.975C1332.77 492.256 1332.64 493.362 1332.36 494.292C1332.09 495.213 1331.7 495.971 1331.18 496.565C1330.67 497.151 1330.07 497.584 1329.36 497.866C1328.66 498.147 1327.88 498.288 1327.02 498.288C1326.33 498.288 1325.69 498.202 1325.1 498.03C1324.5 497.85 1323.97 497.573 1323.49 497.198C1323.02 496.823 1322.62 496.35 1322.27 495.78C1321.94 495.202 1321.68 494.514 1321.5 493.717C1321.32 492.92 1321.23 492.006 1321.23 490.975V488.022C1321.23 486.741 1321.37 485.643 1321.64 484.729C1321.92 483.807 1322.32 483.053 1322.82 482.467C1323.34 481.881 1323.95 481.452 1324.65 481.178C1325.36 480.897 1326.14 480.756 1327 480.756C1327.68 480.756 1328.32 480.846 1328.91 481.026C1329.5 481.198 1330.04 481.467 1330.51 481.834C1330.99 482.202 1331.39 482.674 1331.73 483.252C1332.07 483.823 1332.32 484.506 1332.5 485.303C1332.68 486.092 1332.77 486.999 1332.77 488.022ZM1329.39 491.42V487.565C1329.39 486.948 1329.35 486.409 1329.28 485.948C1329.22 485.487 1329.12 485.096 1328.99 484.776C1328.86 484.448 1328.69 484.182 1328.5 483.979C1328.3 483.776 1328.08 483.627 1327.83 483.534C1327.58 483.44 1327.3 483.393 1327 483.393C1326.61 483.393 1326.27 483.467 1325.98 483.616C1325.69 483.764 1325.44 484.002 1325.24 484.331C1325.04 484.651 1324.88 485.081 1324.77 485.62C1324.67 486.151 1324.62 486.799 1324.62 487.565V491.42C1324.62 492.038 1324.65 492.581 1324.71 493.049C1324.78 493.518 1324.88 493.92 1325.02 494.256C1325.16 494.584 1325.32 494.854 1325.51 495.065C1325.7 495.268 1325.93 495.417 1326.18 495.51C1326.43 495.604 1326.71 495.651 1327.02 495.651C1327.39 495.651 1327.73 495.577 1328.02 495.428C1328.31 495.272 1328.56 495.03 1328.77 494.702C1328.98 494.366 1329.13 493.928 1329.23 493.389C1329.34 492.85 1329.39 492.194 1329.39 491.42ZM1335.02 485.174V484.272C1335.02 483.624 1335.16 483.034 1335.45 482.502C1335.73 481.971 1336.14 481.545 1336.69 481.225C1337.23 480.905 1337.91 480.745 1338.7 480.745C1339.52 480.745 1340.21 480.905 1340.75 481.225C1341.31 481.545 1341.72 481.971 1342 482.502C1342.28 483.034 1342.42 483.624 1342.42 484.272V485.174C1342.42 485.807 1342.28 486.389 1342 486.92C1341.72 487.452 1341.31 487.877 1340.77 488.198C1340.22 488.518 1339.54 488.678 1338.74 488.678C1337.93 488.678 1337.24 488.518 1336.69 488.198C1336.14 487.877 1335.73 487.452 1335.45 486.92C1335.16 486.389 1335.02 485.807 1335.02 485.174ZM1337.26 484.272V485.174C1337.26 485.448 1337.31 485.709 1337.41 485.959C1337.52 486.202 1337.69 486.401 1337.91 486.557C1338.13 486.706 1338.41 486.78 1338.73 486.78C1339.06 486.78 1339.34 486.706 1339.55 486.557C1339.76 486.401 1339.91 486.202 1340.02 485.959C1340.12 485.709 1340.17 485.448 1340.17 485.174V484.272C1340.17 483.983 1340.11 483.717 1340 483.475C1339.9 483.225 1339.74 483.026 1339.52 482.877C1339.31 482.721 1339.04 482.643 1338.7 482.643C1338.39 482.643 1338.12 482.721 1337.91 482.877C1337.69 483.026 1337.52 483.225 1337.41 483.475C1337.31 483.717 1337.26 483.983 1337.26 484.272ZM1343.18 494.772V493.87C1343.18 493.229 1343.32 492.643 1343.6 492.112C1343.89 491.581 1344.31 491.155 1344.86 490.834C1345.41 490.514 1346.09 490.354 1346.89 490.354C1347.71 490.354 1348.39 490.514 1348.93 490.834C1349.48 491.155 1349.89 491.581 1350.18 492.112C1350.46 492.643 1350.6 493.229 1350.6 493.87V494.772C1350.6 495.413 1350.46 495.999 1350.18 496.53C1349.9 497.061 1349.49 497.487 1348.95 497.807C1348.4 498.127 1347.72 498.288 1346.92 498.288C1346.11 498.288 1345.42 498.127 1344.87 497.807C1344.31 497.487 1343.89 497.061 1343.6 496.53C1343.32 495.999 1343.18 495.413 1343.18 494.772ZM1345.43 493.87V494.772C1345.43 495.053 1345.49 495.319 1345.62 495.569C1345.74 495.819 1345.91 496.018 1346.13 496.167C1346.36 496.315 1346.62 496.389 1346.92 496.389C1347.29 496.389 1347.59 496.315 1347.8 496.167C1348.01 496.018 1348.15 495.819 1348.23 495.569C1348.32 495.319 1348.36 495.053 1348.36 494.772V493.87C1348.36 493.588 1348.3 493.327 1348.2 493.084C1348.09 492.834 1347.92 492.635 1347.7 492.487C1347.49 492.331 1347.22 492.252 1346.89 492.252C1346.57 492.252 1346.29 492.331 1346.07 492.487C1345.86 492.635 1345.7 492.834 1345.59 493.084C1345.48 493.327 1345.43 493.588 1345.43 493.87ZM1347.73 483.428L1339.39 496.764L1337.75 495.897L1346.09 482.561L1347.73 483.428Z" fill="#56878A"/>
<path d="M1052.07 283.968V286.776H1068.78V283.968H1052.07ZM1051.09 291.048V293.808H1067.87V291.048H1051.09ZM1048.31 298.656V301.464H1070V298.656H1048.31ZM1057.64 279.624V300.048H1060.64V279.624H1057.64ZM1052.1 279.912C1051.23 283.224 1049.7 286.536 1047.8 288.552C1048.55 288.96 1049.82 289.8 1050.39 290.304C1052.27 288 1054.02 284.304 1055.07 280.584L1052.1 279.912ZM1075.16 287.424V289.728H1094.1V287.424H1075.16ZM1073.55 281.256V283.488H1092.92V281.256H1073.55ZM1079.41 291.6V293.832H1092.71V291.6H1079.41ZM1079 295.368V297.576H1091.99V295.368H1079ZM1076.94 299.4V301.728H1093.91V299.4H1076.94ZM1081.59 279.648V283.008H1084.47V279.648H1081.59ZM1084.04 290.016V300.264H1086.87V290.016H1084.04ZM1073.72 287.424V291.432C1073.72 294.12 1073.53 297.936 1071.59 300.648C1072.19 300.984 1073.39 301.944 1073.84 302.472C1076.1 299.424 1076.53 294.648 1076.53 291.456V287.424H1073.72ZM1079.36 289.752C1078.79 291.432 1077.75 293.088 1076.51 294.168C1077.13 294.504 1078.16 295.248 1078.64 295.68C1079.94 294.408 1081.16 292.392 1081.88 290.352L1079.36 289.752ZM1076.87 284.448C1080.85 285.288 1085.82 286.776 1088.6 287.88L1090.35 286.392C1087.43 285.36 1082.51 283.92 1078.67 283.104L1076.87 284.448ZM1087.62 282.768C1085.24 284.328 1080.06 285.6 1075.98 286.2C1076.29 286.632 1076.79 287.448 1076.99 287.928C1081.31 287.208 1086.47 285.792 1089.54 283.8L1087.62 282.768ZM1096.19 281.064V283.584H1118.12V281.064H1096.19ZM1102.64 279.624V287.016H1111.23V279.624H1108.62V284.928H1105.16V279.624H1102.64ZM1099.59 285.936V295.896H1102.14V285.936H1099.59ZM1096.52 287.544V289.968H1100.94V287.544H1096.52ZM1095.97 293.04L1096.5 295.512C1097.94 295.032 1099.47 294.504 1100.99 293.952L1100.65 291.768C1098.87 292.248 1097.22 292.752 1095.97 293.04ZM1111.76 285.96V292.656C1111.76 294.912 1112.19 295.632 1114.26 295.632C1114.62 295.632 1115.46 295.632 1115.87 295.632C1117.4 295.632 1118.03 294.84 1118.27 292.176C1117.59 292.008 1116.56 291.624 1116.08 291.216C1116.01 293.064 1115.91 293.376 1115.55 293.376C1115.41 293.376 1114.86 293.376 1114.71 293.376C1114.4 293.376 1114.35 293.304 1114.35 292.632V285.96H1111.76ZM1116.39 286.944C1115.51 287.712 1114.09 288.624 1112.82 289.248C1113.11 289.752 1113.47 290.592 1113.61 291.12C1115 290.568 1116.71 289.8 1118.15 288.96L1116.39 286.944ZM1105.71 290.184H1108.09V293.064H1105.71V290.184ZM1103.39 288.12V295.152H1110.54V288.12H1103.39ZM1103.05 297.12C1103.34 298.68 1103.53 300.696 1103.53 301.944L1106.36 301.512C1106.34 300.312 1106.05 298.32 1105.71 296.808L1103.05 297.12ZM1107.83 297.168C1108.4 298.704 1108.95 300.72 1109.12 301.944L1112 301.368C1111.79 300.12 1111.16 298.176 1110.54 296.712L1107.83 297.168ZM1112.65 297.024C1113.78 298.632 1115.12 300.84 1115.65 302.184L1118.51 300.96C1117.88 299.592 1116.44 297.48 1115.31 295.968L1112.65 297.024ZM1098.68 296.184C1098.06 297.984 1096.88 299.88 1095.71 300.912L1098.42 302.088C1099.71 300.792 1100.84 298.8 1101.47 296.88L1098.68 296.184ZM1120.57 281.664V284.16H1141.67V281.664H1120.57ZM1134.54 292.752V293.136C1132.62 297.216 1127.12 299.112 1120.91 299.736C1121.36 300.36 1121.89 301.464 1122.11 302.184C1128.87 301.248 1134.78 298.992 1137.37 293.568L1135.57 292.656L1135.09 292.752H1134.54ZM1129.14 291.072C1127.67 292.752 1125.08 294.528 1121.63 295.824C1122.23 296.208 1123.07 297.096 1123.47 297.696C1127.15 296.088 1129.88 294.096 1132.02 291.72L1129.14 291.072ZM1128.63 292.752L1126.55 294.84H1135.45V292.752H1128.63ZM1129.64 279.6V291.072H1132.4V279.6H1129.64ZM1129.81 285.624C1127.84 288.72 1123.88 291.312 1119.59 292.464C1120.14 292.992 1120.88 294 1121.24 294.648C1125.73 293.184 1129.62 290.208 1131.92 286.416L1129.81 285.624ZM1132.28 285.648L1130.15 286.512C1132.55 290.232 1136.55 293.328 1140.9 294.864C1141.28 294.192 1142.07 293.16 1142.65 292.632C1138.38 291.384 1134.32 288.696 1132.28 285.648ZM1124.34 284.064C1123.64 286.032 1122.15 287.712 1120.23 288.744C1120.79 289.104 1121.72 289.92 1122.13 290.376C1124.12 289.08 1125.85 287.04 1126.76 284.544L1124.34 284.064ZM1123.76 287.232C1124.67 287.832 1125.9 288.696 1126.47 289.248L1127.99 287.424C1127.36 286.896 1126.11 286.104 1125.2 285.6L1123.76 287.232ZM1136.22 284.088C1135.67 285.6 1134.59 287.016 1133.27 287.928C1133.82 288.312 1134.73 289.128 1135.16 289.584C1136.58 288.432 1137.87 286.608 1138.59 284.688L1136.22 284.088ZM1135.67 287.136C1137.23 288.072 1139.29 289.512 1140.3 290.4L1141.81 288.576C1140.75 287.712 1138.64 286.392 1137.13 285.528L1135.67 287.136ZM1126.19 297.192C1130.12 298.56 1135.55 300.792 1138.16 302.232L1140.68 300.24C1137.68 298.752 1132.21 296.688 1128.51 295.488L1126.19 297.192ZM1143.99 284.4V287.064H1151.77V284.4H1143.99ZM1147.23 279.624C1146.49 284.4 1145.17 290.736 1144.14 294.528L1146.49 295.776C1147.62 291.456 1149.01 285.024 1149.95 279.912L1147.23 279.624ZM1145.41 294.144C1147.69 295.632 1150.45 297.912 1151.67 299.568L1153.38 297.264C1152.11 295.632 1149.25 293.52 1146.97 292.104L1145.41 294.144ZM1150.76 284.4V284.928C1150.31 292.512 1148.15 297.816 1144.04 299.952C1144.62 300.504 1145.39 301.536 1145.77 302.232C1150.57 299.304 1152.9 294 1153.47 284.616L1151.75 284.328L1151.24 284.4H1150.76ZM1153.35 280.896V283.488H1161.2V280.896H1153.35ZM1161.39 287.52L1161.03 290.112H1164.49V287.52H1161.39ZM1163.53 287.52V288.024C1163.29 295.488 1162.95 298.416 1162.38 299.064C1162.11 299.352 1161.87 299.4 1161.47 299.4C1160.96 299.4 1159.86 299.4 1158.71 299.304C1159.16 300.048 1159.5 301.2 1159.55 301.992C1160.79 302.064 1161.99 302.064 1162.76 301.944C1163.6 301.824 1164.18 301.584 1164.78 300.816C1165.59 299.832 1165.88 296.736 1166.19 288.696C1166.22 288.36 1166.24 287.52 1166.24 287.52H1163.53ZM1155.49 281.784C1155.44 288.864 1155.51 295.992 1152.06 300.288C1152.78 300.72 1153.69 301.56 1154.15 302.208C1157.99 297.336 1158.23 289.536 1158.32 281.784H1155.49ZM1160.48 280.896C1160.36 284.136 1160 288.312 1159.59 290.928L1162.21 291.12C1162.57 288.48 1162.93 284.256 1163.12 280.896H1160.48ZM1179.61 286.608V289.2H1188.2V286.608H1179.61ZM1179.63 292.272V294.888H1188.23V292.272H1179.63ZM1179.61 297.96V300.552H1188.23V297.96H1179.61ZM1178.24 280.92V301.968H1181V283.632H1186.67V301.824H1189.57V280.92H1178.24ZM1168.16 284.568V287.304H1177.4V284.568H1168.16ZM1171.64 279.624V302.16H1174.4V279.624H1171.64ZM1171.47 286.416C1170.83 289.488 1169.29 293.232 1167.56 295.32C1167.99 296.04 1168.67 297.216 1168.93 298.032C1170.83 295.536 1172.41 290.928 1173.2 287.016L1171.47 286.416ZM1174.19 288.528L1172.87 289.848C1173.73 291.048 1175.43 293.664 1176.13 295.08L1177.76 292.752C1177.23 292.104 1174.88 289.2 1174.19 288.528ZM1206.85 279.6V283.584H1209.68V279.6H1206.85ZM1209.18 285.936C1210.33 287.52 1211.63 289.656 1212.11 291.024L1214.53 289.776C1213.95 288.384 1212.59 286.344 1211.43 284.832L1209.18 285.936ZM1204.57 285.048C1203.92 286.824 1202.75 288.576 1201.38 289.704C1202.03 290.064 1203.13 290.88 1203.63 291.36C1205.03 290.016 1206.42 287.88 1207.23 285.744L1204.57 285.048ZM1202.24 282.384V284.976H1214.19V282.384H1202.24ZM1206.47 289.728L1203.97 290.328C1205.55 295.824 1208.27 300.048 1212.83 302.208C1213.21 301.488 1214.05 300.408 1214.67 299.88C1210.45 298.152 1207.76 294.312 1206.47 289.728ZM1209.75 289.68C1208.65 294.672 1205.84 298.176 1201.11 300C1201.67 300.48 1202.53 301.608 1202.89 302.256C1208.07 300 1211 296.112 1212.39 290.28L1209.75 289.68ZM1192.07 281.928V284.4H1201.86V281.928H1192.07ZM1191.8 295.848V298.344H1202.36V295.848H1191.8ZM1195.74 279.648V286.632H1198.31V279.648H1195.74ZM1196.03 286.68V293.352H1195.74V302.16H1198.31V293.352H1197.99V286.68H1196.03ZM1194.56 290.976H1199.51V292.416H1194.56V290.976ZM1194.56 287.688H1199.51V289.08H1194.56V287.688ZM1192.5 285.696V294.408H1201.67V285.696H1192.5ZM1216.02 283.296V285.96H1226.48V283.296H1216.02ZM1219.91 288.528V291.144H1223.84V288.528H1219.91ZM1219.79 279.648V284.16H1222.64V279.648H1219.79ZM1231.88 282.864C1232.82 285.576 1234.74 288.84 1237.16 290.616C1237.55 289.656 1238.07 288.48 1238.6 287.688C1236.32 286.32 1234.35 282.888 1233.2 279.528H1230.37C1229.55 282.48 1227.66 286.224 1225.33 287.904C1225.79 288.6 1226.39 289.8 1226.65 290.64C1229.05 288.864 1230.97 285.504 1231.88 282.864ZM1218.35 284.976C1218.3 291.408 1218.25 296.856 1215.51 300.168C1216.23 300.672 1217.15 301.632 1217.58 302.328C1220.79 298.464 1221.06 292.2 1221.15 284.976H1218.35ZM1222.93 288.528V289.056C1222.83 296.256 1222.69 298.704 1222.33 299.256C1222.14 299.544 1221.95 299.616 1221.63 299.616C1221.25 299.616 1220.6 299.616 1219.81 299.544C1220.22 300.264 1220.51 301.368 1220.55 302.136C1221.56 302.184 1222.52 302.16 1223.12 302.064C1223.82 301.92 1224.3 301.704 1224.75 301.008C1225.38 300.144 1225.5 297.312 1225.62 289.68C1225.64 289.344 1225.64 288.528 1225.64 288.528H1222.93ZM1229.1 290.544C1230.61 291.6 1232.41 293.184 1233.2 294.312L1235.24 292.272C1234.38 291.168 1232.51 289.728 1230.99 288.744L1229.1 290.544ZM1227.03 297.12C1229.87 298.416 1233.39 300.576 1235.03 302.184L1236.92 299.64C1235.19 298.056 1231.55 296.064 1228.79 294.888L1227.03 297.12ZM1243.88 280.128C1243.11 283.44 1241.65 286.728 1239.75 288.696C1240.52 289.008 1241.91 289.728 1242.54 290.16C1244.34 287.928 1245.95 284.4 1246.88 280.704L1243.88 280.128ZM1244.31 283.68L1243.47 286.512H1260.71V283.68H1244.31ZM1240.16 291.312V294.168H1262.1V291.312H1240.16ZM1249.88 279.624V302.16H1252.95V279.624H1249.88ZM1263.99 284.4V287.064H1271.77V284.4H1263.99ZM1267.23 279.624C1266.49 284.4 1265.17 290.736 1264.14 294.528L1266.49 295.776C1267.62 291.456 1269.01 285.024 1269.95 279.912L1267.23 279.624ZM1265.41 294.144C1267.69 295.632 1270.45 297.912 1271.67 299.568L1273.38 297.264C1272.11 295.632 1269.25 293.52 1266.97 292.104L1265.41 294.144ZM1270.76 284.4V284.928C1270.31 292.512 1268.15 297.816 1264.04 299.952C1264.62 300.504 1265.39 301.536 1265.77 302.232C1270.57 299.304 1272.9 294 1273.47 284.616L1271.75 284.328L1271.24 284.4H1270.76ZM1273.35 280.896V283.488H1281.2V280.896H1273.35ZM1281.39 287.52L1281.03 290.112H1284.49V287.52H1281.39ZM1283.53 287.52V288.024C1283.29 295.488 1282.95 298.416 1282.38 299.064C1282.11 299.352 1281.87 299.4 1281.47 299.4C1280.96 299.4 1279.86 299.4 1278.71 299.304C1279.16 300.048 1279.5 301.2 1279.55 301.992C1280.79 302.064 1281.99 302.064 1282.76 301.944C1283.6 301.824 1284.18 301.584 1284.78 300.816C1285.59 299.832 1285.88 296.736 1286.19 288.696C1286.22 288.36 1286.24 287.52 1286.24 287.52H1283.53ZM1275.49 281.784C1275.44 288.864 1275.51 295.992 1272.06 300.288C1272.78 300.72 1273.69 301.56 1274.15 302.208C1277.99 297.336 1278.23 289.536 1278.32 281.784H1275.49ZM1280.48 280.896C1280.36 284.136 1280 288.312 1279.59 290.928L1282.21 291.12C1282.57 288.48 1282.93 284.256 1283.12 280.896H1280.48Z" fill="#56878A"/>
<path d="M1174.44 369.624V379.8C1174.44 383.952 1173.98 387.696 1170.24 390.288C1170.86 390.72 1171.84 391.608 1172.3 392.184C1176.5 389.184 1177 384.648 1177 379.8V369.624H1174.44ZM1178.68 369.624V392.16H1181.42V369.624H1178.68ZM1170.91 373.584V376.176H1175.56V373.584H1170.91ZM1180.12 373.584V376.176H1185.19V373.584H1180.12ZM1180.32 378.624V381.168H1184.92V378.624H1180.32ZM1180.08 383.808V386.4H1185.57V383.808H1180.08ZM1171.1 378.624V381.168H1175.66V378.624H1171.1ZM1169.61 384.84L1170.69 387.312C1172.11 386.784 1173.72 386.16 1175.25 385.512L1174.82 383.256C1172.88 383.88 1170.98 384.48 1169.61 384.84ZM1162.82 381.72L1163.47 384.48C1165.58 383.88 1168.22 383.112 1170.69 382.344L1170.31 379.752C1167.6 380.52 1164.74 381.288 1162.82 381.72ZM1163.2 374.208V376.848H1170.55V374.208H1163.2ZM1165.75 369.672V389.136C1165.75 389.472 1165.63 389.544 1165.34 389.544C1165.05 389.568 1164.21 389.568 1163.35 389.52C1163.68 390.312 1164.02 391.488 1164.09 392.208C1165.65 392.208 1166.68 392.112 1167.4 391.656C1168.15 391.224 1168.39 390.48 1168.39 389.136V369.672H1165.75ZM1187.16 370.752V373.272H1195.75V370.752H1187.16ZM1189.8 378.192V380.688H1192.63V386.664H1189.8V389.136H1195.03V378.192H1189.8ZM1189.68 372.144C1189.24 376.44 1188.43 380.616 1186.72 383.256C1187.18 383.88 1187.92 385.248 1188.19 385.896C1190.44 382.656 1191.6 377.64 1192.27 372.528L1189.68 372.144ZM1188.72 378.192V390.888H1191.07V378.192H1188.72ZM1199.71 381.336C1199.59 382.872 1199.16 384.528 1198.48 385.488L1200.31 386.448C1201.12 385.248 1201.53 383.328 1201.65 381.648L1199.71 381.336ZM1206.88 380.928C1206.5 382.248 1205.78 384.072 1205.13 385.248L1206.96 385.992C1207.65 384.912 1208.49 383.256 1209.31 381.792L1206.88 380.928ZM1196.68 370.368V375.648H1208.71V370.368H1206.21V373.344H1199.06V370.368H1196.68ZM1195.51 377.112V379.536H1209.52V377.112H1195.51ZM1201.32 369.648V374.928H1203.84V369.648H1201.32ZM1202.59 379.896C1202.47 385.536 1202.16 388.512 1197.69 390.216C1198.2 390.672 1198.84 391.584 1199.13 392.208C1204.2 390.12 1204.77 386.352 1204.92 379.896H1202.59ZM1204.84 380.88L1202.85 381C1203.14 385.44 1203.67 390 1208.32 392.184C1208.66 391.512 1209.36 390.552 1209.93 390.024C1205.56 388.272 1205.04 384.84 1204.84 380.88ZM1196.49 376.152V380.28C1196.49 383.544 1196.25 387.432 1194.16 390.624C1194.84 390.936 1195.82 391.632 1196.35 392.112C1198.65 388.536 1198.92 384.072 1198.92 380.304V376.152H1196.49ZM1228.84 371.136C1229.95 371.808 1231.27 372.84 1231.87 373.56L1233.48 372C1232.8 371.256 1231.46 370.296 1230.36 369.72L1228.84 371.136ZM1221.72 380.496V382.584H1224.16V385.176H1221.72V387.288H1226.08V380.496H1221.72ZM1230.74 377.28C1229.52 383.112 1226.97 387.6 1222.75 390.168C1223.28 390.624 1224.26 391.56 1224.64 392.04C1228.94 389.016 1231.72 384.168 1233.21 377.736L1230.74 377.28ZM1217.42 373.176V379.92C1217.42 383.16 1217.28 387.6 1215.43 390.696C1216 390.96 1217.13 391.704 1217.59 392.16C1219.6 388.776 1219.94 383.52 1219.94 379.92V373.176H1217.42ZM1218.96 373.176V375.72H1233.28V373.176H1218.96ZM1220.73 377.064V379.152H1225.87V377.064H1220.73ZM1220.61 380.496V388.56H1222.51V380.496H1220.61ZM1212.12 371.88C1213.51 372.552 1215.21 373.608 1216.03 374.4L1217.76 372.096C1216.87 371.304 1215.09 370.368 1213.75 369.792L1212.12 371.88ZM1210.99 378.384C1212.36 378.984 1214.08 380.016 1214.88 380.784L1216.58 378.456C1215.69 377.688 1213.94 376.776 1212.57 376.272L1210.99 378.384ZM1211.13 390.264L1213.72 391.704C1214.73 389.28 1215.76 386.4 1216.6 383.736L1214.28 382.248C1213.34 385.152 1212.04 388.32 1211.13 390.264ZM1226.08 369.912C1226.37 382.896 1227.5 392.064 1231.24 392.136C1232.2 392.136 1233.43 391.176 1234 386.784C1233.57 386.568 1232.42 385.848 1231.99 385.296C1231.84 387.528 1231.63 388.728 1231.27 388.704C1229.97 388.656 1228.8 379.728 1228.7 369.912H1226.08ZM1244.85 369.648V381.288C1244.85 381.648 1244.71 381.744 1244.3 381.744C1243.87 381.744 1242.36 381.768 1240.99 381.72C1241.42 382.536 1241.88 383.832 1242 384.672C1243.96 384.672 1245.45 384.6 1246.46 384.144C1247.52 383.688 1247.8 382.872 1247.8 381.336V369.648H1244.85ZM1250.08 373.68C1252.03 376.224 1254.09 379.608 1254.81 381.84L1257.76 380.232C1256.92 377.928 1254.72 374.712 1252.75 372.312L1250.08 373.68ZM1251.16 379.8C1249.2 386.208 1244.83 388.488 1236.86 389.4C1237.46 390.144 1238.11 391.368 1238.4 392.28C1247.08 390.888 1251.88 388.128 1254.26 380.664L1251.16 379.8ZM1239.36 372.672C1238.64 375.216 1236.98 378.432 1234.96 380.352C1235.73 380.736 1236.91 381.504 1237.58 382.056C1239.67 379.92 1241.44 376.44 1242.57 373.416L1239.36 372.672ZM1271.1 372.962V374.778L1264.5 390.024H1260.94L1267.54 375.599H1259.04V372.962H1271.1ZM1284.78 379.993V382.946C1284.78 384.228 1284.64 385.333 1284.37 386.263C1284.09 387.185 1283.7 387.942 1283.18 388.536C1282.68 389.122 1282.07 389.556 1281.37 389.837C1280.66 390.118 1279.88 390.259 1279.02 390.259C1278.34 390.259 1277.7 390.173 1277.1 390.001C1276.51 389.821 1275.97 389.544 1275.5 389.169C1275.03 388.794 1274.62 388.321 1274.28 387.751C1273.94 387.173 1273.68 386.485 1273.5 385.688C1273.32 384.892 1273.23 383.978 1273.23 382.946V379.993C1273.23 378.712 1273.37 377.614 1273.64 376.7C1273.93 375.778 1274.32 375.024 1274.83 374.438C1275.34 373.853 1275.95 373.423 1276.66 373.149C1277.36 372.868 1278.14 372.728 1279 372.728C1279.69 372.728 1280.32 372.817 1280.91 372.997C1281.5 373.169 1282.04 373.438 1282.52 373.806C1282.99 374.173 1283.4 374.646 1283.73 375.224C1284.07 375.794 1284.33 376.478 1284.51 377.274C1284.69 378.063 1284.78 378.97 1284.78 379.993ZM1281.39 383.392V379.536C1281.39 378.919 1281.36 378.38 1281.29 377.919C1281.22 377.458 1281.12 377.067 1280.99 376.747C1280.86 376.419 1280.7 376.153 1280.5 375.95C1280.3 375.747 1280.08 375.599 1279.83 375.505C1279.58 375.411 1279.3 375.364 1279 375.364C1278.62 375.364 1278.28 375.438 1277.98 375.587C1277.69 375.735 1277.45 375.974 1277.24 376.302C1277.04 376.622 1276.88 377.052 1276.77 377.591C1276.67 378.122 1276.62 378.771 1276.62 379.536V383.392C1276.62 384.009 1276.65 384.552 1276.71 385.021C1276.79 385.489 1276.89 385.892 1277.02 386.228C1277.16 386.556 1277.32 386.825 1277.51 387.036C1277.71 387.239 1277.93 387.388 1278.18 387.481C1278.44 387.575 1278.72 387.622 1279.02 387.622C1279.4 387.622 1279.73 387.548 1280.02 387.399C1280.32 387.243 1280.57 387.001 1280.77 386.673C1280.98 386.337 1281.14 385.899 1281.24 385.36C1281.34 384.821 1281.39 384.165 1281.39 383.392ZM1287.03 377.146V376.243C1287.03 375.595 1287.17 375.005 1287.45 374.474C1287.73 373.942 1288.14 373.517 1288.69 373.196C1289.24 372.876 1289.91 372.716 1290.71 372.716C1291.53 372.716 1292.21 372.876 1292.76 373.196C1293.31 373.517 1293.73 373.942 1294 374.474C1294.28 375.005 1294.42 375.595 1294.42 376.243V377.146C1294.42 377.778 1294.28 378.36 1294 378.892C1293.73 379.423 1293.32 379.849 1292.77 380.169C1292.22 380.489 1291.55 380.649 1290.74 380.649C1289.93 380.649 1289.25 380.489 1288.69 380.169C1288.14 379.849 1287.73 379.423 1287.45 378.892C1287.17 378.36 1287.03 377.778 1287.03 377.146ZM1289.27 376.243V377.146C1289.27 377.419 1289.32 377.681 1289.42 377.931C1289.53 378.173 1289.69 378.372 1289.91 378.528C1290.14 378.677 1290.41 378.751 1290.73 378.751C1291.07 378.751 1291.34 378.677 1291.55 378.528C1291.76 378.372 1291.92 378.173 1292.02 377.931C1292.12 377.681 1292.17 377.419 1292.17 377.146V376.243C1292.17 375.954 1292.12 375.688 1292.01 375.446C1291.91 375.196 1291.75 374.997 1291.53 374.849C1291.32 374.692 1291.04 374.614 1290.71 374.614C1290.39 374.614 1290.13 374.692 1289.91 374.849C1289.69 374.997 1289.53 375.196 1289.42 375.446C1289.32 375.688 1289.27 375.954 1289.27 376.243ZM1295.18 386.743V385.841C1295.18 385.2 1295.32 384.614 1295.61 384.083C1295.89 383.552 1296.31 383.126 1296.86 382.806C1297.41 382.485 1298.09 382.325 1298.9 382.325C1299.71 382.325 1300.39 382.485 1300.94 382.806C1301.48 383.126 1301.9 383.552 1302.18 384.083C1302.46 384.614 1302.6 385.2 1302.6 385.841V386.743C1302.6 387.384 1302.46 387.97 1302.18 388.501C1301.91 389.032 1301.5 389.458 1300.95 389.778C1300.4 390.099 1299.73 390.259 1298.92 390.259C1298.11 390.259 1297.43 390.099 1296.87 389.778C1296.32 389.458 1295.89 389.032 1295.61 388.501C1295.32 387.97 1295.18 387.384 1295.18 386.743ZM1297.43 385.841V386.743C1297.43 387.024 1297.5 387.29 1297.62 387.54C1297.75 387.79 1297.92 387.989 1298.14 388.138C1298.36 388.286 1298.62 388.36 1298.92 388.36C1299.3 388.36 1299.59 388.286 1299.8 388.138C1300.01 387.989 1300.16 387.79 1300.23 387.54C1300.32 387.29 1300.36 387.024 1300.36 386.743V385.841C1300.36 385.56 1300.31 385.298 1300.2 385.056C1300.09 384.806 1299.93 384.606 1299.71 384.458C1299.5 384.302 1299.23 384.224 1298.9 384.224C1298.57 384.224 1298.3 384.302 1298.08 384.458C1297.87 384.606 1297.71 384.806 1297.6 385.056C1297.49 385.298 1297.43 385.56 1297.43 385.841ZM1299.73 375.399L1291.4 388.735L1289.76 387.868L1298.09 374.532L1299.73 375.399Z" fill="#56878A"/>
<g clip-path="url(#clip1_730_3104)">
<path d="M1114.66 359.654C1117.27 359.654 1119.39 357.538 1119.39 354.927C1119.39 352.317 1117.27 350.201 1114.66 350.201C1112.05 350.201 1109.93 352.317 1109.93 354.927C1109.93 357.538 1112.05 359.654 1114.66 359.654Z" fill="#E0E0E0"/>
<path d="M1114.66 359.653C1113.94 359.653 1113.23 359.487 1112.58 359.17C1111.93 358.852 1111.37 358.39 1110.93 357.82C1110.48 357.25 1110.18 356.586 1110.03 355.88C1109.89 355.174 1109.91 354.444 1110.09 353.746C1110.35 354.757 1110.94 355.652 1111.77 356.291C1112.6 356.93 1113.61 357.277 1114.66 357.277C1115.71 357.277 1116.72 356.93 1117.55 356.291C1118.38 355.652 1118.97 354.757 1119.23 353.746C1119.41 354.444 1119.43 355.174 1119.29 355.88C1119.14 356.586 1118.84 357.25 1118.39 357.82C1117.95 358.39 1117.39 358.852 1116.74 359.17C1116.09 359.487 1115.38 359.653 1114.66 359.653Z" fill="#E0E0E0"/>
<path d="M1092.21 423.459C1094.17 423.459 1095.76 421.872 1095.76 419.914C1095.76 417.956 1094.17 416.369 1092.21 416.369C1090.25 416.369 1088.67 417.956 1088.67 419.914C1088.67 421.872 1090.25 423.459 1092.21 423.459Z" fill="#E0E0E0"/>
<path d="M1092.21 423.458C1091.64 423.457 1091.09 423.319 1090.58 423.058C1090.08 422.797 1089.65 422.419 1089.32 421.956C1089 421.493 1088.79 420.959 1088.71 420.398C1088.63 419.837 1088.69 419.266 1088.88 418.732C1089.13 419.416 1089.58 420.007 1090.18 420.425C1090.77 420.843 1091.48 421.067 1092.21 421.067C1092.94 421.067 1093.65 420.843 1094.25 420.425C1094.84 420.007 1095.29 419.416 1095.54 418.732C1095.73 419.266 1095.79 419.837 1095.71 420.398C1095.63 420.959 1095.42 421.493 1095.1 421.956C1094.77 422.419 1094.34 422.797 1093.84 423.058C1093.33 423.319 1092.78 423.457 1092.21 423.458Z" fill="#E0E0E0"/>
<path d="M1060.9 364.38C1063.19 364.38 1065.04 362.528 1065.04 360.244C1065.04 357.96 1063.19 356.109 1060.9 356.109C1058.62 356.109 1056.77 357.96 1056.77 360.244C1056.77 362.528 1058.62 364.38 1060.9 364.38Z" fill="#E0E0E0"/>
<path d="M1060.9 364.38C1060.26 364.379 1059.62 364.228 1059.05 363.939C1058.47 363.65 1057.97 363.23 1057.59 362.714C1057.2 362.198 1056.94 361.599 1056.83 360.965C1056.72 360.331 1056.76 359.68 1056.94 359.063C1057.2 359.913 1057.72 360.657 1058.44 361.186C1059.15 361.715 1060.01 362.001 1060.9 362.001C1061.79 362.001 1062.65 361.715 1063.36 361.186C1064.08 360.657 1064.6 359.913 1064.86 359.063C1065.04 359.68 1065.08 360.331 1064.97 360.965C1064.86 361.599 1064.6 362.198 1064.21 362.714C1063.83 363.23 1063.33 363.65 1062.75 363.939C1062.18 364.228 1061.54 364.379 1060.9 364.38Z" fill="#E0E0E0"/>
<path d="M1053.22 415.187C1054.52 415.187 1055.58 414.129 1055.58 412.824C1055.58 411.519 1054.52 410.461 1053.22 410.461C1051.91 410.461 1050.86 411.519 1050.86 412.824C1050.86 414.129 1051.91 415.187 1053.22 415.187Z" fill="#E0E0E0"/>
<path d="M1053.22 415.187C1052.86 415.186 1052.5 415.103 1052.18 414.943C1051.86 414.784 1051.58 414.553 1051.36 414.268C1051.14 413.983 1050.98 413.652 1050.91 413.299C1050.84 412.947 1050.85 412.582 1050.94 412.233C1051.07 412.734 1051.37 413.176 1051.78 413.491C1052.2 413.806 1052.7 413.977 1053.22 413.977C1053.74 413.977 1054.24 413.806 1054.65 413.491C1055.07 413.176 1055.36 412.734 1055.5 412.233C1055.59 412.582 1055.6 412.947 1055.53 413.299C1055.45 413.652 1055.3 413.983 1055.08 414.268C1054.86 414.553 1054.58 414.784 1054.26 414.943C1053.93 415.103 1053.58 415.186 1053.22 415.187Z" fill="#E0E0E0"/>
<path d="M1115.57 388.165C1116.05 385.989 1115.89 383.723 1115.13 381.631C1114.36 379.539 1113.02 377.707 1111.26 376.349C1112.14 374.877 1112.45 373.137 1112.15 371.451C1111.84 369.764 1110.93 368.246 1109.59 367.176C1108.25 366.107 1106.57 365.558 1104.86 365.633C1103.15 365.707 1101.52 366.4 1100.28 367.582C1097.81 365.505 1094.95 363.957 1091.86 363.034C1088.77 362.11 1085.52 361.831 1082.32 362.213C1079.11 362.595 1076.02 363.631 1073.24 365.255C1070.45 366.88 1068.03 369.059 1066.12 371.658C1064.65 371.373 1063.13 371.467 1061.7 371.931C1060.27 372.395 1058.99 373.215 1057.96 374.312C1056.94 375.41 1056.21 376.75 1055.85 378.205C1055.49 379.661 1055.5 381.186 1055.89 382.635C1053.49 383.422 1051.45 385.036 1050.14 387.187C1048.82 389.338 1048.31 391.887 1048.7 394.378C1049.09 396.87 1050.35 399.142 1052.26 400.79C1054.17 402.437 1056.6 403.352 1059.13 403.372C1062.55 403.372 1061.49 402.119 1061.49 404.553C1061.49 412.399 1072.4 414.396 1075.2 407.082C1078.24 408.498 1081.55 409.247 1084.91 409.277C1088.26 409.308 1091.59 408.62 1094.66 407.259C1096 408.191 1097.52 408.819 1099.13 409.099C1100.74 409.38 1102.38 409.306 1103.96 408.883C1105.54 408.46 1107 407.698 1108.25 406.65C1109.5 405.602 1110.51 404.294 1111.2 402.816C1112.19 403.223 1113.26 403.418 1114.33 403.387C1115.41 403.356 1116.46 403.1 1117.43 402.636C1118.4 402.172 1119.26 401.511 1119.95 400.694C1120.65 399.878 1121.17 398.924 1121.47 397.895C1121.78 396.866 1121.86 395.784 1121.73 394.719C1121.59 393.655 1121.23 392.631 1120.67 391.714C1120.11 390.797 1119.37 390.008 1118.48 389.397C1117.6 388.785 1116.6 388.366 1115.55 388.165H1115.57Z" fill="#E0E0E0"/>
<path d="M1121.75 395.691C1121.74 396.942 1121.43 398.173 1120.84 399.275C1120.25 400.378 1119.4 401.32 1118.36 402.019C1117.32 402.717 1116.13 403.152 1114.89 403.285C1113.64 403.418 1112.39 403.245 1111.22 402.781C1110.53 404.258 1109.53 405.566 1108.27 406.614C1107.02 407.662 1105.56 408.424 1103.99 408.847C1102.41 409.271 1100.76 409.344 1099.15 409.064C1097.55 408.783 1096.02 408.155 1094.68 407.224C1091.61 408.583 1088.29 409.271 1084.93 409.24C1081.58 409.21 1078.26 408.462 1075.22 407.046C1072.41 414.407 1061.49 412.387 1061.49 404.553C1061.49 402.107 1062.58 403.372 1059.13 403.372C1056.91 403.368 1054.75 402.671 1052.95 401.379C1051.15 400.087 1049.79 398.265 1049.08 396.166C1048.36 394.067 1048.32 391.797 1048.96 389.674C1049.6 387.551 1050.89 385.681 1052.64 384.325C1048.1 391.249 1052.71 401.008 1060.81 401.008C1064.21 401.008 1062.67 399.661 1062.67 402.781C1062.67 409.941 1072.79 411.903 1075.27 405.014C1078.24 406.29 1081.44 406.938 1084.67 406.918C1087.9 406.897 1091.09 406.209 1094.04 404.896C1099.42 408.89 1106.78 406.727 1109.55 400.453C1115.9 403.218 1121.94 395.585 1118.32 389.311C1119.38 390.006 1120.25 390.953 1120.85 392.067C1121.44 393.181 1121.76 394.427 1121.75 395.691Z" fill="#E0E0E0"/>
<path d="M1114.66 360.835C1115.83 360.835 1116.97 360.489 1117.94 359.84C1118.92 359.19 1119.67 358.268 1120.12 357.188C1120.57 356.109 1120.68 354.921 1120.46 353.775C1120.23 352.629 1119.67 351.576 1118.84 350.75C1118.01 349.924 1116.96 349.361 1115.81 349.133C1114.67 348.905 1113.48 349.022 1112.4 349.469C1111.32 349.916 1110.4 350.674 1109.75 351.645C1109.1 352.617 1108.75 353.759 1108.75 354.927C1108.75 356.494 1109.38 357.997 1110.48 359.105C1111.59 360.213 1113.09 360.835 1114.66 360.835ZM1114.66 351.383C1115.36 351.383 1116.05 351.591 1116.63 351.98C1117.21 352.37 1117.67 352.923 1117.94 353.571C1118.2 354.219 1118.28 354.931 1118.14 355.619C1118 356.307 1117.66 356.938 1117.17 357.434C1116.67 357.93 1116.04 358.267 1115.35 358.404C1114.67 358.541 1113.95 358.471 1113.31 358.202C1112.66 357.934 1112.1 357.48 1111.71 356.897C1111.32 356.314 1111.12 355.628 1111.12 354.927C1111.12 353.987 1111.49 353.086 1112.16 352.421C1112.82 351.756 1113.72 351.383 1114.66 351.383Z" fill="#597476"/>
<path d="M1092.21 415.188C1091.28 415.188 1090.36 415.465 1089.58 415.984C1088.81 416.503 1088.2 417.241 1087.84 418.105C1087.49 418.969 1087.39 419.919 1087.58 420.836C1087.76 421.753 1088.21 422.595 1088.87 423.256C1089.53 423.917 1090.37 424.367 1091.29 424.549C1092.21 424.732 1093.16 424.638 1094.02 424.28C1094.88 423.923 1095.62 423.317 1096.14 422.54C1096.66 421.762 1096.94 420.849 1096.94 419.914C1096.94 418.66 1096.44 417.458 1095.55 416.572C1094.67 415.685 1093.46 415.188 1092.21 415.188ZM1092.21 422.277C1091.74 422.277 1091.29 422.138 1090.9 421.879C1090.51 421.619 1090.21 421.25 1090.03 420.818C1089.85 420.386 1089.8 419.911 1089.89 419.453C1089.98 418.994 1090.21 418.573 1090.54 418.243C1090.87 417.912 1091.29 417.687 1091.75 417.596C1092.21 417.505 1092.68 417.552 1093.11 417.731C1093.55 417.909 1093.92 418.212 1094.18 418.601C1094.44 418.99 1094.57 419.446 1094.57 419.914C1094.57 420.541 1094.32 421.142 1093.88 421.585C1093.44 422.028 1092.84 422.277 1092.21 422.277Z" fill="#597476"/>
<path d="M1060.9 365.561C1061.95 365.561 1062.98 365.25 1063.85 364.665C1064.73 364.081 1065.41 363.251 1065.81 362.279C1066.21 361.307 1066.32 360.238 1066.11 359.207C1065.91 358.176 1065.4 357.228 1064.66 356.485C1063.92 355.741 1062.97 355.235 1061.94 355.029C1060.9 354.824 1059.84 354.93 1058.86 355.332C1057.89 355.734 1057.06 356.416 1056.48 357.29C1055.89 358.165 1055.58 359.193 1055.58 360.244C1055.59 361.654 1056.15 363.004 1057.14 364.001C1058.14 364.997 1059.49 365.558 1060.9 365.561ZM1060.9 357.29C1061.48 357.29 1062.05 357.464 1062.54 357.788C1063.03 358.113 1063.4 358.574 1063.63 359.114C1063.85 359.654 1063.91 360.248 1063.8 360.821C1063.68 361.394 1063.4 361.92 1062.99 362.333C1062.57 362.746 1062.05 363.027 1061.48 363.141C1060.9 363.255 1060.31 363.197 1059.77 362.973C1059.23 362.75 1058.77 362.371 1058.44 361.885C1058.12 361.4 1057.95 360.829 1057.95 360.244C1057.95 359.461 1058.26 358.71 1058.81 358.156C1059.36 357.602 1060.12 357.29 1060.9 357.29Z" fill="#597476"/>
<path d="M1053.22 409.28C1052.52 409.28 1051.83 409.488 1051.25 409.877C1050.67 410.267 1050.21 410.82 1049.95 411.468C1049.68 412.116 1049.61 412.828 1049.74 413.516C1049.88 414.204 1050.22 414.835 1050.71 415.331C1051.21 415.827 1051.84 416.164 1052.53 416.301C1053.22 416.438 1053.93 416.368 1054.58 416.099C1055.22 415.831 1055.78 415.377 1056.17 414.794C1056.56 414.211 1056.77 413.526 1056.77 412.824C1056.77 411.884 1056.39 410.983 1055.73 410.318C1055.06 409.653 1054.16 409.28 1053.22 409.28ZM1053.22 414.006C1052.91 414.006 1052.61 413.882 1052.38 413.66C1052.16 413.438 1052.04 413.138 1052.04 412.824C1052.04 412.511 1052.16 412.211 1052.38 411.989C1052.61 411.767 1052.91 411.643 1053.22 411.643C1053.53 411.643 1053.83 411.767 1054.06 411.989C1054.28 412.211 1054.4 412.511 1054.4 412.824C1054.4 413.138 1054.28 413.438 1054.06 413.66C1053.83 413.882 1053.53 414.006 1053.22 414.006Z" fill="#597476"/>
<path d="M1116.92 387.303C1117.19 385.226 1116.95 383.115 1116.23 381.151C1115.5 379.187 1114.3 377.43 1112.75 376.03C1116.29 368.256 1107 360.977 1100.27 366.022C1095.1 362.008 1088.54 360.209 1082.05 361.022C1075.55 361.835 1069.64 365.193 1065.61 370.359C1064.08 370.177 1062.52 370.352 1061.06 370.872C1059.61 371.392 1058.29 372.241 1057.21 373.354C1056.14 374.468 1055.34 375.814 1054.87 377.289C1054.4 378.764 1054.28 380.327 1054.52 381.856C1051.86 382.923 1049.68 384.92 1048.39 387.473C1047.09 390.027 1046.77 392.965 1047.48 395.739C1048.18 398.514 1049.88 400.938 1052.24 402.559C1054.6 404.18 1057.47 404.889 1060.31 404.553C1060.3 406.384 1060.9 408.166 1062.01 409.62C1063.12 411.075 1064.68 412.12 1066.45 412.591C1068.22 413.063 1070.09 412.934 1071.78 412.226C1073.47 411.518 1074.87 410.27 1075.78 408.677C1081.79 411.133 1088.53 411.133 1094.54 408.677C1095.95 409.552 1097.52 410.134 1099.16 410.389C1100.8 410.644 1102.48 410.567 1104.09 410.163C1105.7 409.759 1107.21 409.035 1108.54 408.035C1109.86 407.034 1110.97 405.778 1111.8 404.341C1114.06 405.019 1116.5 404.772 1118.58 403.654C1120.65 402.537 1122.2 400.639 1122.88 398.38C1123.56 396.12 1123.31 393.684 1122.19 391.607C1121.07 389.529 1119.18 387.981 1116.92 387.303ZM1111.66 401.718C1111.38 401.609 1111.07 401.61 1110.79 401.722C1110.51 401.834 1110.29 402.048 1110.16 402.32C1109.54 403.642 1108.63 404.812 1107.51 405.748C1106.39 406.685 1105.08 407.366 1103.67 407.744C1102.25 408.122 1100.78 408.187 1099.34 407.936C1097.9 407.685 1096.53 407.124 1095.33 406.29C1095.16 406.17 1094.96 406.097 1094.75 406.078C1094.55 406.059 1094.34 406.096 1094.15 406.184C1091.23 407.468 1088.08 408.116 1084.89 408.085C1081.7 408.055 1078.56 407.346 1075.67 406.007C1075.52 405.94 1075.36 405.903 1075.2 405.9C1075.04 405.896 1074.88 405.926 1074.73 405.987C1074.58 406.048 1074.45 406.138 1074.33 406.254C1074.22 406.369 1074.13 406.506 1074.07 406.657C1073.57 407.93 1072.64 408.99 1071.44 409.653C1070.25 410.317 1068.85 410.544 1067.51 410.296C1066.16 410.048 1064.94 409.339 1064.06 408.292C1063.18 407.244 1062.69 405.923 1062.67 404.553C1062.67 403.372 1063.12 402.84 1062.47 402.19C1062.33 402.05 1062.15 401.949 1061.96 401.895C1061.77 401.842 1061.57 401.837 1061.37 401.883C1059.03 402.372 1056.59 401.955 1054.54 400.714C1052.49 399.474 1050.99 397.504 1050.34 395.2C1049.69 392.897 1049.94 390.433 1051.04 388.305C1052.13 386.177 1053.99 384.543 1056.24 383.734C1056.54 383.644 1056.78 383.445 1056.93 383.178C1057.07 382.912 1057.11 382.599 1057.04 382.305C1056.71 381.051 1056.7 379.736 1057.02 378.48C1057.34 377.225 1057.97 376.071 1058.86 375.126C1059.75 374.182 1060.86 373.478 1062.09 373.08C1063.32 372.682 1064.64 372.604 1065.91 372.852C1066.13 372.895 1066.36 372.875 1066.57 372.794C1066.78 372.712 1066.96 372.572 1067.09 372.391C1068.9 369.919 1071.2 367.846 1073.85 366.301C1076.49 364.755 1079.43 363.77 1082.47 363.407C1085.52 363.043 1088.6 363.309 1091.54 364.188C1094.47 365.067 1097.19 366.54 1099.54 368.516C1099.75 368.712 1100.04 368.82 1100.33 368.82C1100.62 368.82 1100.9 368.712 1101.12 368.516C1106.07 363.73 1113.82 369.957 1110.27 375.818C1110.11 376.065 1110.06 376.36 1110.11 376.646C1110.16 376.931 1110.32 377.187 1110.55 377.366C1112.14 378.586 1113.35 380.235 1114.04 382.118C1114.72 384.002 1114.86 386.042 1114.42 388C1114.39 388.153 1114.39 388.312 1114.41 388.468C1114.44 388.623 1114.5 388.771 1114.59 388.903C1114.67 389.035 1114.78 389.148 1114.91 389.237C1115.05 389.325 1115.19 389.387 1115.35 389.418C1116.27 389.555 1117.15 389.888 1117.93 390.395C1118.71 390.902 1119.37 391.571 1119.87 392.356C1120.36 393.141 1120.69 394.024 1120.82 394.946C1120.94 395.867 1120.87 396.805 1120.6 397.696C1120.34 398.587 1119.88 399.41 1119.27 400.109C1118.66 400.809 1117.9 401.368 1117.05 401.75C1116.2 402.131 1115.28 402.326 1114.35 402.32C1113.42 402.315 1112.5 402.109 1111.66 401.718Z" fill="#597476"/>
<path d="M1073.31 378.559C1074.43 378.559 1076.06 378.441 1076.98 380.272C1077.13 380.528 1077.38 380.716 1077.67 380.798C1077.95 380.881 1078.26 380.852 1078.53 380.718C1078.79 380.583 1079 380.353 1079.1 380.073C1079.21 379.793 1079.2 379.484 1079.08 379.209C1078.63 378.301 1077.94 377.537 1077.08 377.005C1076.21 376.472 1075.22 376.192 1074.2 376.196H1073.31C1071.74 376.196 1070.24 376.818 1069.13 377.926C1068.02 379.034 1067.4 380.537 1067.4 382.104V386.83C1067.4 388.397 1068.02 389.9 1069.13 391.007C1070.24 392.115 1071.74 392.738 1073.31 392.738H1074.2C1075.22 392.742 1076.21 392.462 1077.08 391.929C1077.94 391.397 1078.63 390.633 1079.08 389.725C1079.2 389.449 1079.21 389.141 1079.1 388.861C1079 388.581 1078.79 388.351 1078.53 388.216C1078.26 388.082 1077.95 388.053 1077.67 388.135C1077.38 388.218 1077.13 388.406 1076.98 388.661C1076.09 390.375 1074.49 390.375 1073.31 390.375C1072.37 390.375 1071.46 390.001 1070.8 389.336C1070.14 388.672 1069.76 387.77 1069.76 386.83V382.104C1069.76 381.164 1070.14 380.262 1070.8 379.597C1071.46 378.932 1072.37 378.559 1073.31 378.559Z" fill="#597476"/>
<path d="M1087.49 376.196C1085.92 376.196 1084.42 376.818 1083.31 377.926C1082.2 379.034 1081.58 380.537 1081.58 382.104V386.83C1081.58 388.397 1082.2 389.899 1083.31 391.007C1084.42 392.115 1085.92 392.738 1087.49 392.738C1089.05 392.738 1090.56 392.115 1091.66 391.007C1092.77 389.899 1093.39 388.397 1093.39 386.83V382.104C1093.39 380.537 1092.77 379.034 1091.66 377.926C1090.56 376.818 1089.05 376.196 1087.49 376.196ZM1091.03 386.83C1091.03 387.77 1090.66 388.672 1089.99 389.336C1089.33 390.001 1088.43 390.375 1087.49 390.375C1086.55 390.375 1085.64 390.001 1084.98 389.336C1084.31 388.672 1083.94 387.77 1083.94 386.83V382.104C1083.94 381.164 1084.31 380.262 1084.98 379.597C1085.64 378.932 1086.55 378.559 1087.49 378.559C1088.43 378.559 1089.33 378.932 1089.99 379.597C1090.66 380.262 1091.03 381.164 1091.03 382.104V386.83Z" fill="#597476"/>
<path d="M1102.85 390.374C1102.85 389.434 1102.47 388.533 1101.81 387.868C1101.14 387.203 1100.24 386.83 1099.3 386.83C1098.36 386.83 1097.46 387.203 1096.79 387.868C1096.13 388.533 1095.76 389.434 1095.76 390.374C1095.76 390.688 1095.88 390.988 1096.1 391.21C1096.32 391.431 1096.62 391.556 1096.94 391.556C1097.25 391.556 1097.55 391.431 1097.77 391.21C1097.99 390.988 1098.12 390.688 1098.12 390.374C1098.12 390.061 1098.24 389.76 1098.47 389.539C1098.69 389.317 1098.99 389.193 1099.3 389.193C1099.61 389.193 1099.91 389.317 1100.14 389.539C1100.36 389.76 1100.48 390.061 1100.48 390.374C1100.48 391.213 1100.06 391.284 1096.23 394.155C1095.66 394.581 1095.76 395.041 1095.76 396.282C1095.76 396.596 1095.88 396.896 1096.1 397.118C1096.32 397.339 1096.62 397.464 1096.94 397.464H1101.66C1101.98 397.464 1102.28 397.339 1102.5 397.118C1102.72 396.896 1102.85 396.596 1102.85 396.282C1102.85 395.969 1102.72 395.668 1102.5 395.447C1102.28 395.225 1101.98 395.101 1101.66 395.101H1098.91C1101.14 393.423 1102.85 392.607 1102.85 390.374Z" fill="#597476"/>
</g>
<path d="M1121.55 494.858H1114.46C1114.46 468.855 1082.73 455.25 1064.03 473.961L1060.68 477.306L1064.03 480.674L1051.5 481.514L1052.33 468.973L1055.67 472.318L1059.02 468.973C1082.17 445.794 1121.55 462.507 1121.55 494.858Z" fill="#DBE4E3"/>
<path d="M1118.33 508.229L1117.51 520.77L1114.16 517.425L1110.82 520.77C1087.67 543.925 1048.29 527.212 1048.29 494.86H1055.38C1055.38 520.864 1087.1 534.469 1105.81 515.758L1109.15 512.413L1105.81 509.044L1118.33 508.229Z" fill="#DBE4E3"/>
<path d="M1097.64 494.86L1088.56 491.22V471.22L1072.19 494.86L1081.28 498.501V518.5L1097.64 494.86Z" fill="#E7D3A1"/>
<path d="M1097.64 494.86L1081.28 518.5V513.772L1095.08 493.832L1097.64 494.86Z" fill="#E7D3A1"/>
<path d="M1058.18 468.112L1055.68 470.617C1053.37 468.324 1052.91 467.473 1051.92 467.84C1050.93 468.206 1051.24 467.674 1050.33 481.409C1050.32 481.576 1050.34 481.744 1050.4 481.901C1050.46 482.057 1050.55 482.2 1050.67 482.318C1050.79 482.437 1050.93 482.528 1051.09 482.588C1051.24 482.647 1051.41 482.672 1051.58 482.662C1064.81 481.787 1064.77 482.059 1065.14 481.066C1065.52 480.073 1064.84 479.778 1062.37 477.308L1064.84 474.766C1082.56 457.036 1113.28 469.625 1113.28 494.86C1113.28 495.174 1113.4 495.474 1113.63 495.696C1113.85 495.918 1114.15 496.042 1114.46 496.042H1121.55C1121.86 496.042 1122.17 495.918 1122.39 495.696C1122.61 495.474 1122.73 495.174 1122.73 494.86C1122.73 461.244 1081.85 444.448 1058.18 468.112ZM1115.64 493.678C1114.63 467.201 1082.24 454.081 1063.21 473.135L1059.86 476.468C1059.75 476.578 1059.66 476.709 1059.6 476.853C1059.54 476.997 1059.51 477.152 1059.51 477.308C1059.51 477.464 1059.54 477.618 1059.6 477.762C1059.66 477.906 1059.75 478.037 1059.86 478.147L1061.36 479.648L1052.77 480.215L1053.34 471.634L1054.84 473.135C1054.95 473.246 1055.08 473.334 1055.22 473.394C1055.37 473.454 1055.52 473.485 1055.68 473.485C1055.83 473.485 1055.99 473.454 1056.13 473.394C1056.28 473.334 1056.41 473.246 1056.52 473.135L1059.86 469.79C1081.78 447.852 1119.35 462.946 1120.37 493.678H1115.64Z" fill="#597476"/>
<path d="M1118.26 507.058C1104.9 507.944 1105.08 507.661 1104.7 508.654C1104.32 509.647 1105.01 509.942 1107.48 512.412L1105.01 514.954C1087.28 532.684 1056.56 520.072 1056.56 494.86C1056.56 494.546 1056.44 494.246 1056.22 494.024C1055.99 493.802 1055.69 493.678 1055.38 493.678H1048.29C1047.98 493.678 1047.68 493.802 1047.46 494.024C1047.23 494.246 1047.11 494.546 1047.11 494.86C1047.11 528.535 1088.04 545.236 1111.66 521.608L1114.16 519.102C1116.41 521.348 1116.92 522.247 1117.92 521.88C1118.93 521.514 1118.61 522.01 1119.52 508.311C1119.53 508.144 1119.5 507.976 1119.44 507.819C1119.38 507.663 1119.29 507.52 1119.17 507.402C1119.05 507.283 1118.91 507.191 1118.75 507.132C1118.6 507.073 1118.43 507.048 1118.26 507.058ZM1116.5 518.086C1113.75 515.344 1114.58 515.344 1109.98 519.93C1088.05 541.868 1050.49 526.774 1049.47 496.042H1054.2C1055.19 522.483 1087.54 535.674 1106.61 516.585L1109.96 513.252C1110.07 513.142 1110.16 513.011 1110.22 512.867C1110.28 512.723 1110.31 512.568 1110.31 512.412C1110.31 512.256 1110.28 512.102 1110.22 511.958C1110.16 511.814 1110.07 511.683 1109.96 511.573L1108.46 510.072L1117.05 509.505L1116.5 518.086Z" fill="#597476"/>
<path d="M1087.58 470.546L1071.23 494.186C1071.13 494.332 1071.06 494.499 1071.03 494.675C1071 494.851 1071.01 495.031 1071.07 495.201C1071.12 495.372 1071.21 495.528 1071.33 495.66C1071.45 495.791 1071.59 495.893 1071.76 495.959L1080.1 499.292V518.5C1080.1 518.813 1080.23 519.114 1080.45 519.336C1080.67 519.557 1080.97 519.682 1081.28 519.682C1082.17 519.682 1080.77 521.313 1098.62 495.534C1098.72 495.388 1098.79 495.221 1098.81 495.045C1098.84 494.869 1098.83 494.689 1098.78 494.519C1098.73 494.348 1098.64 494.192 1098.52 494.06C1098.4 493.929 1098.25 493.827 1098.08 493.761L1089.74 490.427V471.22C1089.75 470.965 1089.67 470.717 1089.52 470.511C1089.37 470.305 1089.16 470.153 1088.91 470.077C1088.67 470.001 1088.41 470.006 1088.17 470.091C1087.93 470.175 1087.72 470.335 1087.58 470.546ZM1095.85 495.368L1082.46 514.718V498.501C1082.46 497.413 1082.28 497.614 1074.02 494.316L1087.38 475.002V491.219C1087.38 492.307 1087.57 492.106 1095.83 495.404L1095.85 495.368Z" fill="#597476"/>
<defs>
<clipPath id="clip0_730_3104">
<rect width="180.049" height="180.049" fill="white" transform="translate(651 277)"/>
</clipPath>
<clipPath id="clip1_730_3104">
<rect width="75.6204" height="75.6204" fill="white" transform="translate(1047.11 349.02)"/>
</clipPath>
</defs>
</svg>
