<svg width="36" height="37" viewBox="0 0 36 37" fill="none" xmlns="http://www.w3.org/2000/svg">
<path fill-rule="evenodd" clip-rule="evenodd" d="M29.0335 9.10894C28.43 8.50509 27.7134 8.02607 26.9246 7.69925C26.1359 7.37243 25.2905 7.20421 24.4368 7.20421C23.583 7.20421 22.7376 7.37243 21.9489 7.69925C21.1602 8.02607 20.4436 8.50509 19.84 9.10894L18.0006 10.9472L16.1613 9.10894C15.5593 8.49759 14.8423 8.01144 14.0515 7.67851C13.2608 7.34558 12.412 7.17246 11.554 7.16912C10.6961 7.16578 9.84594 7.33228 9.05263 7.65905C8.25933 7.98581 7.53855 8.46636 6.93183 9.07299C6.32512 9.67963 5.84448 10.4004 5.51763 11.1936C5.19077 11.9869 5.02415 12.837 5.02739 13.695C5.03063 14.5529 5.20365 15.4018 5.53648 16.1925C5.86932 16.9833 6.35538 17.7004 6.96665 18.3024L8.8049 20.1407L17.2041 28.5411C17.3086 28.6457 17.4327 28.7286 17.5693 28.7853C17.7059 28.8419 17.8522 28.871 18.0001 28.871C18.1479 28.871 18.2943 28.8419 18.4309 28.7853C18.5675 28.7286 18.6915 28.6457 18.796 28.5411L27.1953 20.1407L29.0335 18.3024C29.6374 17.6989 30.1164 16.9823 30.4432 16.1936C30.77 15.4048 30.9382 14.5594 30.9382 13.7057C30.9382 12.8519 30.77 12.0065 30.4432 11.2178C30.1164 10.4291 29.6374 9.71248 29.0335 9.10894Z" fill="#D89E75" stroke="#D89E75" stroke-width="1.6" stroke-linecap="round"/>
</svg>
