<svg width="36" height="36" viewBox="0 0 36 36" fill="none" xmlns="http://www.w3.org/2000/svg">
<mask id="mask0_526_2921" style="mask-type:alpha" maskUnits="userSpaceOnUse" x="0" y="0" width="36" height="36">
<rect width="36" height="36" fill="#D9D9D9"/>
</mask>
<g mask="url(#mask0_526_2921)">
<path d="M5 6.5C5 5.67157 5.67157 5 6.5 5H29.5C30.3284 5 31 5.67157 31 6.5V6.5C31 7.32843 30.3284 8 29.5 8H6.5C5.67157 8 5 7.32843 5 6.5V6.5Z" fill="#597476"/>
<path d="M5 17.5C5 16.6716 5.67157 16 6.5 16H29.5C30.3284 16 31 16.6716 31 17.5V17.5C31 18.3284 30.3284 19 29.5 19H6.5C5.67157 19 5 18.3284 5 17.5V17.5Z" fill="#597476"/>
<path d="M5 28.5C5 27.6716 5.67157 27 6.5 27H29.5C30.3284 27 31 27.6716 31 28.5V28.5C31 29.3284 30.3284 30 29.5 30H6.5C5.67157 30 5 29.3284 5 28.5V28.5Z" fill="#597476"/>
</g>
</svg>
