<svg width="37" height="37" viewBox="0 0 37 37" fill="none" xmlns="http://www.w3.org/2000/svg">
<path fill-rule="evenodd" clip-rule="evenodd" d="M29.2972 8.88225C28.6936 8.2784 27.977 7.79938 27.1883 7.47256C26.3996 7.14574 25.5542 6.97753 24.7004 6.97753C23.8467 6.97753 23.0013 7.14574 22.2126 7.47256C21.4238 7.79938 20.7072 8.2784 20.1037 8.88225L18.2643 10.7205L16.4249 8.88225C15.823 8.27091 15.106 7.78476 14.3152 7.45183C13.5245 7.1189 12.6757 6.94577 11.8177 6.94243C10.9597 6.93909 10.1096 7.1056 9.31631 7.43236C8.523 7.75912 7.80222 8.23967 7.19551 8.84631C6.58879 9.45295 6.10816 10.1737 5.7813 10.9669C5.45444 11.7602 5.28783 12.6103 5.29106 13.4683C5.2943 14.3262 5.46732 15.1751 5.80015 15.9659C6.13299 16.7566 6.61905 17.4737 7.23032 18.0758L9.06857 19.914L17.4678 28.3144C17.5723 28.419 17.6964 28.502 17.8329 28.5586C17.9695 28.6152 18.1159 28.6443 18.2638 28.6443C18.4116 28.6443 18.558 28.6152 18.6946 28.5586C18.8311 28.502 18.9552 28.419 19.0597 28.3144L27.4589 19.914L29.2972 18.0758C29.901 17.4722 30.3801 16.7556 30.7069 15.9669C31.0337 15.1782 31.2019 14.3328 31.2019 13.479C31.2019 12.6252 31.0337 11.7799 30.7069 10.9911C30.3801 10.2024 29.901 9.4858 29.2972 8.88225Z" fill="#597476" stroke="#597476" stroke-width="1.6" stroke-linecap="round"/>
</svg>
