<svg width="73" height="28" viewBox="0 0 73 28" fill="none" xmlns="http://www.w3.org/2000/svg">
<path d="M12.8359 12.529V0.536133H14.7526V12.529H12.8359ZM16.1296 8.05225L14.9976 2.66366H14.4828L14.568 0.536133H15.7931L16.8398 5.81463H16.908L17.1189 8.05225H16.1296ZM16.6196 8.05225L16.8723 5.81463H16.9731L18.0214 0.536133H19.2464L19.3302 2.66366H18.8153L17.6833 8.05225H16.6196ZM19.0603 12.529V0.536133H20.977V12.529H19.0603Z" fill="#51A9AE"/>
<path d="M23.3096 2.37678V0.536133H30.7761V2.37678H23.3096ZM23.3096 12.529V10.6791H30.7761V12.529H23.3096ZM26.0108 12.529V0.536133H28.0546V12.529H26.0108Z" fill="#51A9AE"/>
<path d="M33.376 12.529V0.536133H35.412V12.529H33.376ZM33.376 12.529V10.6543H41.4844V12.529H33.376Z" fill="#51A9AE"/>
<path d="M43.4258 12.529V0.536133H45.4618V12.529H43.4258ZM44.5748 8.71129L44.7268 6.70161C45.5549 6.70161 46.2697 6.52794 46.8714 6.18214C47.473 5.83634 47.9708 5.37113 48.3616 4.78808C48.7523 4.20503 49.0423 3.54599 49.2315 2.81252C49.4207 2.0775 49.5137 1.31922 49.5137 0.536133H51.5668C51.5668 1.5999 51.4102 2.62179 51.0985 3.60182C50.7868 4.58184 50.3294 5.45642 49.7308 6.224C49.1307 6.99314 48.3972 7.59945 47.5304 8.0445C46.6636 8.48954 45.6774 8.71129 44.5748 8.71129ZM49.675 12.529L47.014 7.00554L48.864 6.14337L52.1406 12.5275H49.675V12.529Z" fill="#51A9AE"/>
<path d="M56.5661 8.77951L52.5049 0.536133H54.7425L57.3693 6.27983H57.5213L60.1482 0.536133H62.3858L58.323 8.77951H56.5661ZM56.4234 12.529V6.61632H58.4672V12.529H56.4234Z" fill="#51A9AE"/>
<path d="M19.3982 25.3995C17.7839 24.7714 14.4314 25.7096 12.0449 26.7299C5.18471 29.6623 4.09304 23.7682 8.15425 22.1927C10.2244 21.3894 12.6016 21.4577 14.6392 22.25C16.4411 22.9494 17.939 24.1651 19.3982 25.3995Z" fill="#51A9AE"/>
<path d="M14.2708 20.6469C12.534 19.7879 10.1181 19.777 8.27588 19.2653C1.64055 17.4231 4.58218 11.3491 7.93628 13.0502C10.8004 14.5016 11.2671 17.5115 14.2708 20.6469Z" fill="#51A9AE"/>
<path d="M7.88933 20.7606C6.96978 20.2752 4.44218 19.0548 2.57052 19.3153C-1.69228 19.9108 -0.0222059 24.6218 3.02177 23.4231C4.62516 22.792 5.79437 21.0831 7.88933 20.7606Z" fill="#51A9AE"/>
<path d="M4.90595 24.1688C5.27035 24.465 5.32618 25.0015 5.03 25.3659C4.73382 25.7303 4.19729 25.7861 3.83288 25.49C3.46847 25.1938 3.41265 24.6572 3.70883 24.2928C4.005 23.9284 4.53999 23.8726 4.90595 24.1688Z" fill="#51A9AE"/>
<path d="M3.60777 16.9233C3.82642 17.1017 3.86053 17.4227 3.68221 17.6413C3.50388 17.86 3.18289 17.8941 2.96425 17.7157C2.7456 17.5374 2.71149 17.2164 2.88981 16.9978C3.06659 16.7791 3.38758 16.7466 3.60777 16.9233Z" fill="#51A9AE"/>
<path d="M52.7227 25.3995C54.3369 24.7714 57.6895 25.7096 60.076 26.7299C66.9361 29.6623 68.0278 23.7682 63.9666 22.1927C61.8964 21.3894 59.5193 21.4577 57.4817 22.25C55.6798 22.9494 54.1818 24.1651 52.7227 25.3995Z" fill="#51A9AE"/>
<path d="M57.8506 20.6469C59.5873 19.7879 62.0033 19.777 63.8455 19.2653C70.4793 17.4231 67.5392 11.3491 64.1835 13.0502C61.321 14.5016 60.8542 17.5115 57.8506 20.6469Z" fill="#51A9AE"/>
<path d="M64.2324 20.7606C65.152 20.2752 67.6796 19.0548 69.5512 19.3153C73.814 19.9108 72.144 24.6218 69.1 23.4231C67.4966 22.792 66.3274 21.0831 64.2324 20.7606Z" fill="#51A9AE"/>
<path d="M67.2157 24.1688C66.8513 24.465 66.7955 25.0015 67.0916 25.3659C67.3878 25.7303 67.9244 25.7861 68.2888 25.49C68.6532 25.1938 68.709 24.6572 68.4128 24.2928C68.1166 23.9284 67.5817 23.8726 67.2157 24.1688Z" fill="#51A9AE"/>
<path d="M68.5131 16.9233C68.2944 17.1017 68.2603 17.4227 68.4386 17.6413C68.617 17.86 68.938 17.8941 69.1566 17.7157C69.3752 17.5374 69.4094 17.2164 69.231 16.9978C69.0543 16.7791 68.7333 16.7466 68.5131 16.9233Z" fill="#51A9AE"/>
<path d="M22.3154 26.6404V14.6475H24.3515V26.6404H22.3154ZM23.6583 20.7447V19.9167H27.0372V20.7447H23.6583ZM24.2321 20.2128V19.3677H25.9967C26.5658 19.3677 27 19.2421 27.3008 18.9924C27.6017 18.7428 27.7521 18.3768 27.7521 17.8992C27.7521 17.4495 27.5924 17.1068 27.2745 16.8727C26.9566 16.6385 26.4898 16.5222 25.8773 16.5222H24.2646L24.063 14.6475H25.9626C27.2063 14.6475 28.1677 14.9064 28.8469 15.4243C29.5261 15.9423 29.8641 16.6835 29.8641 17.6449C29.8641 18.4668 29.5788 19.101 29.0066 19.5445C28.4344 19.9895 27.6234 20.2113 26.5705 20.2113H24.2321V20.2128ZM24.2321 26.6404V24.7656H26.5038C27.1675 24.7656 27.6839 24.6121 28.0498 24.3051C28.4158 23.998 28.5988 23.5654 28.5988 23.0087C28.5988 22.4458 28.4065 22.0116 28.025 21.7046C27.642 21.3975 27.0962 21.244 26.3859 21.244H24.2662L24.063 20.3989H27.2295C28.3382 20.3989 29.1958 20.6548 29.8005 21.168C30.4053 21.6798 30.7092 22.407 30.7092 23.3467C30.7092 24.3934 30.3867 25.2044 29.7416 25.7797C29.0965 26.3535 28.1801 26.6419 26.9923 26.6419H24.2321V26.6404Z" fill="#51A9AE"/>
<path d="M31.4785 26.6404L34.9412 14.6475H37.5587L41.0214 26.6404H38.8675L36.3259 16.9874H36.174L33.6324 26.6404H31.4785ZM33.1672 24.1066V22.2318H39.2474V24.1066H33.1672Z" fill="#51A9AE"/>
<path d="M42.415 26.6404V14.6475H44.4511V26.6404H42.415ZM44.3317 22.1806V20.3059H46.6205C47.2004 20.3059 47.6501 20.143 47.9711 19.8159C48.2921 19.4887 48.4518 19.0328 48.4518 18.4482C48.4518 17.8341 48.2905 17.3596 47.9711 17.0246C47.6517 16.6897 47.2004 16.5222 46.6205 16.5222H44.3658L44.1626 14.6475H46.6205C47.8936 14.6475 48.8751 14.9622 49.5683 15.5934C50.2614 16.2245 50.6072 17.1192 50.6072 18.2791C50.6072 19.5119 50.2614 20.4702 49.5683 21.1541C48.8751 21.8379 47.8936 22.1806 46.6205 22.1806H44.3317V22.1806ZM48.6394 26.6404L46.2064 20.999H48.3603L51.0461 26.6404H48.6394Z" fill="#51A9AE"/>
</svg>
