<svg width="25"
		 height="24"
		 viewBox="0 0 25 24"
		 fill="none"
		 xmlns="http://www.w3.org/2000/svg">
	<path d="M17.01 15.5556C18.1211 14.1111 18.7878 12.2222 18.7878 10.3333C18.7878 5.77778 15.01 2 10.4544 2C5.89887 2 2.12109 5.77778 2.12109 10.3333C2.12109 15 5.89887 18.6667 10.4544 18.6667C12.3433 18.6667 14.1211 18 15.6766 16.8889L20.6767 21.8889L22.1211 20.4444L17.01 15.5556ZM10.4544 16.7778C7.00998 16.7778 4.12109 13.8889 4.12109 10.4444C4.12109 7 7.00998 4.11111 10.4544 4.11111C13.8989 4.11111 16.7878 7 16.7878 10.4444C16.7878 13.8889 14.01 16.7778 10.4544 16.7778Z"
				fill="#597476" />
</svg>
