<svg width="37" height="37" viewBox="0 0 37 37" fill="none" xmlns="http://www.w3.org/2000/svg">
<path d="M12.2637 32.0361C13.6444 32.0361 14.7637 30.9168 14.7637 29.5361C14.7637 28.1554 13.6444 27.0361 12.2637 27.0361C10.883 27.0361 9.76367 28.1554 9.76367 29.5361C9.76367 30.9168 10.883 32.0361 12.2637 32.0361Z" fill="#597476"/>
<path d="M28.2637 32.0361C29.6444 32.0361 30.7637 30.9168 30.7637 29.5361C30.7637 28.1554 29.6444 27.0361 28.2637 27.0361C26.883 27.0361 25.7637 28.1554 25.7637 29.5361C25.7637 30.9168 26.883 32.0361 28.2637 32.0361Z" fill="#597476"/>
<path d="M28.764 25.0361H14.1132C13.037 25.0361 12.3109 23.9363 12.7338 22.9467L13.764 20.5361L8.56665 4.72388C8.43176 4.31351 8.04862 4.03613 7.61665 4.03613H5.26367" stroke="#597476" stroke-width="2.5" stroke-linecap="round" stroke-linejoin="round"/>
<path d="M9.76367 8.53613H29.9829C30.6335 8.53613 31.1108 9.14752 30.953 9.77867L28.453 19.7787C28.3417 20.2238 27.9418 20.5361 27.4829 20.5361H13.7637" fill="#597476"/>
<path d="M9.76367 8.53613H29.9829C30.6335 8.53613 31.1108 9.14752 30.953 9.77867L28.453 19.7787C28.3417 20.2238 27.9418 20.5361 27.4829 20.5361H13.7637" stroke="#597476" stroke-linecap="round" stroke-linejoin="round"/>
</svg>
