<svg width="24" height="24" viewBox="0 0 24 24" fill="none" xmlns="http://www.w3.org/2000/svg">
<g clip-path="url(#clip0_610_3123)">
<path fill-rule="evenodd" clip-rule="evenodd" d="M19.7782 5.63599C20.1687 5.24547 20.1687 4.6123 19.7782 4.22178C19.3876 3.83125 18.7545 3.83125 18.364 4.22178L12 10.5857L5.63604 4.22178C5.24551 3.83125 4.61235 3.83125 4.22183 4.22178C3.8313 4.6123 3.8313 5.24547 4.22183 5.63599L10.5858 12L4.22182 18.3639C3.8313 18.7544 3.8313 19.3876 4.22182 19.7781C4.61235 20.1687 5.24551 20.1686 5.63604 19.7781L12 13.4142L18.364 19.7781C18.7545 20.1687 19.3876 20.1687 19.7782 19.7781C20.1687 19.3876 20.1687 18.7544 19.7782 18.3639L13.4142 12L19.7782 5.63599Z" fill="#333333"/>
</g>
<defs>
<clipPath id="clip0_610_3123">
<rect width="24" height="24" fill="white"/>
</clipPath>
</defs>
</svg>
