<svg width="14" height="14" viewBox="0 0 14 14" fill="none" xmlns="http://www.w3.org/2000/svg">
<path fill-rule="evenodd" clip-rule="evenodd" d="M7.58268 1.75008C7.58268 1.42792 7.32152 1.16675 6.99935 1.16675C6.67718 1.16675 6.41602 1.42792 6.41602 1.75008V6.41675H1.74935C1.42718 6.41675 1.16602 6.67792 1.16602 7.00008C1.16602 7.32225 1.42718 7.58342 1.74935 7.58342H6.41602V12.2501C6.41602 12.5722 6.67718 12.8334 6.99935 12.8334C7.32152 12.8334 7.58268 12.5722 7.58268 12.2501V7.58342H12.2493C12.5715 7.58342 12.8327 7.32225 12.8327 7.00008C12.8327 6.67792 12.5715 6.41675 12.2493 6.41675H7.58268V1.75008Z" fill="#757575"/>
</svg>
