<svg width="24" height="24" viewBox="0 0 24 24" fill="none" xmlns="http://www.w3.org/2000/svg">
<path d="M16.8889 15.5556C18 14.1111 18.6667 12.2222 18.6667 10.3333C18.6667 5.77778 14.8889 2 10.3333 2C5.77778 2 2 5.77778 2 10.3333C2 15 5.77778 18.6667 10.3333 18.6667C12.2222 18.6667 14 18 15.5556 16.8889L20.5556 21.8889L22 20.4444L16.8889 15.5556ZM10.3333 16.7778C6.88889 16.7778 4 13.8889 4 10.4444C4 7 6.88889 4.11111 10.3333 4.11111C13.7778 4.11111 16.6667 7 16.6667 10.4444C16.6667 13.8889 13.8889 16.7778 10.3333 16.7778Z" fill="#757575"/>
</svg>
